<?xml version="1.0" standalone="no"?>
<!DOCTYPE svg PUBLIC "-//W3C//DTD SVG 1.1//EN" "http://www.w3.org/Graphics/SVG/1.1/DTD/svg11.dtd" >
<svg xmlns="http://www.w3.org/2000/svg" xmlns:xlink="http://www.w3.org/1999/xlink" version="1.1">
<metadata>
Created by FontForge 20170731 at Wed Sep 15 18:08:45 2004
 By Aleksey,,,
Copyright (c) The Foundry, 2001. All rights reserved.
</metadata>
<defs>
<font id="FoundryMonoline-ExtraBold" horiz-adv-x="1024" >
  <font-face 
    font-family="FoundryMonoline-ExtraBold"
    font-weight="400"
    font-stretch="normal"
    units-per-em="2048"
    panose-1="2 0 5 3 0 0 0 2 0 4"
    ascent="1638"
    descent="-410"
    x-height="1008"
    cap-height="1366"
    bbox="-356 -440 2419 1772"
    underline-thickness="50"
    underline-position="-175"
    unicode-range="U+0020-F002"
  />
<missing-glyph 
d="M129 0v1487h768v-1487h-768zM256 129h512v1231h-512v-1231z" />
    <glyph glyph-name=".notdef" 
d="M129 0v1487h768v-1487h-768zM256 129h512v1231h-512v-1231z" />
    <glyph glyph-name=".null" horiz-adv-x="0" 
 />
    <glyph glyph-name="glyph2" horiz-adv-x="451" 
 />
    <glyph glyph-name="space" unicode=" " horiz-adv-x="451" 
 />
    <glyph glyph-name="exclam" unicode="!" horiz-adv-x="627" 
d="M453 416h-283v950h283v-950zM487 158q0 -80 -46 -127t-128 -47t-128 47t-46 127q0 170 174 170t174 -170z" />
    <glyph glyph-name="quotedbl" unicode="&#x22;" horiz-adv-x="1020" 
d="M860 901h-272v465h272v-465zM432 901h-272v465h272v-465z" />
    <glyph glyph-name="numbersign" unicode="#" horiz-adv-x="1255" 
d="M768 809h-231l-56 -199h232zM1223 797h-215l-50 -174h158v-226h-219l-117 -397h-260l117 397h-191l-116 -397h-260l116 397h-153v226h217l47 174h-158v225h221l115 399h258l-115 -399h193l115 399h258l-115 -399h154v-225z" />
    <glyph glyph-name="dollar" unicode="$" horiz-adv-x="1208" 
d="M1094 416q0 -199 -90.5 -296t-276.5 -120v-203h-254v203q-166 16 -252 82q-106 84 -106 262h284q0 -65 43 -92t162 -27q125 0 170 49q33 37 33 119q0 115 -53 144q-29 16 -193 30q-227 21 -309 78q-129 88 -129 332q0 344 350 389v195h254v-195q166 -16 248 -84
q104 -84 104 -264h-284q0 115 -195 115q-115 0 -152.5 -38t-37.5 -122t65 -111q21 -8 135 -18q275 -27 357 -78q127 -86 127 -350z" />
    <glyph glyph-name="percent" unicode="%" horiz-adv-x="1755" 
d="M1368 1366l-784 -1366h-199l782 1366h201zM684 952q0 -221 -41 -303q-63 -123 -264 -123t-264 123q-41 82 -41 303q0 224 41 303q63 125 264 125t264 -125q41 -79 41 -303zM502 952q0 164 -19 211q-22 56 -104 56t-105 -56q-18 -47 -18 -211t18 -209q23 -55 105 -55
t104 55q19 45 19 209zM1681 410q0 -222 -41 -304q-63 -122 -264 -122q-200 0 -264 122q-41 82 -41 304q0 223 41 303q64 125 264 125q201 0 264 -125q41 -80 41 -303zM1499 410q0 163 -18 211q-23 55 -105 55t-104 -55q-19 -48 -19 -211q0 -164 19 -209q22 -56 104 -56
t105 56q18 45 18 209z" />
    <glyph glyph-name="ampersand" unicode="&#x26;" horiz-adv-x="1282" 
d="M1237 571h-117v-92q0 -137 -16 -207q-25 -108 -98 -176q-123 -112 -394 -112q-258 0 -370 75q-140 93 -140 336q0 238 140 297q-127 56 -127 301q0 211 121 303q108 84 348 84q465 0 465 -362h-279q0 115 -186 115q-111 0 -152 -33t-41 -133q0 -88 40 -121t153 -33h264
v90h272v-90h117v-242zM848 479v92h-264q-125 0 -164 -31.5t-39 -140.5q0 -98 50 -133t185 -35q150 0 195 58q37 47 37 190z" />
    <glyph glyph-name="quotesingle" unicode="'" horiz-adv-x="592" 
d="M432 901h-272v465h272v-465z" />
    <glyph glyph-name="parenleft" unicode="(" horiz-adv-x="768" 
d="M707 -391q-254 0 -377 57q-131 60 -180 213q-68 211 -68 748q0 542 68 753q49 154 180 213q123 58 377 58v-254q-134 0 -187 -17q-74 -22 -100 -94q-55 -145 -55 -657q0 -510 55 -656q26 -71 100 -94q53 -16 187 -16v-254z" />
    <glyph glyph-name="parenright" unicode=")" horiz-adv-x="768" 
d="M61 -391q254 0 377 57q131 60 180 213q68 211 68 748q0 542 -68 753q-49 154 -180 213q-123 58 -377 58v-254q134 0 187 -17q74 -22 100 -94q55 -145 55 -657q0 -510 -55 -656q-26 -71 -100 -94q-53 -16 -187 -16v-254z" />
    <glyph glyph-name="asterisk" unicode="*" horiz-adv-x="1092" 
d="M1065 934l-328 -100l199 -256l-186 -127l-203 256l-199 -256l-188 127l200 256l-327 100l73 209l326 -96v319h232v-319l325 96z" />
    <glyph glyph-name="plus" unicode="+" horiz-adv-x="1233" 
d="M1165 379h-420v-379h-264v379h-413v254h415v375h262v-375h420v-254z" />
    <glyph glyph-name="comma" unicode="," horiz-adv-x="551" 
d="M412 51q0 -178 -107 -272l-110 -98l-175 176q78 77 91 94q28 45 28 119v258h273v-277z" />
    <glyph glyph-name="hyphen" unicode="-" horiz-adv-x="1106" 
d="M973 379h-840v254h840v-254z" />
    <glyph glyph-name="hyphen" unicode="&#x2010;" horiz-adv-x="1106" 
d="M973 379h-840v254h840v-254z" />
    <glyph glyph-name="period" unicode="." horiz-adv-x="553" 
d="M451 158q0 -80 -46.5 -127t-128.5 -47q-81 0 -127.5 47t-46.5 127q0 170 174 170q175 0 175 -170z" />
    <glyph glyph-name="slash" unicode="/" horiz-adv-x="1092" 
d="M1049 1628l-750 -1892h-256l750 1892h256z" />
    <glyph glyph-name="zero" unicode="0" horiz-adv-x="1188" 
d="M1087 682q0 -154 -8 -260q-18 -227 -125 -330q-114 -108 -360 -108q-238 0 -354 102q-97 84 -125 256q-15 94 -15 340t15 340q28 172 127 256q114 102 352 102q237 0 354 -102q96 -84 125 -256q14 -94 14 -340zM795 682q0 258 -23 336q-33 115 -178 115t-178 -115
q-23 -82 -23 -336q0 -258 23 -336q33 -115 178 -115t178 115q23 78 23 336z" />
    <glyph glyph-name="one" unicode="1" horiz-adv-x="1028" 
d="M1006 0h-902v250h304v749l-177 -176l-186 187l358 356h293v-1116h310v-250z" />
    <glyph glyph-name="two" unicode="2" horiz-adv-x="1153" 
d="M1051 958q0 -229 -140 -329q-77 -56 -336 -127q-131 -37 -162.5 -68t-31.5 -117v-63h668v-254h-953v352q0 164 84 254q64 70 201 113l250 74q74 26 102.5 62t28.5 108q0 96 -33 129q-37 41 -156 41q-182 0 -182 -115h-289q0 362 467 362q250 0 361 -90q121 -98 121 -332z
" />
    <glyph glyph-name="three" unicode="3" horiz-adv-x="1190" 
d="M1063 420q0 -248 -131 -348q-115 -88 -359 -88q-483 0 -483 360h289q0 -113 194 -113q201 0 201 183q0 112 -51 143q-35 23 -150 23h-180v251h180q189 0 189 148q0 94 -42 124t-147 30q-194 0 -194 -115h-289q0 362 483 362q244 0 355 -80q125 -90 125 -307
q0 -211 -125 -276q84 -37 114 -125q21 -62 21 -172z" />
    <glyph glyph-name="four" unicode="4" horiz-adv-x="1180" 
d="M1108 317h-188v-317h-267v317h-583v240l575 809h275v-805h188v-244zM653 561v432l-295 -432h295z" />
    <glyph glyph-name="five" unicode="5" horiz-adv-x="1190" 
d="M1075 451q0 -230 -84 -332q-112 -135 -411 -135q-461 0 -461 360h289q0 -113 176 -113q118 0 160 46.5t42 164.5q0 136 -28 179q-35 53 -152 53q-102 0 -143 -33t-41 -104h-285v829h897v-254h-622v-252q86 64 260 64q225 0 314 -107.5t89 -365.5z" />
    <glyph glyph-name="six" unicode="6" horiz-adv-x="1180" 
d="M1077 453q0 -469 -479 -469q-334 0 -434 225q-62 135 -62 514q0 334 70 463q104 194 432 194q447 0 447 -362h-279q0 115 -166 115q-135 0 -180 -64q-35 -47 -35 -174v-31q103 60 266 60q224 0 322 -108.5t98 -362.5zM791 449q0 131 -41 182q-41 45 -142 45
q-211 0 -211 -217q0 -125 45 -176.5t150 -51.5q108 0 153.5 48.5t45.5 169.5z" />
    <glyph glyph-name="seven" unicode="7" horiz-adv-x="1010" 
d="M987 1133l-590 -1133h-323l594 1114h-645v252h964v-233z" />
    <glyph glyph-name="eight" unicode="8" horiz-adv-x="1190" 
d="M1087 381q0 -229 -143 -324q-115 -73 -350 -73q-234 0 -348 75q-144 93 -144 322q0 268 136 328q-78 34 -105 125q-18 59 -18 182q0 203 123 287q112 77 356 77t356 -77q125 -84 125 -287q0 -123 -18 -182q-27 -91 -105 -125q135 -60 135 -328zM788 977q0 90 -34 121
q-41 37 -160 37q-117 0 -156 -35t-39 -123t38 -122t157 -34t160 35q34 33 34 121zM799 406q0 104 -46 141t-159 37q-115 0 -160 -37t-45 -141q0 -105 45 -141t160 -36t160 36t45 141z" />
    <glyph glyph-name="nine" unicode="9" horiz-adv-x="1180" 
d="M1077 641q0 -334 -69 -463q-105 -194 -433 -194q-446 0 -446 360h279q0 -115 165 -115q136 0 181 64q34 47 34 176v31q-102 -60 -266 -60q-223 0 -321.5 108.5t-98.5 362.5q0 469 480 469q333 0 434 -225q61 -135 61 -514zM782 905q0 125 -45 176.5t-149 51.5
q-109 0 -154 -48.5t-45 -169.5q0 -131 41 -179t141 -48q211 0 211 217z" />
    <glyph glyph-name="colon" unicode=":" horiz-adv-x="553" 
d="M451 854q0 -80 -46.5 -127t-128.5 -47q-81 0 -127.5 47t-46.5 127q0 170 174 170q175 0 175 -170zM451 158q0 -80 -46.5 -127t-128.5 -47q-81 0 -127.5 47t-46.5 127q0 170 174 170q175 0 175 -170z" />
    <glyph glyph-name="semicolon" unicode=";" horiz-adv-x="551" 
d="M449 854q0 -80 -46.5 -127t-128.5 -47q-81 0 -127.5 47t-46.5 127q0 170 174 170q175 0 175 -170zM412 51q0 -178 -107 -272l-110 -98l-175 176q78 77 91 94q28 45 28 119v258h273v-277z" />
    <glyph glyph-name="less" unicode="&#x3c;" horiz-adv-x="1212" 
d="M1167 236l-90 -236l-1020 383v246l1018 379l92 -236l-749 -266z" />
    <glyph glyph-name="equal" unicode="=" horiz-adv-x="1212" 
d="M1155 590h-1098v254h1098v-254zM1155 180h-1098v254h1098v-254z" />
    <glyph glyph-name="greater" unicode="&#x3e;" horiz-adv-x="1212" 
d="M1155 383l-1020 -383l-90 236l750 270l-750 266l92 236l1018 -379v-246z" />
    <glyph glyph-name="question" unicode="?" horiz-adv-x="987" 
d="M944 1028q0 -242 -184 -346q-113 -64 -131 -82q-33 -35 -33 -123v-61h-283v112q0 134 37 203q43 80 164 135q92 41 107 54q43 34 43 108q0 92 -31 123q-35 39 -141 39q-103 0 -141 -37t-38 -135h-276q0 235 129 338q106 84 321 84q226 0 334 -88q123 -99 123 -324z
M631 158q0 -80 -46 -127t-128 -47t-128 47t-46 127q0 170 174 170t174 -170z" />
    <glyph glyph-name="at" unicode="@" horiz-adv-x="1575" 
d="M1462 770q0 -348 -125 -465q-65 -61 -163 -80q-60 -10 -185 -8v64q-92 -78 -225 -78q-219 0 -297 131q-55 92 -55 301q0 211 53 303q78 133 297 133q131 0 225 -80v66h152v-666q147 0 147 395q0 267 -108 349q-93 67 -387 67q-316 0 -410 -123q-78 -102 -80 -444
q-2 -365 74 -467q92 -127 424 -127q344 0 432 141l155 -92q-90 -143 -278 -194q-117 -33 -320 -33q-428 0 -565 186q-110 152 -110 596q0 420 127 569q139 166 546 166q390 0 525 -112q151 -125 151 -498zM965 635q0 153 -44 204.5t-163 51.5q-115 0 -146 -80
q-18 -43 -18 -176q0 -135 16 -176q33 -78 150 -78q119 0 162 50t43 204z" />
    <glyph glyph-name="A" unicode="A" horiz-adv-x="1354" 
d="M1346 0h-318l-110 311h-484l-110 -311h-316l520 1366h301zM825 571l-149 426l-150 -426h299z" />
    <glyph glyph-name="B" unicode="B" horiz-adv-x="1346" 
d="M1227 406q0 -203 -92 -295q-78 -78 -205 -101q-62 -10 -197 -10h-590v1366h516q277 0 373 -37q185 -69 185 -307q0 -258 -142 -317q152 -70 152 -299zM920 967q0 96 -70 120q-39 15 -186 15h-230v-273h260q125 0 166 19q60 26 60 119zM928 414q0 112 -56 137
q-34 16 -200 16h-238v-301h299q113 0 150 25q45 28 45 123z" />
    <glyph glyph-name="C" unicode="C" horiz-adv-x="1358" 
d="M1251 403q0 -182 -102 -284q-135 -135 -451 -135q-270 0 -405 96q-115 82 -152 252q-22 106 -22 352t22 350q35 170 150 250q135 96 405 96q322 0 457 -135q98 -98 98 -284h-301q-2 81 -49 114q-55 37 -201 37q-176 0 -229 -84t-53 -346t53 -346t229 -84q146 0 201 37
q47 33 49 114h301z" />
    <glyph glyph-name="D" unicode="D" horiz-adv-x="1391" 
d="M1272 682q0 -180 -8 -256q-19 -152 -80 -242q-72 -104 -191 -147q-110 -37 -309 -37h-541v1366h539q199 0 309 -39q119 -41 191 -147q61 -93 80 -242q10 -78 10 -256zM973 682q0 285 -66 360q-51 58 -243 58h-222v-834h222q192 0 243 58q66 73 66 358z" />
    <glyph glyph-name="E" unicode="E" horiz-adv-x="1227" 
d="M1116 0h-973v1366h973v-266h-674v-269h654v-266h-654v-299h674v-266z" />
    <glyph glyph-name="F" unicode="F" horiz-adv-x="1194" 
d="M1096 1100h-654v-269h635v-266h-635v-565h-299v1366h953v-266z" />
    <glyph glyph-name="G" unicode="G" horiz-adv-x="1395" 
d="M1253 0h-221v102q-129 -118 -354 -118q-268 0 -399 96q-111 82 -142 252q-18 96 -18 352q0 246 22 350q35 170 150 250q135 96 405 96q322 0 457 -135q98 -98 98 -284h-301q-2 81 -49 114q-55 37 -201 37q-176 0 -229 -84t-53 -346t53 -346t229 -84q170 0 232 65
q49 54 49 189v80h-326v245h598v-831z" />
    <glyph glyph-name="H" unicode="H" horiz-adv-x="1366" 
d="M1223 0h-299v565h-482v-565h-299v1366h299v-532h482v532h299v-1366z" />
    <glyph glyph-name="I" unicode="I" horiz-adv-x="586" 
d="M442 0h-299v1366h299v-1366z" />
    <glyph glyph-name="J" unicode="J" horiz-adv-x="1126" 
d="M903 102q-119 -118 -385 -118q-235 0 -350 94q-125 100 -123 325h285q0 -88 41 -121.5t147 -33.5q123 0 160 57q24 37 24 150v911h299v-952q0 -213 -98 -312z" />
    <glyph glyph-name="K" unicode="K" horiz-adv-x="1346" 
d="M1341 0h-415l-484 496v-496h-299v1366h299v-524l506 524h387l-678 -682z" />
    <glyph glyph-name="L" unicode="L" horiz-adv-x="1112" 
d="M1104 0h-961v1366h299v-1100h662v-266z" />
    <glyph glyph-name="M" unicode="M" horiz-adv-x="1700" 
d="M1556 0h-278v997l-285 -997h-295l-280 1018v-1018h-275v1366h418l291 -1016l289 1016h415v-1366z" />
    <glyph glyph-name="N" unicode="N" horiz-adv-x="1370" 
d="M1227 0h-303l-506 891v-891h-275v1366h299l510 -889v889h275v-1366z" />
    <glyph glyph-name="O" unicode="O" horiz-adv-x="1395" 
d="M1276 686q0 -373 -82 -508q-119 -194 -496 -194q-270 0 -405 96q-115 82 -152 252q-22 106 -22 352t22 350q35 170 150 250q135 96 405 96q271 0 406 -94q115 -80 151 -248q23 -106 23 -352zM977 682q0 268 -51.5 348t-229.5 80t-228 -80t-50 -348t50 -348t228 -80
t229.5 80t51.5 348z" />
    <glyph glyph-name="P" unicode="P" horiz-adv-x="1282" 
d="M1227 934q0 -277 -180 -373q-125 -67 -412 -67h-193v-494h-299v1366h492q289 0 409 -61q183 -95 183 -371zM928 930q0 129 -68 155q-41 17 -229 17h-189v-344h189q192 0 227 14q70 29 70 158z" />
    <glyph glyph-name="Q" unicode="Q" horiz-adv-x="1395" 
d="M1276 686q0 -295 -43 -422q-62 -180 -246 -241l90 -211l-219 -99l-117 271q-399 0 -524 168q-98 131 -98 532q0 246 22 350q35 170 150 250q135 96 405 96q271 0 406 -94q115 -80 151 -248q23 -106 23 -352zM977 682q0 264 -52.5 346t-228.5 82q-178 0 -228 -80t-50 -348
q0 -242 37 -328q41 -100 170 -100l-76 172l219 98l109 -250q67 27 86 127q14 70 14 281z" />
    <glyph glyph-name="R" unicode="R" horiz-adv-x="1358" 
d="M1227 0h-291v338q0 119 -32 150.5t-261 31.5h-201v-520h-299v1366h521q288 0 397 -53q166 -82 166 -340q0 -129 -27 -197q-31 -76 -106 -106q96 -29 123 -142q10 -47 10 -194v-334zM936 942q0 121 -82 148q-41 12 -250 12h-162v-320h176q203 0 246 17q72 24 72 143z" />
    <glyph glyph-name="S" unicode="S" horiz-adv-x="1339" 
d="M1235 426q0 -442 -565 -442q-285 0 -420 86q-156 100 -154 333h299q2 -149 267 -149q137 0 200 29q74 34 74 120q0 101 -74 125q-31 13 -207 23q-280 18 -379 67q-172 87 -172 338q0 240 144 338q129 86 409 86q283 0 418 -88q154 -100 154 -331h-295q0 155 -281 155
q-151 0 -207 -39q-43 -30 -43 -104q0 -90 74 -115q39 -14 193 -22q293 -15 389 -62q176 -84 176 -348z" />
    <glyph glyph-name="T" unicode="T" horiz-adv-x="1155" 
d="M1133 1100h-406v-1100h-299v1100h-405v266h1110v-266z" />
    <glyph glyph-name="U" unicode="U" horiz-adv-x="1343" 
d="M1210 686q0 -207 -4 -276q-24 -426 -534 -426t-535 426q-4 69 -4 276v680h299v-633q0 -315 21 -373q39 -108 219 -108t219 106q20 60 20 375v633h299v-680z" />
    <glyph glyph-name="V" unicode="V" horiz-adv-x="1303" 
d="M1296 1366l-497 -1366h-299l-494 1366h326l327 -973l332 973h305z" />
    <glyph glyph-name="W" unicode="W" horiz-adv-x="1847" 
d="M1790 1366l-309 -1366h-316l-243 1047l-248 -1047h-314l-303 1366h289l193 -956l227 956h317l238 -956l188 956h281z" />
    <glyph glyph-name="X" unicode="X" horiz-adv-x="1303" 
d="M1296 0h-344l-305 479l-301 -479h-340l459 694l-447 672h344l293 -457l291 457h340l-448 -672z" />
    <glyph glyph-name="Y" unicode="Y" horiz-adv-x="1337" 
d="M1331 1366l-514 -788v-578h-299v578l-512 788h340l328 -518l327 518h330z" />
    <glyph glyph-name="Z" unicode="Z" horiz-adv-x="1296" 
d="M1190 0h-1084v262l711 838h-711v266h1084v-266l-709 -834h709v-266z" />
    <glyph glyph-name="bracketleft" unicode="[" horiz-adv-x="758" 
d="M729 -391h-579v2042h579v-254h-297v-1534h297v-254z" />
    <glyph glyph-name="backslash" unicode="\" horiz-adv-x="1092" 
d="M43 1628l750 -1892h256l-750 1892h-256z" />
    <glyph glyph-name="bracketright" unicode="]" horiz-adv-x="758" 
d="M608 -391h-579v254h297v1534h-297v254h579v-2042z" />
    <glyph glyph-name="asciicircum" unicode="^" horiz-adv-x="1239" 
d="M1204 463l-256 -98l-330 663l-327 -663l-256 102l475 917h219z" />
    <glyph glyph-name="underscore" unicode="_" horiz-adv-x="1118" 
d="M1118 -391h-1118v254h1118v-254z" />
    <glyph glyph-name="grave" unicode="`" horiz-adv-x="909" 
d="M741 1106h-309l-262 260h309z" />
    <glyph glyph-name="a" unicode="a" horiz-adv-x="1112" 
d="M1014 0h-248v82q-113 -98 -299 -98q-391 0 -391 325q0 201 139 277q98 53 299 53h227v18q0 78 -24 107q-37 43 -154 43q-180 0 -180 -86h-279q0 303 461 303q211 0 304.5 -61.5t123.5 -163.5q21 -68 21 -209v-590zM741 428h-223q-162 0 -162 -113q0 -110 164 -110
q144 0 191 71q30 46 30 152z" />
    <glyph glyph-name="b" unicode="b" horiz-adv-x="1161" 
d="M1077 504q0 -234 -67 -348q-101 -172 -371 -172q-172 0 -281 98v-82h-245v1427h288v-469q93 66 275 66q239 0 330 -150q71 -114 71 -370zM788 508q0 154 -35.5 207t-140.5 53q-127 0 -171 -51t-44 -209q0 -160 44 -214t171 -54q105 0 140.5 56t35.5 212z" />
    <glyph glyph-name="c" unicode="c" horiz-adv-x="1092" 
d="M1006 315q0 -186 -154 -270q-113 -61 -287 -61q-291 0 -397 157q-76 113 -76 365q0 250 76 362q106 156 397 156q174 0 287 -61q154 -84 154 -271v-20h-269q0 51 -26 73q-37 31 -140 31q-125 0 -163 -61q-33 -51 -33 -211t33 -211q38 -62 163 -62q103 0 140 31
q26 23 26 74h269v-21z" />
    <glyph glyph-name="d" unicode="d" horiz-adv-x="1161" 
d="M1049 0h-246v82q-109 -98 -297 -98q-268 0 -363 172q-59 108 -59 348q0 254 74 370q94 150 334 150q176 0 268 -66v469h289v-1427zM764 504q0 158 -44 211t-171 53q-105 0 -140.5 -55.5t-35.5 -208.5q0 -154 35.5 -209t140.5 -55q127 0 171 53t44 211z" />
    <glyph glyph-name="e" unicode="e" horiz-adv-x="1128" 
d="M1036 408h-657q4 -113 39 -154q41 -47 162 -47q182 0 182 110h262q0 -333 -453 -333q-284 0 -395 145q-84 113 -84 358q0 258 82 377q109 160 391 160q307 0 406 -178q65 -119 65 -438zM754 618q0 99 -29 134q-41 49 -160 49q-110 0 -151 -51q-31 -39 -31 -132h371z" />
    <glyph glyph-name="f" unicode="f" horiz-adv-x="940" 
d="M934 1157h-252q0 57 -109 57q-88 0 -110 -45q-10 -20 -10 -110v-51h364v-240h-358v-768h-289v768h-158v240h158v77q0 172 94 261q107 98 322 98q147 0 237 -62q111 -73 111 -225z" />
    <glyph glyph-name="g" unicode="g" horiz-adv-x="1159" 
d="M1047 113q0 -156 -11 -213q-18 -107 -84 -172q-125 -125 -397 -125q-182 0 -295 59q-151 80 -151 256h270q0 -88 170 -88q164 0 205 68q22 34 22 172q-108 -70 -268 -70q-266 0 -361 164q-63 108 -63 340q0 252 80 370q102 150 356 150q172 0 281 -98v82h246v-895z
M762 508q0 154 -44 206t-171 52q-105 0 -140.5 -54.5t-35.5 -203.5q0 -148 35.5 -200t140.5 -52q127 0 171 50t44 202z" />
    <glyph glyph-name="h" unicode="h" horiz-adv-x="1128" 
d="M1030 0h-289v492q0 163 -16 204q-27 72 -133 72q-137 0 -174 -104q-17 -50 -17 -234v-430h-288v1427h288v-475q105 72 246 72q256 0 338 -156q45 -88 45 -315v-553z" />
    <glyph glyph-name="i" unicode="i" horiz-adv-x="512" 
d="M414 1249q0 -153 -158 -153t-158 153q0 154 158 154t158 -154zM401 0h-288v1008h288v-1008z" />
    <glyph glyph-name="j" unicode="j" horiz-adv-x="551" 
d="M453 1249q0 -153 -158 -153t-158 153q0 154 158 154t158 -154zM440 -41q0 -356 -409 -356q-172 0 -273 67q-114 76 -114 228h272q0 -68 111 -68q75 0 102 35q23 29 23 104v1039h288v-1049z" />
    <glyph glyph-name="k" unicode="k" horiz-adv-x="1133" 
d="M1126 0h-360l-363 434v-434h-290v1427h288v-792l367 373h342l-459 -459z" />
    <glyph glyph-name="l" unicode="l" horiz-adv-x="514" 
d="M401 0h-288v1427h288v-1427z" />
    <glyph glyph-name="m" unicode="m" horiz-adv-x="1640" 
d="M1542 0h-289v584q0 98 -12 123q-22 49 -111 49q-114 0 -143 -99q-12 -41 -12 -200v-457h-289v584q0 98 -12 123q-23 49 -111 49q-114 0 -143 -99q-12 -41 -12 -200v-457h-295v1008h254v-82q98 98 254 98q159 0 251 -104q115 104 291 104q355 0 377 -303q2 -29 2 -119
v-602z" />
    <glyph glyph-name="n" unicode="n" horiz-adv-x="1128" 
d="M1030 0h-289v492q0 163 -16 204q-27 72 -133 72q-137 0 -174 -104q-17 -50 -17 -234v-430h-288v1008h241v-82q111 98 289 98q258 0 340 -156q47 -90 47 -315v-553z" />
    <glyph glyph-name="o" unicode="o" horiz-adv-x="1155" 
d="M1071 508q0 -305 -113 -410q-122 -114 -380 -114q-259 0 -381 114q-113 105 -113 410q0 303 114.5 409.5t379.5 106.5q262 0 380 -111q113 -104 113 -405zM782 504q0 155 -38.5 211.5t-165.5 56.5t-166 -56.5t-39 -211.5q0 -156 37 -209q41 -59 168 -59t167 59
q37 53 37 209z" />
    <glyph glyph-name="p" unicode="p" horiz-adv-x="1161" 
d="M1077 504q0 -254 -73 -371q-95 -149 -334 -149q-176 0 -269 65v-440h-288v1399h245v-82q109 98 297 98q269 0 363 -172q59 -109 59 -348zM788 500q0 153 -35.5 209.5t-140.5 56.5q-127 0 -171 -53.5t-44 -212.5q0 -158 44 -209t171 -51q105 0 140.5 53t35.5 207z" />
    <glyph glyph-name="q" unicode="q" horiz-adv-x="1143" 
d="M1049 -391h-289v440q-92 -65 -275 -65q-239 0 -329 149q-72 115 -72 371q0 233 68 348q100 172 370 172q172 0 281 -98v82h246v-1399zM764 500q0 159 -44 212.5t-171 53.5q-105 0 -140.5 -56.5t-35.5 -209.5q0 -154 35.5 -207t140.5 -53q127 0 171 51t44 209z" />
    <glyph glyph-name="r" unicode="r" horiz-adv-x="956" 
d="M946 672h-268q0 96 -107 96q-114 0 -149 -96q-21 -54 -21 -195v-477h-288v1008h241v-82q113 98 260 98q183 0 263 -92q69 -84 69 -260z" />
    <glyph glyph-name="s" unicode="s" horiz-adv-x="1073" 
d="M995 291q0 -307 -458 -307q-459 0 -459 331h266q0 -108 176 -112q185 -4 185 104q0 53 -41 70q-25 10 -109 16q-248 19 -324 58q-133 67 -133 272q0 301 449 301q205 0 311 -61q137 -78 137 -271h-264q0 109 -168 113q-174 4 -174 -94q0 -52 39 -68q21 -10 96 -16
q260 -21 334 -58q137 -67 137 -278z" />
    <glyph glyph-name="t" unicode="t" horiz-adv-x="981" 
d="M958 313q0 -329 -393 -329q-387 0 -387 338v446h-160v240h160v358h289v-358h379v-240h-379v-412q0 -129 111 -129q108 0 108 86h272z" />
    <glyph glyph-name="u" unicode="u" horiz-adv-x="1128" 
d="M1016 0h-242v82q-110 -98 -289 -98q-258 0 -340 155q-47 90 -47 316v553h289v-492q0 -164 16 -205q27 -71 134 -71q137 0 174 104q16 49 16 234v430h289v-1008z" />
    <glyph glyph-name="v" unicode="v" horiz-adv-x="1083" 
d="M1077 1008l-387 -1008h-299l-385 1008h311l226 -631l227 631h307z" />
    <glyph glyph-name="w" unicode="w" horiz-adv-x="1505" 
d="M1499 1008l-278 -1008h-273l-186 657l-193 -657h-280l-279 1008h289l156 -629l170 629h262l176 -629l156 629h280z" />
    <glyph glyph-name="x" unicode="x" horiz-adv-x="1104" 
d="M1096 0h-336l-211 307l-213 -307h-328l365 514l-350 494h335l199 -289l199 289h325l-348 -494z" />
    <glyph glyph-name="y" unicode="y" horiz-adv-x="1083" 
d="M1077 1008l-536 -1399h-314l160 403l-381 996h311l226 -633l229 633h305z" />
    <glyph glyph-name="z" unicode="z" horiz-adv-x="1032" 
d="M954 0h-876v225l510 543h-510v240h876v-226l-505 -542h505v-240z" />
    <glyph glyph-name="braceleft" unicode="{" horiz-adv-x="827" 
d="M793 -391q-160 0 -232 14q-94 19 -160 80q-75 70 -102 166q-18 70 -18 192v258q0 72 -19 99q-2 4 -65 67q-86 84 -86 166q0 64 45 119q6 8 90 94q35 35 35 119v256q0 123 18 193q27 96 102 165q66 62 160 80q72 15 232 15v-254q-164 0 -197 -27t-33 -166v-321
q0 -93 -37 -146q-6 -10 -80 -84q-26 -26 -26 -43q0 -16 26 -43q74 -73 80 -84q37 -53 37 -145v-324q0 -139 33 -165.5t197 -26.5v-254z" />
    <glyph glyph-name="bar" unicode="|" horiz-adv-x="602" 
d="M442 -391h-282v1757h282v-1757z" />
    <glyph glyph-name="braceright" unicode="}" horiz-adv-x="827" 
d="M717 651q0 -63 -45 -119q-6 -8 -90 -94q-35 -35 -35 -119v-258q0 -122 -19 -192q-26 -96 -102 -166q-66 -61 -160 -80q-71 -14 -231 -14v254q164 0 196.5 26.5t32.5 165.5v324q0 92 37 145q6 11 80 84q27 27 27 43q0 17 -27 43q-74 74 -80 84q-37 53 -37 146v321
q0 139 -32.5 166t-196.5 27v254q160 0 231 -15q94 -18 160 -80q76 -69 102 -165q19 -70 19 -193v-256q0 -72 18 -98q2 -4 66 -68q86 -84 86 -166z" />
    <glyph glyph-name="asciitilde" unicode="~" horiz-adv-x="1235" 
d="M1176 530q-115 -106 -185 -151q-102 -66 -198 -66q-82 0 -196 65.5t-155 65.5q-55 0 -215 -133l-168 166q117 109 185 152q102 65 198 65q82 0 192.5 -65.5t158.5 -65.5q55 0 215 133z" />
    <glyph glyph-name="nonbreakingspace" unicode="&#xa0;" horiz-adv-x="623" 
 />
    <glyph glyph-name="exclamdown" unicode="&#xa1;" horiz-adv-x="627" 
d="M174 584h283v-951h-283v951zM139 842q0 80 46 127t128 47t128 -47t46 -127q0 -170 -174 -170t-174 170z" />
    <glyph glyph-name="cent" unicode="&#xa2;" horiz-adv-x="1151" 
d="M1065 315q0 -276 -350 -323v-203h-252v203q-234 28 -322 180q-63 111 -63 334t63 332q86 149 320 178v178h254v-178q350 -47 350 -324v-20h-274q0 102 -193 102q-145 0 -192 -59q-39 -53 -39 -211t39 -211q47 -60 192 -60q193 0 193 103h274v-21z" />
    <glyph glyph-name="sterling" unicode="&#xa3;" horiz-adv-x="1231" 
d="M1178 0h-1102v254h155v328h-155v249h155v91q0 131 11 184q20 94 92 160q125 114 364 114q187 0 289 -49q174 -84 174 -313h-276q0 115 -168 115q-137 0 -178 -60q-25 -37 -25 -147v-95h561v-249h-561v-328h664v-254z" />
    <glyph glyph-name="currency" unicode="&#xa4;" horiz-adv-x="1249" 
d="M1145 348q-4 -364 -438 -364q-246 0 -359 120q-96 107 -108 330h-152v201h154v110h-154v201h152q12 215 112 320q113 114 355 114q432 0 438 -362h-258q0 74 -53 102q-37 19 -119 19q-99 0 -143 -44t-44 -149h295v-201h-301v-110h301v-201h-295q0 -115 44 -161t143 -46
q172 0 172 121h258z" />
    <glyph glyph-name="yen" unicode="&#xa5;" horiz-adv-x="1296" 
d="M1266 1366l-287 -463h139v-201h-270l-62 -110h332v-201h-332v-391h-282v391h-332v201h334l-64 110h-270v201h143l-284 463h315l301 -508l309 508h310z" />
    <glyph glyph-name="brokenbar" unicode="&#xa6;" horiz-adv-x="610" 
d="M446 668h-282v698h282v-698zM446 -391h-282v696h282v-696z" />
    <glyph glyph-name="section" unicode="&#xa7;" horiz-adv-x="1214" 
d="M1077 100q0 -321 -469 -321q-225 0 -340 71q-139 87 -139 291h283q0 -63 40 -89.5t158 -26.5q176 0 176 112q0 64 -59 82q-33 10 -129 12q-248 5 -352.5 88.5t-104.5 260.5q0 182 123 233q-117 57 -117 246q0 321 465 321q226 0 338 -71q137 -86 137 -291h-282
q0 63 -35 88q-41 29 -160 29q-82 0 -118 -19q-54 -24 -54 -94q0 -64 60 -82q32 -10 129 -12q247 -4 351.5 -88t104.5 -260q0 -181 -127 -234q121 -59 121 -246zM799 584q0 75 -64 96q-28 8 -125 8q-90 0 -125 -14q-61 -23 -61 -99q0 -73 63 -94q31 -10 125 -10q90 0 125 14
q62 23 62 99z" />
    <glyph glyph-name="dieresis" unicode="&#xa8;" horiz-adv-x="893" 
d="M817 1237q0 -139 -143 -139q-139 0 -139 139q0 135 139 135q143 0 143 -135zM356 1237q0 -139 -141 -139t-141 139q0 135 141 135t141 -135z" />
    <glyph glyph-name="copyright" unicode="&#xa9;" horiz-adv-x="1634" 
d="M1509 684q0 -401 -146 -550.5t-548 -149.5q-405 0 -551 153q-139 148 -139 551q0 406 141.5 549t548.5 143q406 0 550 -145t144 -551zM1323 690q0 318 -96.5 418t-411.5 100q-319 0 -412.5 -101t-93.5 -425q0 -317 92 -418q99 -108 414 -108q313 0 414 112q94 103 94 422
zM1194 539q-2 -164 -104 -232q-89 -57 -271 -57q-233 0 -321 104q-80 95 -80 330q0 231 80 328q90 104 321 104q182 0 271 -57q102 -68 104 -230h-178q-2 78 -49 103q-39 20 -148 20q-143 0 -184 -59q-35 -49 -35 -209q0 -162 33 -209q43 -61 186 -61q109 0 148 20
q47 25 49 105h178z" />
    <glyph glyph-name="ordfeminine" unicode="&#xaa;" horiz-adv-x="791" 
d="M717 688h-144v62q-79 -72 -213 -72q-294 0 -294 221q0 139 98 191q67 36 207 36h178q0 68 -41 93q-31 16 -109 16q-141 0 -141 -61h-168q0 206 322 206q305 0 305 -245v-447zM551 977h-184q-66 0 -91 -8q-43 -17 -43 -70q0 -49 43 -65q25 -9 86 -9q105 0 146 33t43 119z
" />
    <glyph glyph-name="guillemotleft" unicode="&#xab;" horiz-adv-x="1055" 
d="M541 223l-181 -180l-94 94q-108 109 -151 170q-66 99 -66 197t70 196q39 56 160 177l79 79l181 -180l-80 -80q-76 -75 -88 -92q-41 -51 -41 -102q0 -53 39 -105q14 -16 92 -94zM1006 223l-181 -180l-94 94q-108 109 -151 170q-66 99 -66 197t70 196q39 56 159 177l80 79
l181 -180l-80 -80q-76 -75 -88 -92q-41 -51 -41 -102q0 -53 39 -105q14 -16 92 -94z" />
    <glyph glyph-name="logicalnot" unicode="&#xac;" horiz-adv-x="1233" 
d="M1165 0h-262v569h-835v256h1097v-825z" />
    <glyph glyph-name="minus" unicode="&#xad;" horiz-adv-x="1233" 
d="M1165 375h-1097v264h1097v-264z" />
    <glyph glyph-name="minus" unicode="&#x2212;" horiz-adv-x="1233" 
d="M1165 375h-1097v264h1097v-264z" />
    <glyph glyph-name="registered" unicode="&#xae;" horiz-adv-x="1061" 
d="M995 918q0 -273 -98 -369t-367 -96q-270 0 -370 98q-94 92 -94 369q0 276 94 368t370 92q277 0 371 -94t94 -368zM877 922q0 219 -67 281.5t-280 62.5q-215 0 -280.5 -61.5t-65.5 -289.5q0 -217 65.5 -282.5t280.5 -65.5q213 0 280 66.5t67 288.5zM741 651h-110v162
q0 45 -29 55q-12 4 -76 4h-71v-221h-115v543h192q105 0 146 -20q63 -31 63 -121q0 -88 -57 -121q57 -25 57 -133v-148zM627 1034q0 47 -27 56q-10 4 -78 4h-71v-119h77q64 0 74 4q25 10 25 55z" />
    <glyph glyph-name="macron" unicode="&#xaf;" horiz-adv-x="901" 
d="M813 1137h-727v192h727v-192z" />
    <glyph glyph-name="macron" unicode="&#x2c9;" horiz-adv-x="901" 
d="M813 1137h-727v192h727v-192z" />
    <glyph glyph-name="degree" unicode="&#xb0;" horiz-adv-x="1047" 
d="M829 1073q0 -164 -73.5 -239.5t-231.5 -75.5q-159 0 -233 75.5t-74 239.5t72.5 235.5t232.5 71.5q162 0 234.5 -71.5t72.5 -235.5zM666 1069q0 88 -29 120t-115 32q-84 0 -112.5 -32t-28.5 -120t28.5 -119.5t112.5 -31.5q86 0 115 31.5t29 119.5z" />
    <glyph glyph-name="plusminus" unicode="&#xb1;" horiz-adv-x="1233" 
d="M1165 684h-417v-326h-263v326h-417v254h417v322h263v-322h417v-254zM1165 0h-1097v254h1097v-254z" />
    <glyph glyph-name="twosuperior" unicode="&#xb2;" horiz-adv-x="758" 
d="M682 1124q0 -139 -94 -202q-43 -29 -123 -54q-68 -18 -133 -37q-47 -14 -60.5 -30.5t-13.5 -65.5v-33h422v-157h-600v211q0 127 100 190q51 31 195 66q112 28 125 65q6 17 6 47q0 64 -25.5 82.5t-99.5 18.5q-68 0 -88 -8q-39 -17 -39 -74h-176q0 237 301 237
q303 0 303 -256z" />
    <glyph glyph-name="threesuperior" unicode="&#xb3;" horiz-adv-x="758" 
d="M688 795q0 -127 -72.5 -193.5t-240.5 -66.5q-303 0 -303 243h174q0 -51 26.5 -69.5t102.5 -18.5q123 0 133 53q4 17 4 48q0 92 -57 104q-25 4 -76 4h-117v148h117q92 0 110 24q15 16 15 62q0 51 -19 69q-24 23 -106 23q-70 0 -92 -11q-37 -18 -37 -75h-172q0 241 301 241
q297 0 301 -237q2 -117 -55 -166q63 -49 63 -182z" />
    <glyph glyph-name="acute" unicode="&#xb4;" horiz-adv-x="909" 
d="M739 1366l-262 -260h-309l262 260h309z" />
    <glyph glyph-name="mu" unicode="&#xb5;" horiz-adv-x="1143" 
d="M1030 0h-242v82q-98 -98 -266 -98q-73 0 -129 20v-397h-280v1401h288v-492q0 -164 17 -205q26 -71 133 -71q137 0 174 104q16 49 16 234v430h289v-1008z" />
    <glyph glyph-name="mu" unicode="&#x3bc;" horiz-adv-x="1143" 
d="M1030 0h-242v82q-98 -98 -266 -98q-73 0 -129 20v-397h-280v1401h288v-492q0 -164 17 -205q26 -71 133 -71q137 0 174 104q16 49 16 234v430h289v-1008z" />
    <glyph glyph-name="paragraph" unicode="&#xb6;" horiz-adv-x="1288" 
d="M1159 0h-252v1112h-143v-1112h-252v549q-244 0 -356 78q-138 94 -138 327q0 412 461 412h680v-1366z" />
    <glyph glyph-name="periodcentred" unicode="&#xb7;" horiz-adv-x="553" 
d="M451 692q0 -80 -46.5 -127t-128.5 -47q-81 0 -127.5 47t-46.5 127q0 170 174 170q175 0 175 -170z" />
    <glyph glyph-name="periodcentred" unicode="&#x22c5;" horiz-adv-x="553" 
d="M451 692q0 -80 -46.5 -127t-128.5 -47q-81 0 -127.5 47t-46.5 127q0 170 174 170q175 0 175 -170z" />
    <glyph glyph-name="periodcentred" unicode="&#x2219;" horiz-adv-x="553" 
d="M451 692q0 -80 -46.5 -127t-128.5 -47q-81 0 -127.5 47t-46.5 127q0 170 174 170q175 0 175 -170z" />
    <glyph glyph-name="cedilla" unicode="&#xb8;" horiz-adv-x="901" 
d="M651 -215q0 -178 -202 -178q-201 0 -201 168h139q0 -51 62 -51q55 0 55 63q0 53 -86 53h-47v160h133v-59q147 0 147 -156z" />
    <glyph glyph-name="onesuperior" unicode="&#xb9;" horiz-adv-x="758" 
d="M645 539h-530v157h180v428l-86 -80l-115 115l234 207h145v-670h172v-157z" />
    <glyph glyph-name="ordmasculine" unicode="&#xba;" horiz-adv-x="791" 
d="M729 1030q0 -196 -79 -273t-255 -77q-178 0 -256 75.5t-78 274.5t78 274.5t256 75.5q228 0 297 -133q37 -69 37 -217zM559 1030q0 119 -22 152q-31 45 -142 45q-110 0 -141 -45q-23 -33 -23 -152t23 -151q31 -45 141 -45q111 0 142 45q22 32 22 151z" />
    <glyph glyph-name="guillemotright" unicode="&#xbb;" horiz-adv-x="1055" 
d="M514 223l180 -180l94 94q109 109 152 170q66 99 66 197t-70 196q-39 56 -160 177l-80 79l-180 -180l80 -80q76 -75 88 -92q41 -51 41 -102q0 -53 -39 -105q-14 -16 -92 -94zM49 223l180 -180l95 94q108 109 151 170q66 99 66 197t-70 196q-39 56 -160 177l-80 79
l-180 -180l80 -80q76 -75 88 -92q41 -51 41 -102q0 -53 -39 -105q-14 -16 -92 -94z" />
    <glyph glyph-name="onequarter" unicode="&#xbc;" horiz-adv-x="1767" 
d="M1712 205h-123v-205h-170v205h-389v141l395 504h164v-496h123v-149zM1368 1366l-784 -1366h-199l782 1366h201zM1419 354v246l-186 -246h186zM645 539h-530v157h180v428l-86 -80l-115 115l234 207h145v-670h172v-157z" />
    <glyph glyph-name="onehalf" unicode="&#xbd;" horiz-adv-x="1755" 
d="M1677 580q0 -140 -94 -203q-43 -29 -123 -53q-67 -19 -133 -37q-47 -15 -60.5 -31t-13.5 -66v-32h422v-158h-600v211q0 127 101 190q51 31 194 66q113 29 125 65q6 17 6 48q0 63 -25.5 81.5t-99.5 18.5q-67 0 -88 -8q-39 -17 -39 -74h-176q0 238 301 238q303 0 303 -256z
M1368 1366l-784 -1366h-199l782 1366h201zM645 539h-530v157h180v428l-86 -80l-115 115l234 207h145v-670h172v-157z" />
    <glyph glyph-name="threequarters" unicode="&#xbe;" horiz-adv-x="1767" 
d="M1368 1366l-784 -1366h-199l782 1366h201zM1712 205h-123v-205h-170v205h-389v141l395 504h164v-496h123v-149zM1419 354v246l-186 -246h186zM688 795q0 -127 -72.5 -193.5t-240.5 -66.5q-303 0 -303 243h174q0 -51 26.5 -69.5t102.5 -18.5q123 0 133 53q4 17 4 48
q0 92 -57 104q-25 4 -76 4h-117v148h117q92 0 110 24q15 16 15 62q0 51 -19 69q-24 23 -106 23q-70 0 -92 -11q-37 -18 -37 -75h-172q0 241 301 241q297 0 301 -237q2 -117 -55 -166q63 -49 63 -182z" />
    <glyph glyph-name="questiondown" unicode="&#xbf;" horiz-adv-x="987" 
d="M43 -29q0 242 184 346q113 64 131 82q33 35 33 123v62h283v-113q0 -133 -37 -203q-43 -80 -164 -135q-92 -41 -106 -53q-43 -35 -43 -109q0 -92 30 -123q35 -38 142 -38q102 0 140 36.5t38 135.5h276q0 -236 -129 -338q-106 -84 -321 -84q-226 0 -334 88
q-123 98 -123 323zM356 842q0 80 46.5 127t127.5 47q82 0 128.5 -47t46.5 -127q0 -170 -175 -170q-174 0 -174 170z" />
    <glyph glyph-name="Agrave" unicode="&#xc0;" horiz-adv-x="1333" 
d="M1346 0h-318l-110 311h-484l-110 -311h-316l520 1366h301zM825 571l-149 426l-150 -426h299zM934 1505h-309l-262 260h309z" />
    <glyph glyph-name="Aacute" unicode="&#xc1;" horiz-adv-x="1333" 
d="M1346 0h-318l-110 311h-484l-110 -311h-316l520 1366h301zM825 571l-149 426l-150 -426h299zM989 1765l-262 -260h-309l262 260h309z" />
    <glyph glyph-name="Acircumflex" unicode="&#xc2;" horiz-adv-x="1333" 
d="M1346 0h-318l-110 311h-484l-110 -311h-316l520 1366h301zM825 571l-149 426l-150 -426h299zM1067 1505h-275l-116 117l-117 -117h-281l265 262h262z" />
    <glyph glyph-name="Atilde" unicode="&#xc3;" horiz-adv-x="1333" 
d="M1346 0h-318l-110 311h-484l-110 -311h-316l520 1366h301zM825 571l-149 426l-150 -426h299zM1096 1605l-170 -71q-72 -31 -142 -31q-75 0 -137 35q-74 41 -100 41q-35 0 -82 -21l-139 -59l-89 162q142 63 152 67q88 35 158 35q73 0 143 -38t100 -38q37 0 95 25l129 55z
" />
    <glyph glyph-name="Adieresis" unicode="&#xc4;" horiz-adv-x="1346" 
d="M1346 0h-318l-110 311h-484l-110 -311h-316l520 1366h301zM825 571l-149 426l-150 -426h299zM1038 1636q0 -139 -143 -139q-139 0 -139 139q0 135 139 135q143 0 143 -135zM577 1636q0 -139 -141 -139t-141 139q0 135 141 135t141 -135z" />
    <glyph glyph-name="Aring" unicode="&#xc5;" horiz-adv-x="1354" 
d="M1346 0h-318l-113 311h-483l-108 -311h-316l498 1311q-76 51 -76 202q0 125 59 177q54 45 189 45t188 -45q60 -52 60 -177q0 -149 -74 -202zM774 1499q0 60 -18.5 82.5t-77.5 22.5q-62 0 -78 -22.5t-16 -82.5q0 -61 18.5 -78.5t77.5 -17.5q68 0 84 31q10 18 10 65z
M823 571l-147 426l-150 -426h297z" />
    <glyph glyph-name="AE" unicode="&#xc6;" horiz-adv-x="1980" 
d="M1870 0h-887v270h-477l-166 -270h-332l875 1366h987v-266h-588v-269h567v-266h-567v-299h588v-266zM983 537v501l-315 -501h315z" />
    <glyph glyph-name="Ccedilla" unicode="&#xc7;" horiz-adv-x="1358" 
d="M772 -74q148 0 148 -155q0 -179 -203 -179q-201 0 -201 168h139q0 -51 62 -51q55 0 55 64q0 53 -86 53h-47v160q-344 14 -451 213q-69 129 -69 485q0 246 22 350q35 170 150 250q135 96 405 96q322 0 457 -135q98 -98 98 -284h-301q-2 81 -49 114q-55 37 -201 37
q-176 0 -229 -84t-53 -346t53 -346t229 -84q146 0 201 37q47 33 49 114h301q0 -182 -102 -284q-123 -123 -377 -133v-60z" />
    <glyph glyph-name="Egrave" unicode="&#xc8;" horiz-adv-x="1219" 
d="M1116 0h-973v1366h973v-266h-674v-269h654v-266h-654v-299h674v-266zM864 1505h-309l-262 260h309z" />
    <glyph glyph-name="Eacute" unicode="&#xc9;" horiz-adv-x="1227" 
d="M1116 0h-973v1366h973v-266h-674v-269h654v-266h-654v-299h674v-266zM923 1765l-262 -260h-309l262 260h309z" />
    <glyph glyph-name="Ecircumflex" unicode="&#xca;" horiz-adv-x="1219" 
d="M1116 0h-973v1366h973v-266h-674v-269h654v-266h-654v-299h674v-266zM1016 1505h-275l-116 117l-117 -117h-281l265 262h262z" />
    <glyph glyph-name="Edieresis" unicode="&#xcb;" horiz-adv-x="1219" 
d="M1116 0h-973v1366h973v-266h-674v-269h654v-266h-654v-299h674v-266zM991 1636q0 -139 -143 -139q-139 0 -139 139q0 135 139 135q143 0 143 -135zM530 1636q0 -139 -141 -139t-141 139q0 135 141 135t141 -135z" />
    <glyph glyph-name="Igrave" unicode="&#xcc;" horiz-adv-x="586" 
d="M442 0h-299v1366h299v-1366zM580 1505h-310l-262 260h309z" />
    <glyph glyph-name="Iacute" unicode="&#xcd;" horiz-adv-x="586" 
d="M442 0h-299v1366h299v-1366zM578 1765l-263 -260h-309l262 260h310z" />
    <glyph glyph-name="Icircumflex" unicode="&#xce;" horiz-adv-x="586" 
d="M442 0h-299v1366h299v-1366zM686 1505h-274l-117 117l-117 -117h-280l264 262h262z" />
    <glyph glyph-name="Idieresis" unicode="&#xcf;" horiz-adv-x="586" 
d="M442 0h-299v1366h299v-1366zM664 1636q0 -139 -144 -139q-139 0 -139 139q0 136 139 136q144 0 144 -136zM203 1636q0 -139 -142 -139q-141 0 -141 139q0 136 141 136q142 0 142 -136z" />
    <glyph glyph-name="Eth" unicode="&#xd0;" horiz-adv-x="1421" 
d="M1303 682q0 -180 -9 -256q-18 -152 -80 -242q-71 -104 -190 -147q-111 -37 -309 -37h-541v559h-141v258h141v549h539q198 0 309 -39q119 -41 190 -147q62 -93 80 -242q11 -78 11 -256zM1004 682q0 285 -66 360q-51 58 -244 58h-243v-283h325v-258h-325v-293h243
q193 0 244 58q66 73 66 358z" />
    <glyph glyph-name="Ntilde" unicode="&#xd1;" horiz-adv-x="1370" 
d="M1227 0h-303l-506 891v-891h-275v1366h299l510 -889v889h275v-1366zM1104 1605l-170 -71q-72 -31 -142 -31q-75 0 -137 35q-74 41 -100 41q-35 0 -82 -21l-139 -59l-89 162q142 63 152 67q88 35 158 35q73 0 143 -38t100 -38q37 0 95 25l129 55z" />
    <glyph glyph-name="Ograve" unicode="&#xd2;" horiz-adv-x="1386" 
d="M1276 686q0 -373 -82 -508q-119 -194 -496 -194q-270 0 -405 96q-115 82 -152 252q-22 106 -22 352t22 350q35 170 150 250q135 96 405 96q271 0 406 -94q115 -80 151 -248q23 -106 23 -352zM977 682q0 268 -51.5 348t-229.5 80t-228 -80t-50 -348t50 -348t228 -80
t229.5 80t51.5 348zM989 1505h-309l-262 260h309z" />
    <glyph glyph-name="Oacute" unicode="&#xd3;" horiz-adv-x="1386" 
d="M1276 686q0 -373 -82 -508q-119 -194 -496 -194q-270 0 -405 96q-115 82 -152 252q-22 106 -22 352t22 350q35 170 150 250q135 96 405 96q271 0 406 -94q115 -80 151 -248q23 -106 23 -352zM977 682q0 268 -51.5 348t-229.5 80t-228 -80t-50 -348t50 -348t228 -80
t229.5 80t51.5 348zM1026 1765l-262 -260h-309l262 260h309z" />
    <glyph glyph-name="Ocircumflex" unicode="&#xd4;" horiz-adv-x="1386" 
d="M1276 686q0 -373 -82 -508q-119 -194 -496 -194q-270 0 -405 96q-115 82 -152 252q-22 106 -22 352t22 350q35 170 150 250q135 96 405 96q271 0 406 -94q115 -80 151 -248q23 -106 23 -352zM977 682q0 268 -51.5 348t-229.5 80t-228 -80t-50 -348t50 -348t228 -80
t229.5 80t51.5 348zM1090 1505h-275l-116 117l-117 -117h-281l265 262h262z" />
    <glyph glyph-name="Otilde" unicode="&#xd5;" horiz-adv-x="1386" 
d="M1276 686q0 -373 -82 -508q-119 -194 -496 -194q-270 0 -405 96q-115 82 -152 252q-22 106 -22 352t22 350q35 170 150 250q135 96 405 96q271 0 406 -94q115 -80 151 -248q23 -106 23 -352zM977 682q0 268 -51.5 348t-229.5 80t-228 -80t-50 -348t50 -348t228 -80
t229.5 80t51.5 348zM1119 1605l-170 -71q-72 -31 -142 -31q-75 0 -137 35q-74 41 -100 41q-35 0 -82 -21l-139 -59l-89 162q142 63 152 67q88 35 158 35q73 0 143 -38t100 -38q37 0 95 25l129 55z" />
    <glyph glyph-name="Odieresis" unicode="&#xd6;" horiz-adv-x="1395" 
d="M1276 686q0 -373 -82 -508q-119 -194 -496 -194q-270 0 -405 96q-115 82 -152 252q-22 106 -22 352t22 350q35 170 150 250q135 96 405 96q271 0 406 -94q115 -80 151 -248q23 -106 23 -352zM977 682q0 268 -51.5 348t-229.5 80t-228 -80t-50 -348t50 -348t228 -80
t229.5 80t51.5 348zM1077 1636q0 -139 -143 -139q-139 0 -139 139q0 135 139 135q143 0 143 -135zM616 1636q0 -139 -141 -139t-141 139q0 135 141 135t141 -135z" />
    <glyph glyph-name="multiply" unicode="&#xd7;" horiz-adv-x="1219" 
d="M1096 209l-178 -178l-308 307l-309 -307l-178 178l309 309l-309 309l178 179l309 -310l308 310l178 -179l-308 -309z" />
    <glyph glyph-name="Oslash" unicode="&#xd8;" horiz-adv-x="1395" 
d="M1276 670q0 110 -4 216.5t-29.5 195.5t-85 155t-168.5 102l68 258l-240 56l-72 -275q-6 2 -40 2q-160 0 -270.5 -29.5t-180.5 -99.5q-47 -47 -74.5 -109.5t-41 -140t-16.5 -154.5t-3 -163q-4 -262 24.5 -375.5t93 -180.5t171.5 -103l-68 -256l238 -58l69 275q15 -2 43 -2
q68 0 135.5 6t121.5 19.5t105.5 38t90.5 63.5q47 47 73.5 108.5t40 133t16.5 151.5t3 166zM981 680q0 -131 -11.5 -210t-36 -125t-71.5 -69.5t-125 -23.5l-28 2l202 803q15 -13 28 -37.5t21.5 -59t14.5 -101t6 -179.5zM688 1112l-203 -799q-20 17 -34.5 43.5t-25.5 90
t-11 231.5q0 147 11 224t39 124t78 66.5t130 19.5h16z" />
    <glyph glyph-name="Ugrave" unicode="&#xd9;" horiz-adv-x="1335" 
d="M1210 686q0 -207 -4 -276q-24 -426 -534 -426t-535 426q-4 69 -4 276v680h299v-633q0 -315 21 -373q39 -108 219 -108t219 106q20 60 20 375v633h299v-680zM936 1505h-309l-262 260h309z" />
    <glyph glyph-name="Uacute" unicode="&#xda;" horiz-adv-x="1335" 
d="M1210 686q0 -207 -4 -276q-24 -426 -534 -426t-535 426q-4 69 -4 276v680h299v-633q0 -315 21 -373q39 -108 219 -108t219 106q20 60 20 375v633h299v-680zM999 1765l-262 -260h-309l262 260h309z" />
    <glyph glyph-name="Ucircumflex" unicode="&#xdb;" horiz-adv-x="1335" 
d="M1210 686q0 -207 -4 -276q-24 -426 -534 -426t-535 426q-4 69 -4 276v680h299v-633q0 -315 21 -373q39 -108 219 -108t219 106q20 60 20 375v633h299v-680zM1075 1505h-275l-116 117l-117 -117h-281l265 262h262z" />
    <glyph glyph-name="Udieresis" unicode="&#xdc;" horiz-adv-x="1343" 
d="M1210 686q0 -207 -4 -276q-24 -426 -534 -426t-535 426q-4 69 -4 276v680h299v-633q0 -315 21 -373q39 -108 219 -108t219 106q20 60 20 375v633h299v-680zM1046 1636q0 -139 -143 -139q-139 0 -139 139q0 135 139 135q143 0 143 -135zM585 1636q0 -139 -141 -139
t-141 139q0 135 141 135t141 -135z" />
    <glyph glyph-name="Yacute" unicode="&#xdd;" horiz-adv-x="1346" 
d="M1331 1366l-514 -788v-578h-299v578l-512 788h340l328 -518l327 518h330zM944 1765l-262 -260h-309l262 260h309z" />
    <glyph glyph-name="Thorn" unicode="&#xde;" horiz-adv-x="1282" 
d="M1227 696q0 -276 -180 -368q-121 -62 -412 -62h-193v-266h-299v1366h299v-248h193q293 0 409 -57q183 -88 183 -365zM928 692q0 119 -68 146q-41 16 -229 16h-189v-324h189q192 0 227 15q70 28 70 147z" />
    <glyph glyph-name="germandbls" unicode="&#xdf;" horiz-adv-x="1169" 
d="M1071 412q0 -250 -158 -346q-108 -66 -333 -66h-82v252h86q110 0 157 36t47 136q0 125 -38.5 157.5t-182.5 32.5h-69v248h69q115 0 156 27q55 35 55 141q0 88 -30 119q-39 39 -164 39q-129 0 -166 -58q-23 -38 -23 -163v-967h-282v961q0 141 10 194q18 102 90 170
q125 119 371 119q235 0 350 -90q123 -97 123 -307q0 -244 -142 -304q156 -61 156 -331z" />
    <glyph glyph-name="agrave" unicode="&#xe0;" horiz-adv-x="1112" 
d="M1014 0h-248v82q-113 -98 -299 -98q-391 0 -391 325q0 201 139 277q98 53 299 53h227v18q0 78 -24 107q-37 43 -154 43q-180 0 -180 -86h-279q0 303 461 303q211 0 304.5 -61.5t123.5 -163.5q21 -68 21 -209v-590zM741 428h-223q-162 0 -162 -113q0 -110 164 -110
q144 0 191 71q30 46 30 152zM831 1106h-309l-262 260h309z" />
    <glyph glyph-name="aacute" unicode="&#xe1;" horiz-adv-x="1112" 
d="M1014 0h-248v82q-113 -98 -299 -98q-391 0 -391 325q0 201 139 277q98 53 299 53h227v18q0 78 -24 107q-37 43 -154 43q-180 0 -180 -86h-279q0 303 461 303q211 0 304.5 -61.5t123.5 -163.5q21 -68 21 -209v-590zM741 428h-223q-162 0 -162 -113q0 -110 164 -110
q144 0 191 71q30 46 30 152zM903 1366l-262 -260h-309l262 260h309z" />
    <glyph glyph-name="acircumflex" unicode="&#xe2;" horiz-adv-x="1112" 
d="M1014 0h-248v82q-113 -98 -299 -98q-391 0 -391 325q0 201 139 277q98 53 299 53h227v18q0 78 -24 107q-37 43 -154 43q-180 0 -180 -86h-279q0 303 461 303q211 0 304.5 -61.5t123.5 -163.5q21 -68 21 -209v-590zM741 428h-223q-162 0 -162 -113q0 -110 164 -110
q144 0 191 71q30 46 30 152zM965 1104h-275l-116 117l-117 -117h-281l265 262h262z" />
    <glyph glyph-name="atilde" unicode="&#xe3;" horiz-adv-x="1112" 
d="M1014 0h-248v82q-113 -98 -299 -98q-391 0 -391 325q0 201 139 277q98 53 299 53h227v18q0 78 -24 107q-37 43 -154 43q-180 0 -180 -86h-279q0 303 461 303q211 0 304.5 -61.5t123.5 -163.5q21 -68 21 -209v-590zM741 428h-223q-162 0 -162 -113q0 -110 164 -110
q144 0 191 71q30 46 30 152zM996 1210l-170 -71q-72 -31 -142 -31q-75 0 -137 35q-74 41 -100 41q-35 0 -82 -21l-139 -59l-89 162q142 63 152 67q88 35 158 35q73 0 143 -38t100 -38q37 0 95 25l129 55z" />
    <glyph glyph-name="adieresis" unicode="&#xe4;" horiz-adv-x="1112" 
d="M1014 0h-248v82q-113 -98 -299 -98q-391 0 -391 325q0 201 139 277q98 53 299 53h227v18q0 78 -24 107q-37 43 -154 43q-180 0 -180 -86h-279q0 303 461 303q211 0 304.5 -61.5t123.5 -163.5q21 -68 21 -209v-590zM741 428h-223q-162 0 -162 -113q0 -110 164 -110
q144 0 191 71q30 46 30 152zM938 1237q0 -139 -143 -139q-139 0 -139 139q0 135 139 135q143 0 143 -135zM477 1237q0 -139 -141 -139t-141 139q0 135 141 135t141 -135z" />
    <glyph glyph-name="aring" unicode="&#xe5;" horiz-adv-x="1112" 
d="M1014 0h-248v82q-113 -98 -299 -98q-391 0 -391 325q0 201 139 277q98 53 299 53h227q0 84 -22 113q-35 47 -156 47q-180 0 -180 -86h-279q0 219 244 280q-35 43 -35 156q0 123 57.5 172t192.5 49t192.5 -49t57.5 -172q0 -117 -35 -156q135 -39 191 -141q45 -84 45 -229
v-623zM659 1124q0 60 -18 82.5t-78 22.5q-61 0 -77.5 -22.5t-16.5 -82.5q0 -61 18.5 -78.5t77.5 -17.5q68 0 84 31q10 18 10 65zM741 428h-223q-162 0 -162 -113q0 -110 164 -110q144 0 191 71q30 46 30 152z" />
    <glyph glyph-name="ae" unicode="&#xe6;" horiz-adv-x="1776" 
d="M1683 408h-657q4 -113 39 -154q41 -47 162 -47q182 0 182 110h262q0 -190 -158 -274q-110 -59 -286 -59q-242 0 -346 116q-113 -116 -414 -116q-391 0 -391 325q0 201 139 277q98 53 299 53h227v18q0 78 -24 107q-37 43 -154 43q-180 0 -180 -86h-279q0 303 461 303
q236 0 344 -111q105 111 303 111q308 0 406 -178q65 -119 65 -438zM1401 618q0 99 -29 134q-41 49 -160 49q-110 0 -151 -51q-31 -39 -31 -132h371zM741 428h-223q-162 0 -162 -113q0 -110 164 -110q144 0 191 71q30 46 30 152z" />
    <glyph glyph-name="ccedilla" unicode="&#xe7;" horiz-adv-x="1085" 
d="M631 -74q147 0 147 -155q0 -179 -203 -179q-200 0 -200 168h139q0 -51 61 -51q56 0 56 64q0 53 -86 53h-47v160q-252 16 -346 170q-66 112 -66 350q0 250 76 362q106 156 397 156q174 0 287 -61q153 -84 153 -271v-20h-268q0 51 -26 73q-37 31 -140 31q-125 0 -164 -61
q-32 -51 -32 -211t32 -211q39 -62 164 -62q103 0 140 31q26 23 26 74h268v-21q0 -292 -368 -329v-60z" />
    <glyph glyph-name="egrave" unicode="&#xe8;" horiz-adv-x="1128" 
d="M1036 408h-657q4 -113 39 -154q41 -47 162 -47q182 0 182 110h262q0 -333 -453 -333q-284 0 -395 145q-84 113 -84 358q0 258 82 377q109 160 391 160q307 0 406 -178q65 -119 65 -438zM754 618q0 99 -29 134q-41 49 -160 49q-110 0 -151 -51q-31 -39 -31 -132h371z
M831 1106h-309l-262 260h309z" />
    <glyph glyph-name="eacute" unicode="&#xe9;" horiz-adv-x="1128" 
d="M1036 408h-657q4 -113 39 -154q41 -47 162 -47q182 0 182 110h262q0 -333 -453 -333q-284 0 -395 145q-84 113 -84 358q0 258 82 377q109 160 391 160q307 0 406 -178q65 -119 65 -438zM754 618q0 99 -29 134q-41 49 -160 49q-110 0 -151 -51q-31 -39 -31 -132h371z
M880 1366l-262 -260h-309l262 260h309z" />
    <glyph glyph-name="ecircumflex" unicode="&#xea;" horiz-adv-x="1128" 
d="M1036 408h-657q4 -113 39 -154q41 -47 162 -47q182 0 182 110h262q0 -333 -453 -333q-284 0 -395 145q-84 113 -84 358q0 258 82 377q109 160 391 160q307 0 406 -178q65 -119 65 -438zM754 618q0 99 -29 134q-41 49 -160 49q-110 0 -151 -51q-31 -39 -31 -132h371z
M963 1104h-275l-116 117l-117 -117h-281l265 262h262z" />
    <glyph glyph-name="edieresis" unicode="&#xeb;" horiz-adv-x="1128" 
d="M1036 408h-657q4 -113 39 -154q41 -47 162 -47q182 0 182 110h262q0 -333 -453 -333q-284 0 -395 145q-84 113 -84 358q0 258 82 377q109 160 391 160q307 0 406 -178q65 -119 65 -438zM754 618q0 99 -29 134q-41 49 -160 49q-110 0 -151 -51q-31 -39 -31 -132h371z
M936 1237q0 -139 -143 -139q-139 0 -139 139q0 135 139 135q143 0 143 -135zM475 1237q0 -139 -141 -139t-141 139q0 135 141 135t141 -135z" />
    <glyph glyph-name="igrave" unicode="&#xec;" horiz-adv-x="514" 
d="M543 1106h-310l-262 260h310zM401 0h-288v1008h288v-1008z" />
    <glyph glyph-name="iacute" unicode="&#xed;" horiz-adv-x="514" 
d="M401 0h-288v1008h288v-1008zM543 1366l-262 -260h-310l262 260h310z" />
    <glyph glyph-name="icircumflex" unicode="&#xee;" horiz-adv-x="514" 
d="M401 0h-288v1008h288v-1008zM651 1104h-274l-117 117l-117 -117h-280l264 262h262z" />
    <glyph glyph-name="idieresis" unicode="&#xef;" horiz-adv-x="514" 
d="M401 0h-288v1008h288v-1008zM629 1237q0 -139 -144 -139q-139 0 -139 139q0 135 139 135q144 0 144 -135zM168 1237q0 -139 -141 -139q-142 0 -142 139q0 135 142 135q141 0 141 -135z" />
    <glyph glyph-name="eth" unicode="&#xf0;" horiz-adv-x="1163" 
d="M1071 481q0 -135 -16 -205q-25 -110 -97 -178q-122 -114 -376 -114q-426 0 -480 319q-10 70 -10 182q0 164 27 244q22 66 86 129q104 105 284 105q15 0 35 -5l-137 138l-106 -107l-131 131l104 105l-98 98l178 178l96 -96l98 98l136 -135l-95 -94l267 -266
q141 -142 184 -230q51 -108 51 -297zM782 481q0 137 -30 183q-39 63 -170 63t-170 -63q-31 -46 -31 -183t31 -182q39 -63 170 -63t170 63q30 45 30 182z" />
    <glyph glyph-name="ntilde" unicode="&#xf1;" horiz-adv-x="1128" 
d="M1030 0h-289v492q0 163 -16 204q-27 72 -133 72q-137 0 -174 -104q-17 -50 -17 -234v-430h-288v1008h241v-82q111 98 289 98q258 0 340 -156q47 -90 47 -315v-553zM994 1210l-170 -71q-72 -31 -142 -31q-75 0 -137 35q-74 41 -100 41q-35 0 -82 -21l-139 -59l-89 162
q142 63 152 67q88 35 158 35q73 0 143 -38t100 -38q37 0 95 25l129 55z" />
    <glyph glyph-name="ograve" unicode="&#xf2;" horiz-adv-x="1155" 
d="M1071 508q0 -305 -113 -410q-122 -114 -380 -114q-259 0 -381 114q-113 105 -113 410q0 303 114.5 409.5t379.5 106.5q262 0 380 -111q113 -104 113 -405zM782 504q0 155 -38.5 211.5t-165.5 56.5t-166 -56.5t-39 -211.5q0 -156 37 -209q41 -59 168 -59t167 59
q37 53 37 209zM891 1106h-309l-262 260h309z" />
    <glyph glyph-name="oacute" unicode="&#xf3;" horiz-adv-x="1155" 
d="M1071 508q0 -305 -113 -410q-122 -114 -380 -114q-259 0 -381 114q-113 105 -113 410q0 303 114.5 409.5t379.5 106.5q262 0 380 -111q113 -104 113 -405zM782 504q0 155 -38.5 211.5t-165.5 56.5t-166 -56.5t-39 -211.5q0 -156 37 -209q41 -59 168 -59t167 59
q37 53 37 209zM927 1366l-262 -260h-309l262 260h309z" />
    <glyph glyph-name="ocircumflex" unicode="&#xf4;" horiz-adv-x="1155" 
d="M1071 508q0 -305 -113 -410q-122 -114 -380 -114q-259 0 -381 114q-113 105 -113 410q0 303 114.5 409.5t379.5 106.5q262 0 380 -111q113 -104 113 -405zM782 504q0 155 -38.5 211.5t-165.5 56.5t-166 -56.5t-39 -211.5q0 -156 37 -209q41 -59 168 -59t167 59
q37 53 37 209zM981 1104h-275l-116 117l-117 -117h-281l265 262h262z" />
    <glyph glyph-name="otilde" unicode="&#xf5;" horiz-adv-x="1155" 
d="M1071 508q0 -305 -113 -410q-122 -114 -380 -114q-259 0 -381 114q-113 105 -113 410q0 303 114.5 409.5t379.5 106.5q262 0 380 -111q113 -104 113 -405zM782 504q0 155 -38.5 211.5t-165.5 56.5t-166 -56.5t-39 -211.5q0 -156 37 -209q41 -59 168 -59t167 59
q37 53 37 209zM1012 1210l-170 -71q-72 -31 -142 -31q-75 0 -137 35q-74 41 -100 41q-35 0 -82 -21l-139 -59l-89 162q142 63 152 67q88 35 158 35q73 0 143 -38t100 -38q37 0 95 25l129 55z" />
    <glyph glyph-name="odieresis" unicode="&#xf6;" horiz-adv-x="1155" 
d="M1071 508q0 -305 -113 -410q-122 -114 -380 -114q-259 0 -381 114q-113 105 -113 410q0 303 114.5 409.5t379.5 106.5q262 0 380 -111q113 -104 113 -405zM782 504q0 155 -38.5 211.5t-165.5 56.5t-166 -56.5t-39 -211.5q0 -156 37 -209q41 -59 168 -59t167 59
q37 53 37 209zM958 1237q0 -139 -143 -139q-139 0 -139 139q0 135 139 135q143 0 143 -135zM497 1237q0 -139 -141 -139t-141 139q0 135 141 135t141 -135z" />
    <glyph glyph-name="divide" unicode="&#xf7;" horiz-adv-x="1253" 
d="M807 866q0 -170 -170 -170t-170 170q0 164 170 164t170 -164zM1176 379h-1098v254h1098v-254zM807 152q0 -168 -170 -168t-170 168q0 163 170 163t170 -163z" />
    <glyph glyph-name="oslash" unicode="&#xf8;" horiz-adv-x="1155" 
d="M1071 494q0 61 -4 133.5t-22.5 137t-59.5 118t-115 84.5l62 149l-187 76l-69 -172q-14 2 -48 3t-44 1q-142 0 -233 -24.5t-156 -88.5q-56 -53 -83.5 -145t-27.5 -252q0 -68 6 -138.5t27.5 -140t62.5 -118.5t103 -72l-72 -176l188 -78l78 197q10 -2 42 -3t52 -1
q158 0 246 28.5t137 77.5q64 60 90.5 154t26.5 250zM801 504q0 -84 -9.5 -138.5t-35 -87t-71.5 -45t-112 -12.5l189 477q12 -6 20.5 -29.5t13.5 -62.5t5 -102zM582 784l-189 -469q-10 11 -18 25t-12.5 35.5t-6.5 50.5t-2 78q0 76 9.5 127t34 86t68.5 51t116 16z" />
    <glyph glyph-name="ugrave" unicode="&#xf9;" horiz-adv-x="1128" 
d="M1016 0h-242v82q-110 -98 -289 -98q-258 0 -340 155q-47 90 -47 316v553h289v-492q0 -164 16 -205q27 -71 134 -71q137 0 174 104q16 49 16 234v430h289v-1008zM858 1106h-309l-262 260h309z" />
    <glyph glyph-name="uacute" unicode="&#xfa;" horiz-adv-x="1128" 
d="M1016 0h-242v82q-110 -98 -289 -98q-258 0 -340 155q-47 90 -47 316v553h289v-492q0 -164 16 -205q27 -71 134 -71q137 0 174 104q16 49 16 234v430h289v-1008zM903 1366l-262 -260h-309l262 260h309z" />
    <glyph glyph-name="ucircumflex" unicode="&#xfb;" horiz-adv-x="1128" 
d="M1016 0h-242v82q-110 -98 -289 -98q-258 0 -340 155q-47 90 -47 316v553h289v-492q0 -164 16 -205q27 -71 134 -71q137 0 174 104q16 49 16 234v430h289v-1008zM954 1104h-275l-116 117l-117 -117h-281l265 262h262z" />
    <glyph glyph-name="udieresis" unicode="&#xfc;" horiz-adv-x="1128" 
d="M1016 0h-242v82q-110 -98 -289 -98q-258 0 -340 155q-47 90 -47 316v553h289v-492q0 -164 16 -205q27 -71 134 -71q137 0 174 104q16 49 16 234v430h289v-1008zM936 1237q0 -139 -143 -139q-139 0 -139 139q0 135 139 135q143 0 143 -135zM475 1237q0 -139 -141 -139
t-141 139q0 135 141 135t141 -135z" />
    <glyph glyph-name="yacute" unicode="&#xfd;" horiz-adv-x="1083" 
d="M1077 1008l-536 -1399h-314l160 403l-381 996h311l226 -633l229 633h305zM876 1366l-262 -260h-309l262 260h309z" />
    <glyph glyph-name="thorn" unicode="&#xfe;" horiz-adv-x="1161" 
d="M1077 504q0 -254 -73 -371q-95 -149 -334 -149q-176 0 -269 65v-442h-288v1794h288v-443q105 66 254 66q269 0 363 -172q59 -109 59 -348zM788 500q0 153 -35.5 209.5t-140.5 56.5q-127 0 -171 -53.5t-44 -212.5q0 -158 44 -209t171 -51q105 0 140.5 53t35.5 207z" />
    <glyph glyph-name="ydieresis" unicode="&#xff;" horiz-adv-x="1083" 
d="M1077 1008l-536 -1399h-314l160 403l-381 996h311l226 -633l229 633h305zM889 1237q0 -139 -143 -139q-139 0 -139 139q0 135 139 135q143 0 143 -135zM428 1237q0 -139 -141 -139t-141 139q0 135 141 135t141 -135z" />
    <glyph glyph-name="dotlessi" unicode="&#x131;" horiz-adv-x="514" 
d="M401 0h-288v1008h288v-1008z" />
    <glyph glyph-name="Lslash" unicode="&#x141;" horiz-adv-x="1237" 
d="M1229 0h-948v412l-103 -103l-174 174l277 277v606h299v-367l102 103l174 -174l-276 -277v-385h649v-266z" />
    <glyph glyph-name="lslash" unicode="&#x142;" horiz-adv-x="637" 
d="M707 891l-244 -244v-647h-289v428l-76 -76l-168 168l244 244v663h289v-448l78 78z" />
    <glyph glyph-name="OE" unicode="&#x152;" horiz-adv-x="1858" 
d="M1747 0h-1040q-199 0 -310 37q-118 43 -190 147q-62 90 -80 242q-8 76 -8 256q0 178 10 256q18 149 80 242q72 106 190 147q111 39 310 39h1038v-266h-567v-269h546v-266h-546v-299h567v-266zM881 266v834h-154q-192 0 -244 -58q-65 -75 -65 -360t65 -358q52 -58 244 -58
h154z" />
    <glyph glyph-name="oe" unicode="&#x153;" horiz-adv-x="1815" 
d="M1722 408h-657q4 -113 39 -154q41 -47 162 -47q182 0 182 110h262q0 -333 -453 -333q-237 0 -342 116q-110 -116 -337 -116q-259 0 -381 114q-113 105 -113 410q0 303 114.5 409.5t379.5 106.5q227 0 335 -117q105 117 338 117q308 0 406 -178q65 -119 65 -438zM1440 618
q0 99 -29 134q-41 49 -160 49q-110 0 -151 -51q-31 -39 -31 -132h371zM782 504q0 155 -38.5 211.5t-165.5 56.5t-166 -56.5t-39 -211.5q0 -156 37 -209q41 -59 168 -59t167 59q37 53 37 209z" />
    <glyph glyph-name="Scaron" unicode="&#x160;" horiz-adv-x="1339" 
d="M1235 426q0 -442 -565 -442q-285 0 -420 86q-156 100 -154 333h299q2 -149 267 -149q137 0 200 29q74 34 74 120q0 101 -74 125q-31 13 -207 23q-280 18 -379 67q-172 87 -172 338q0 240 144 338q129 86 409 86q283 0 418 -88q154 -100 154 -331h-295q0 155 -281 155
q-151 0 -207 -39q-43 -30 -43 -104q0 -90 74 -115q39 -14 193 -22q293 -15 389 -62q176 -84 176 -348zM1057 1767l-264 -262h-263l-262 262h275l116 -117l117 117h281z" />
    <glyph glyph-name="scaron" unicode="&#x161;" horiz-adv-x="1061" 
d="M985 291q0 -307 -458 -307q-459 0 -459 331h266q0 -108 176 -112q185 -4 185 104q0 53 -41 70q-25 10 -109 16q-248 19 -324 58q-133 67 -133 272q0 301 449 301q205 0 311 -61q137 -78 137 -271h-264q0 109 -168 113q-174 4 -174 -94q0 -52 39 -68q21 -10 96 -16
q260 -21 334 -58q137 -67 137 -278zM930 1366l-264 -262h-263l-262 262h275l116 -117l117 117h281z" />
    <glyph glyph-name="Ydieresis" unicode="&#x178;" horiz-adv-x="1346" 
d="M1331 1366l-514 -788v-578h-299v578l-512 788h340l328 -518l327 518h330zM1001 1636q0 -139 -143 -139q-139 0 -139 139q0 135 139 135q143 0 143 -135zM540 1636q0 -139 -141 -139t-141 139q0 135 141 135t141 -135z" />
    <glyph glyph-name="Zcaron" unicode="&#x17d;" horiz-adv-x="1296" 
d="M1190 0h-1084v262l711 838h-711v266h1084v-266l-709 -834h709v-266zM1014 1767l-264 -262h-263l-262 262h275l116 -117l117 117h281z" />
    <glyph glyph-name="zcaron" unicode="&#x17e;" horiz-adv-x="1032" 
d="M954 0h-876v225l510 543h-510v240h876v-226l-505 -542h505v-240zM914 1366l-264 -262h-263l-262 262h275l116 -117l117 117h281z" />
    <glyph glyph-name="florin" unicode="&#x192;" horiz-adv-x="1214" 
d="M231 -391v971h-155v251h155v91q0 131 11 184q20 94 92 160q125 114 364 114q187 0 289 -49q174 -84 174 -313h-276q0 115 -168 115q-137 0 -178 -60q-25 -37 -25 -147v-95h561v-251h-561v-971h-283z" />
    <glyph glyph-name="circumflex" unicode="&#x2c6;" horiz-adv-x="909" 
d="M848 1104h-275l-116 117l-117 -117h-281l265 262h262z" />
    <glyph glyph-name="caron" unicode="&#x2c7;" horiz-adv-x="901" 
d="M844 1366l-264 -262h-263l-262 262h275l116 -117l117 117h281z" />
    <glyph glyph-name="breve" unicode="&#x2d8;" horiz-adv-x="901" 
d="M752 1366q0 -152 -67 -207t-234 -55q-168 0 -234.5 55t-66.5 207h172q0 -74 32 -96q25 -17 97 -17q71 0 96 17q33 22 33 96h172z" />
    <glyph glyph-name="dotaccent" unicode="&#x2d9;" horiz-adv-x="903" 
d="M592 1237q0 -139 -141 -139q-142 0 -142 139q0 135 142 135q141 0 141 -135z" />
    <glyph glyph-name="ring" unicode="&#x2da;" horiz-adv-x="1106" 
d="M805 1126q0 -127 -58.5 -185t-193.5 -58t-193.5 58t-58.5 185t58.5 183.5t193.5 56.5t193.5 -56.5t58.5 -183.5zM647 1124q0 60 -18.5 82.5t-77.5 22.5q-62 0 -78 -22.5t-16 -82.5q0 -59 17.5 -81.5t78.5 -22.5q57 0 75.5 23.5t18.5 80.5z" />
    <glyph glyph-name="ogonek" unicode="&#x2db;" horiz-adv-x="801" 
d="M563 -225q0 -168 -198 -168q-127 0 -175 65q-30 43 -28 131q0 115 55 156t189 41v-123q-60 0 -74 -8q-25 -12 -25 -68q0 -77 58 -77q59 0 59 51h139z" />
    <glyph glyph-name="tilde" unicode="&#x2dc;" horiz-adv-x="901" 
d="M879 1210l-170 -71q-72 -31 -142 -31q-75 0 -137 35q-74 41 -100 41q-35 0 -82 -21l-139 -59l-89 162q142 63 152 67q88 35 158 35q73 0 143 -38t100 -38q37 0 95 25l129 55z" />
    <glyph glyph-name="hungarumlaut" unicode="&#x2dd;" horiz-adv-x="897" 
d="M901 1366l-274 -313h-252l274 313h252zM526 1366l-274 -313h-252l274 313h252z" />
    <glyph glyph-name="Delta" unicode="&#x394;" horiz-adv-x="1473" 
d="M1419 520h-889l406 -393l-180 -180l-699 700l699 699l180 -179l-406 -393h889v-254z" />
    <glyph glyph-name="Delta" unicode="&#x2206;" horiz-adv-x="1473" 
d="M1419 520h-889l406 -393l-180 -180l-699 700l699 699l180 -179l-406 -393h889v-254z" />
    <glyph glyph-name="Omega" unicode="&#x3a9;" horiz-adv-x="1436" 
d="M1225 879l-631 -633l565 10v-256h-989v987h254l-8 -563l633 633z" />
    <glyph glyph-name="Omega" unicode="&#x2126;" horiz-adv-x="1436" 
d="M1225 879l-631 -633l565 10v-256h-989v987h254l-8 -563l633 633z" />
    <glyph glyph-name="pi" unicode="&#x3c0;" horiz-adv-x="1434" 
d="M1251 487l-178 -176l-631 631l9 -563h-254v987l989 2v-256l-565 8z" />
    <glyph glyph-name="endash" unicode="&#x2013;" horiz-adv-x="1233" 
d="M1165 379h-1097v254h1097v-254z" />
    <glyph glyph-name="emdash" unicode="&#x2014;" horiz-adv-x="2062" 
d="M1862 379h-1661v254h1661v-254z" />
    <glyph glyph-name="quoteleft" unicode="&#x2018;" horiz-adv-x="551" 
d="M139 1014q0 90 19 137q22 59 92 129l104 104l176 -176l-41 -41q-47 -47 -62 -79.5t-15 -96.5v-254h-273v277z" />
    <glyph glyph-name="quoteright" unicode="&#x2019;" horiz-adv-x="551" 
d="M412 1090q0 -91 -19 -138q-22 -59 -92 -129l-104 -104l-177 176l41 41q48 47 63 80t15 96v254h273v-276z" />
    <glyph glyph-name="quotesinglbase" unicode="&#x201a;" horiz-adv-x="551" 
d="M412 51q0 -90 -19 -137q-22 -59 -92 -129l-104 -104l-177 176l41 41q48 47 63 79.5t15 96.5v254h273v-277z" />
    <glyph glyph-name="quotedblleft" unicode="&#x201c;" horiz-adv-x="985" 
d="M573 1014q0 90 19 137q22 59 92 129l104 104l177 -176l-41 -41q-47 -47 -62.5 -79.5t-15.5 -96.5v-254h-273v277zM139 1014q0 90 19 137q22 59 92 129l104 104l176 -176l-41 -41q-47 -47 -62 -79.5t-15 -96.5v-254h-273v277z" />
    <glyph glyph-name="quotedblright" unicode="&#x201d;" horiz-adv-x="985" 
d="M412 1090q0 -91 -19 -138q-22 -59 -92 -129l-104 -104l-177 176l41 41q48 47 63 80t15 96v254h273v-276zM846 1090q0 -91 -19 -138q-22 -59 -92 -129l-104 -104l-176 176l41 41q47 47 62 80t15 96v254h273v-276z" />
    <glyph glyph-name="quotedblbase" unicode="&#x201e;" horiz-adv-x="985" 
d="M412 51q0 -90 -19 -137q-22 -59 -92 -129l-104 -104l-177 176l41 41q48 47 63 79.5t15 96.5v254h273v-277zM846 51q0 -90 -19 -137q-22 -59 -92 -129l-104 -104l-176 176l41 41q47 47 62 79.5t15 96.5v254h273v-277z" />
    <glyph glyph-name="dagger" unicode="&#x2020;" horiz-adv-x="1174" 
d="M1024 758h-295v-944h-283v944h-296v250h296v358h283v-358h295v-250z" />
    <glyph glyph-name="daggerdbl" unicode="&#x2021;" horiz-adv-x="1182" 
d="M1032 379h-295v-565h-282v565h-297v250h297v129h-297v250h297v358h282v-358h295v-250h-295v-129h295v-250z" />
    <glyph glyph-name="bullet" unicode="&#x2022;" horiz-adv-x="1010" 
d="M782 684q0 -276 -276 -276q-279 0 -279 276q0 279 279 279q276 0 276 -279z" />
    <glyph glyph-name="ellipsis" unicode="&#x2026;" horiz-adv-x="2032" 
d="M518 158q0 -80 -46 -127t-128 -47t-128 47t-46 127q0 170 174 170t174 -170zM1188 158q0 -80 -46 -127t-128 -47t-128 47t-46 127q0 170 174 170t174 -170zM1862 158q0 -80 -46.5 -127t-127.5 -47q-82 0 -128.5 47t-46.5 127q0 170 175 170q174 0 174 -170z" />
    <glyph glyph-name="perthousand" unicode="&#x2030;" horiz-adv-x="2492" 
d="M1368 1366l-784 -1366h-199l782 1366h201zM684 952q0 -221 -41 -303q-63 -123 -264 -123t-264 123q-41 82 -41 303q0 224 41 303q63 125 264 125t264 -125q41 -79 41 -303zM502 952q0 164 -19 211q-22 56 -104 56t-105 -56q-18 -47 -18 -211t18 -209q23 -55 105 -55
t104 55q19 45 19 209zM1681 410q0 -222 -41 -304q-63 -122 -264 -122q-200 0 -264 122q-41 82 -41 304q0 223 41 303q64 125 264 125q201 0 264 -125q41 -80 41 -303zM1499 410q0 163 -18 211q-23 55 -105 55t-104 -55q-19 -48 -19 -211q0 -164 19 -209q22 -56 104 -56
t105 56q18 45 18 209zM2419 410q0 -222 -41 -304q-64 -122 -264 -122q-201 0 -265 122q-41 82 -41 304q0 223 41 303q64 125 265 125q200 0 264 -125q41 -80 41 -303zM2236 410q0 163 -18 211q-23 55 -104 55q-82 0 -105 -55q-18 -48 -18 -211q0 -164 18 -209
q23 -56 105 -56q81 0 104 56q18 45 18 209z" />
    <glyph glyph-name="guilsinglleft" unicode="&#x2039;" horiz-adv-x="590" 
d="M541 223l-181 -180l-94 94q-108 109 -151 170q-66 99 -66 197t70 196q39 56 160 177l79 79l181 -180l-80 -80q-76 -75 -88 -92q-41 -51 -41 -102q0 -53 39 -105q14 -16 92 -94z" />
    <glyph glyph-name="guilsinglright" unicode="&#x203a;" horiz-adv-x="590" 
d="M49 223l180 -180l95 94q108 109 151 170q66 99 66 197t-70 196q-39 56 -160 177l-80 79l-180 -180l80 -80q76 -75 88 -92q41 -51 41 -102q0 -53 -39 -105q-14 -16 -92 -94z" />
    <glyph glyph-name="fraction" unicode="&#x2044;" horiz-adv-x="745" 
d="M864 1366l-784 -1366h-199l783 1366h200z" />
    <glyph glyph-name="Euro" unicode="&#x20ac;" horiz-adv-x="1249" 
d="M1145 348q-4 -364 -438 -364q-246 0 -359 120q-96 107 -108 330h-152v201h154v110h-154v201h152q12 215 112 320q113 114 355 114q432 0 438 -362h-258q0 74 -53 102q-37 19 -119 19q-99 0 -143 -44t-44 -149h295v-201h-301v-110h301v-201h-295q0 -115 44 -161t143 -46
q172 0 172 121h258z" />
    <glyph glyph-name="trademark" unicode="&#x2122;" horiz-adv-x="1729" 
d="M1665 477h-190v567l-172 -567h-181l-176 567v-567h-186v889h264l195 -612l182 612h264v-889zM715 1192h-246v-715h-201v715h-245v174h692v-174z" />
    <glyph glyph-name="partialdiff" unicode="&#x2202;" horiz-adv-x="1217" 
d="M934 1157h-252q0 57 -109 57q-88 0 -110 -45q-10 -20 -10 -110v-51h274v-240h-268v-768h-289v768h-158v240h158v77q0 172 94 261q107 98 322 98q147 0 237 -62q111 -73 111 -225zM1098 -41q0 -356 -410 -356q-172 0 -272 67q-115 76 -115 228h272q0 -68 111 -68
q76 0 102 35q23 29 23 104v1039h289v-1049z" />
    <glyph glyph-name="product" unicode="&#x220f;" horiz-adv-x="1434" 
d="M1237 379h-254l8 563l-631 -631l-178 176l631 633l-565 -8v256l989 -2v-987z" />
    <glyph glyph-name="summation" unicode="&#x2211;" 
 />
    <glyph glyph-name="radical" unicode="&#x221a;" horiz-adv-x="1495" 
d="M1448 698l-700 -698l-699 698l180 181l392 -406v893h253v-893l394 406z" />
    <glyph glyph-name="infinity" unicode="&#x221e;" horiz-adv-x="1497" 
d="M1448 672l-178 -180l-393 405v-895h-254v895l-394 -405l-180 180l701 698z" />
    <glyph glyph-name="integral" unicode="&#x222b;" horiz-adv-x="1436" 
d="M1239 0h-989v254l565 -8l-631 631l178 178l631 -631l-8 563h254v-987z" />
    <glyph glyph-name="approxequal" unicode="&#x2248;" horiz-adv-x="1235" 
d="M1176 328q-115 -107 -185 -152q-102 -65 -198 -65q-82 0 -196 65.5t-155 65.5q-55 0 -215 -133l-168 165q117 109 185 152q102 66 198 66q82 0 192.5 -66t158.5 -66q55 0 215 134zM1176 743q-115 -106 -185 -151q-102 -66 -198 -66q-82 0 -196 65.5t-155 65.5
q-55 0 -215 -133l-168 166q117 109 185 152q102 65 198 65q82 0 192.5 -65.5t158.5 -65.5q55 0 215 133z" />
    <glyph glyph-name="approxequal" unicode="&#x22f2;" horiz-adv-x="1235" 
d="M1176 328q-115 -107 -185 -152q-102 -65 -198 -65q-82 0 -196 65.5t-155 65.5q-55 0 -215 -133l-168 165q117 109 185 152q102 66 198 66q82 0 192.5 -66t158.5 -66q55 0 215 134zM1176 743q-115 -106 -185 -151q-102 -66 -198 -66q-82 0 -196 65.5t-155 65.5
q-55 0 -215 -133l-168 166q117 109 185 152q102 65 198 65q82 0 192.5 -65.5t158.5 -65.5q55 0 215 133z" />
    <glyph glyph-name="notequal" unicode="&#x2260;" horiz-adv-x="1233" 
d="M1165 180h-649l-143 -207l-154 109l70 98h-221v254h393l102 156h-495v254h667l131 192l154 -108l-57 -84h202v-254h-374l-103 -156h477v-254z" />
    <glyph glyph-name="lessequal" unicode="&#x2264;" horiz-adv-x="1233" 
d="M1167 592l-71 -236l-1028 328v246l1028 332l71 -236l-725 -219zM1165 0h-1097v254h1097v-254z" />
    <glyph glyph-name="greaterequal" unicode="&#x2265;" horiz-adv-x="1233" 
d="M1167 684l-1028 -328l-71 236l725 215l-725 219l71 236l1028 -332v-246zM1167 0h-1097v254h1097v-254z" />
    <glyph glyph-name="lozenge" unicode="&#x25ca;" horiz-adv-x="1477" 
d="M1419 647l-698 -700l-180 180l405 393h-889v254h889l-405 393l180 179z" />
    <glyph glyph-name="apple" unicode="&#xf000;" horiz-adv-x="1645" 
d="M1524 684q0 -401 -146.5 -550.5t-548.5 -149.5q-405 0 -550 153q-140 148 -140 551q0 406 141.5 549t548.5 143q406 0 550.5 -145t144.5 -551zM1337 690q0 318 -96 418t-412 100q-319 0 -412 -101t-93 -425q0 -223 38 -328q44 -114 160 -159v374h-123v168h123v84
q0 307 342 307t342 -254h-182q0 82 -156 82q-90 0 -126.5 -29.5t-36.5 -105.5v-84h393v-168h-393v-409q57 -4 124 -4q314 0 414 112q94 103 94 422z" />
    <glyph glyph-name="fi" unicode="&#xf001;" horiz-adv-x="1210" 
d="M1098 0h-289v1008h289v-1008zM934 1157h-252q0 57 -109 57q-88 0 -110 -45q-10 -20 -10 -110v-51h274v-240h-268v-768h-289v768h-158v240h158v77q0 172 94 261q107 98 322 98q147 0 237 -62q111 -73 111 -225z" />
    <glyph glyph-name="fl" unicode="&#xf002;" horiz-adv-x="1405" 
d="M1292 0h-288v1427h288v-1427zM934 1157h-252q0 57 -109 57q-88 0 -110 -45q-10 -20 -10 -110v-51h356v-240h-350v-768h-289v768h-158v240h158v77q0 172 94 261q107 98 322 98q147 0 237 -62q111 -73 111 -225z" />
    <glyph glyph-name="glyph236" horiz-adv-x="1395" 
d="M1276 670q0 -211 -21 -318q-28 -157 -112 -241q-127 -127 -453 -127q10 0 -41 2l-71 -275l-244 56l65 260q-194 71 -249 254q-31 104 -31 403q0 213 20 322q29 159 115 245q129 129 451 129q-11 0 40 -2l72 275l244 -56l-66 -260q193 -65 248 -260q33 -110 33 -407z
M977 682q0 264 -43 338q-49 86 -232 86q-178 0 -231 -74t-53 -342q0 -266 41 -342q51 -90 233 -90q174 0 228 72q57 80 57 352z" />
    <glyph glyph-name="glyph240" horiz-adv-x="1155" 
d="M1071 494q0 -297 -116.5 -403.5t-383.5 -106.5q-39 0 -69 2l-82 -199l-234 84l68 180q-111 64 -148 199q-22 86 -22 264q0 297 116.5 403.5t383.5 106.5q39 0 69 -2l72 172l233 -84l-57 -154q113 -63 150 -200q20 -82 20 -262zM782 502q0 157 -34 209q-39 59 -166 59
q-129 0 -169 -55.5t-40 -208.5q0 -158 35 -209q38 -59 165 -59q129 0 169 55t40 209z" />
    <glyph glyph-name="glyph243" 
 />
    <glyph glyph-name="HT" horiz-adv-x="3705" 
 />
    <glyph glyph-name="LF" 
 />
    <glyph glyph-name="nonmarkingreturn" 
 />
    <glyph glyph-name="DLE" 
 />
    <glyph glyph-name="DC1" 
 />
    <glyph glyph-name="DC2" 
 />
    <glyph glyph-name="DC3" 
 />
    <glyph glyph-name="DC4" 
 />
    <glyph glyph-name="RS" 
 />
    <glyph glyph-name="US" 
 />
    <glyph glyph-name="DEL" 
 />
    <glyph glyph-name="glyph262" 
 />
    <glyph glyph-name="glyph263" horiz-adv-x="0" 
 />
    </font>
</defs>
</svg>
