<?xml version="1.0" standalone="no"?>
<!DOCTYPE svg PUBLIC "-//W3C//DTD SVG 1.1//EN" "http://www.w3.org/Graphics/SVG/1.1/DTD/svg11.dtd" >
<svg xmlns="http://www.w3.org/2000/svg" xmlns:xlink="http://www.w3.org/1999/xlink" version="1.1">
<metadata>
Created by FontForge 20170731 at Mon Jul  9 17:26:14 2001
 By Aleksey,,,
Copyright (c) The Foundry, 2001. All rights reserved.
</metadata>
<defs>
<font id="FoundryMonoline-Regular" horiz-adv-x="1161" >
  <font-face 
    font-family="FoundryMonoline-Regular"
    font-weight="400"
    font-stretch="normal"
    units-per-em="2048"
    panose-1="2 0 5 3 0 0 0 2 0 4"
    ascent="1638"
    descent="-410"
    x-height="983"
    cap-height="1366"
    bbox="-389 -399 2279 1769"
    underline-thickness="50"
    underline-position="-175"
    unicode-range="U+0020-F002"
  />
<missing-glyph horiz-adv-x="1024" 
d="M129 0v1487h768v-1487h-768zM256 129h512v1231h-512v-1231z" />
    <glyph glyph-name=".notdef" horiz-adv-x="1024" 
d="M129 0v1487h768v-1487h-768zM256 129h512v1231h-512v-1231z" />
    <glyph glyph-name="glyph1" horiz-adv-x="0" 
 />
    <glyph glyph-name="glyph2" horiz-adv-x="522" 
 />
    <glyph glyph-name="space" unicode=" " horiz-adv-x="522" 
 />
    <glyph glyph-name="exclam" unicode="!" horiz-adv-x="584" 
d="M350 389h-117v977h117v-977zM375 66q0 -82 -82 -82t-82 82q0 81 82 81t82 -81z" />
    <glyph glyph-name="quotedbl" unicode="&#x22;" horiz-adv-x="891" 
d="M651 922h-108v444h108v-444zM346 922h-108v444h108v-444z" />
    <glyph glyph-name="numbersign" unicode="#" 
d="M1122 850h-260l-76 -281h232v-104h-258l-123 -465h-107l123 465h-276l-123 -465h-107l123 465h-233v104h260l76 281h-232v104h260l123 467h107l-125 -467h276l125 467h107l-125 -467h233v-104zM754 850h-275l-73 -281h274z" />
    <glyph glyph-name="dollar" unicode="$" horiz-adv-x="1139" 
d="M991 389q0 -196 -89 -289.5t-281 -99.5v-203h-111v203q-186 4 -272 70q-93 69 -93 225h115q0 -100 54.5 -141t195.5 -45v546q-188 17 -264 82q-90 80 -90 271q0 346 354 358v195h111v-195q184 -4 270 -70.5t86 -224.5h-115q0 103 -51 142.5t-190 43.5v-493
q219 -16 290 -84q80 -74 80 -291zM510 770v487q-133 -4 -187.5 -61t-54.5 -199q0 -135 58 -180q47 -39 184 -47zM879 397q0 156 -54 203q-43 39 -204 51v-545q141 7 199.5 72.5t58.5 218.5z" />
    <glyph glyph-name="percent" unicode="%" horiz-adv-x="1772" 
d="M1604 397q0 -225 -27 -288q-51 -125 -242 -125q-190 0 -241 131q-27 63 -27 282q0 217 27 283q51 129 241 129q193 0 244 -131q25 -62 25 -281zM1292 1366l-690 -1366h-106l688 1366h108zM705 969q0 -226 -27 -289q-51 -125 -242 -125q-190 0 -241 131q-27 64 -27 283
q0 217 27 282q51 129 241 129q193 0 244 -131q25 -61 25 -280zM1501 397q0 211 -20 254q-29 62 -146 62q-125 0 -149 -78q-15 -45 -15 -238q0 -211 21 -256q29 -63 143 -63q127 0 152 80q14 45 14 239zM602 969q0 211 -20 254q-29 61 -146 61q-125 0 -149 -78
q-15 -45 -15 -237q0 -211 21 -256q29 -64 143 -64q127 0 152 80q14 45 14 240z" />
    <glyph glyph-name="ampersand" unicode="&#x26;" horiz-adv-x="1241" 
d="M1169 664h-122v-211q0 -129 -13 -195q-20 -106 -86 -170q-104 -102 -356 -102q-238 0 -338 80q-113 88 -113 313q0 278 181 342q-95 39 -131.5 106.5t-36.5 194.5q0 197 95 277.5t314 80.5q207 0 303 -65q107 -74 107 -244h-117q0 111 -66.5 154t-226.5 43
q-174 0 -233.5 -51.5t-59.5 -198.5q0 -146 76 -199q62 -43 217 -43h369v131h115v-131h122v-112zM932 453v211h-369q-178 0 -241.5 -57.5t-63.5 -233.5q0 -170 88 -230q70 -45 246 -45q205 0 274 70q66 63 66 285z" />
    <glyph glyph-name="quotesingle" unicode="'" horiz-adv-x="586" 
d="M346 922h-108v444h108v-444z" />
    <glyph glyph-name="parenleft" unicode="(" horiz-adv-x="606" 
d="M535 -391q-177 0 -270 52t-132 179q-63 213 -63 787q0 579 63 792q39 127 132 179.5t270 52.5v-105q-134 0 -199 -35q-53 -28 -82 -98q-70 -172 -70 -784q0 -611 70 -783q29 -69 82 -98q65 -35 199 -35v-104z" />
    <glyph glyph-name="parenright" unicode=")" horiz-adv-x="606" 
d="M535 627q0 -574 -64 -787q-37 -127 -130 -179t-271 -52v104q135 0 200 35q54 29 80 98q70 172 70 783q0 612 -70 784q-26 70 -80 98q-65 35 -200 35v105q178 0 271 -52.5t130 -179.5q64 -213 64 -792z" />
    <glyph glyph-name="asterisk" unicode="*" horiz-adv-x="1081" 
d="M1034 989l-411 -127l251 -327l-83 -60l-252 328l-250 -328l-84 60l252 327l-412 127l33 94l409 -125v408h105v-408l409 125z" />
    <glyph glyph-name="plus" unicode="+" 
d="M1069 438h-434v-438h-115v438h-432v109h432v436h115v-436h434v-109z" />
    <glyph glyph-name="comma" unicode="," horiz-adv-x="436" 
d="M272 -23q0 -83 -14 -129q-18 -55 -76 -104l-61 -53l-70 69q82 74 97.5 101.5t15.5 115.5v166h108v-166z" />
    <glyph glyph-name="hyphen" unicode="-" horiz-adv-x="993" 
d="M807 438h-623v109h623v-109z" />
    <glyph glyph-name="hyphen" unicode="&#x2010;" horiz-adv-x="993" 
d="M807 438h-623v109h623v-109z" />
    <glyph glyph-name="period" unicode="." horiz-adv-x="434" 
d="M299 66q0 -82 -82 -82t-82 82q0 81 82 81t82 -81z" />
    <glyph glyph-name="slash" unicode="/" horiz-adv-x="944" 
d="M965 1546l-869 -1718h-114l866 1718h117z" />
    <glyph glyph-name="zero" unicode="0" 
d="M1012 682q0 -375 -33 -469q-78 -229 -399 -229q-320 0 -400 229q-33 94 -33 469q0 213 5 262q8 170 47 250q94 186 381 186q288 0 381 -186q40 -80 49 -250q2 -49 2 -262zM893 682q0 336 -29 428q-49 160 -284 160q-234 0 -285 -160q-29 -92 -29 -428q0 -375 39 -461
q57 -127 275 -127q217 0 274 127q39 86 39 461z" />
    <glyph glyph-name="one" unicode="1" horiz-adv-x="928" 
d="M891 0h-782v109h331v1108l-268 -242l-78 78l357 313h108v-1257h332v-109z" />
    <glyph glyph-name="two" unicode="2" horiz-adv-x="1137" 
d="M1001 993q0 -188 -102 -284q-78 -74 -338 -144q-180 -49 -225 -92q-55 -53 -55 -205v-159h718v-109h-837v307q0 178 106 260q66 51 262 107q107 31 154 47q96 35 133 74q66 67 66 198q0 154 -62 213q-67 64 -239 64q-160 0 -229.5 -43t-69.5 -156h-117q0 170 108 244
q97 65 304 65q210 0 316.5 -83t106.5 -304z" />
    <glyph glyph-name="three" unicode="3" horiz-adv-x="1139" 
d="M989 381q0 -213 -105.5 -305t-326.5 -92q-195 0 -291 59q-125 74 -125 252h119q0 -111 68.5 -156t230.5 -45q164 0 234 56q77 63 77 225q0 176 -59 227t-254 51h-178v111h178q164 0 225 43q76 55 76 211q0 147 -60.5 199.5t-240.5 52.5q-164 0 -233 -45q-76 -45 -76 -154
h-119q0 170 115 244q100 65 313 65q227 0 323.5 -80.5t96.5 -277.5q0 -238 -150 -311q101 -37 138 -129q24 -66 24 -201z" />
    <glyph glyph-name="four" unicode="4" horiz-adv-x="1141" 
d="M1030 393h-201v-393h-114v393h-611v105l611 868h114v-864h201v-109zM715 502v690l-479 -690h479z" />
    <glyph glyph-name="five" unicode="5" 
d="M1008 420q0 -240 -101.5 -338t-337.5 -98q-200 0 -297 65q-106 74 -106 246h115q0 -113 65.5 -157t222.5 -44q181 0 250.5 67.5t69.5 250.5q0 186 -47 256q-62 88 -246 88q-297 0 -297 -170h-113v780h777v-111h-662v-479q80 90 299 90q234 0 328 -116q80 -103 80 -330z
" />
    <glyph glyph-name="six" unicode="6" horiz-adv-x="1149" 
d="M1008 422q0 -225 -101.5 -331.5t-320.5 -106.5q-312 0 -396 227q-43 117 -43 412q0 327 27 477q51 280 418 280q389 0 389 -309h-115q0 199 -272 199q-133 0 -199.5 -39t-93.5 -123q-31 -96 -33 -385q111 143 326 143q223 0 318.5 -103.5t95.5 -340.5zM889 420
q0 192 -62.5 264t-222.5 72q-330 0 -330 -326q0 -178 74 -257t236 -79q168 0 236.5 73t68.5 253z" />
    <glyph glyph-name="seven" unicode="7" horiz-adv-x="942" 
d="M893 1260l-600 -1260h-127l604 1255h-723v111h846v-106z" />
    <glyph glyph-name="eight" unicode="8" horiz-adv-x="1165" 
d="M1018 377q0 -199 -92 -293q-101 -100 -342 -100q-244 0 -342 100q-92 94 -92 293q0 143 41.5 220t138.5 112q-97 39 -133 114q-35 70 -35 199q0 197 97 277.5t325 80.5q225 0 323.5 -80.5t98.5 -277.5q0 -129 -35 -199q-37 -75 -131 -114q94 -35 136 -112t42 -220z
M887 1018q0 147 -62.5 199.5t-240.5 52.5q-181 0 -242 -52.5t-61 -195.5q0 -160 61 -205q74 -55 242 -55t243 55q60 45 60 201zM899 371q0 170 -76 229q-67 51 -239 51q-187 0 -248 -49q-68 -57 -68 -229q0 -168 72 -226q63 -53 244 -53q176 0 241 53q74 58 74 224z" />
    <glyph glyph-name="nine" unicode="9" horiz-adv-x="1151" 
d="M1001 741q0 -327 -26 -477q-49 -280 -418 -280q-389 0 -389 309h115q0 -199 272 -199q135 0 201.5 39t91.5 123q31 96 33 385q-111 -143 -326 -143q-223 0 -318.5 103.5t-95.5 340.5q0 225 102.5 331.5t319.5 106.5q311 0 395 -227q43 -117 43 -412zM874 934
q0 178 -73.5 257t-235.5 79q-166 0 -235.5 -73t-69.5 -253q0 -192 62.5 -264t222.5 -72q329 0 329 326z" />
    <glyph glyph-name="colon" unicode=":" horiz-adv-x="436" 
d="M299 918q0 -82 -82 -82t-82 82q0 81 82 81t82 -81zM299 66q0 -82 -82 -82t-82 82q0 81 82 81t82 -81z" />
    <glyph glyph-name="semicolon" unicode=";" horiz-adv-x="436" 
d="M299 918q0 -82 -82 -82t-82 82q0 81 82 81t82 -81zM272 -23q0 -83 -14 -129q-18 -55 -76 -104l-61 -53l-70 69q82 74 97.5 101.5t15.5 115.5v166h108v-166z" />
    <glyph glyph-name="less" unicode="&#x3c;" 
d="M1079 106l-43 -106l-956 438v111l956 434l43 -106l-860 -381z" />
    <glyph glyph-name="equal" unicode="=" 
d="M1067 637h-975v108h975v-108zM1067 242h-975v108h975v-108z" />
    <glyph glyph-name="greater" unicode="&#x3e;" 
d="M1079 438l-956 -438l-43 106l860 390l-860 381l43 106l956 -434v-111z" />
    <glyph glyph-name="question" unicode="?" horiz-adv-x="870" 
d="M817 1034q0 -129 -54 -204.5t-173 -127.5q-88 -38 -111 -84q-18 -32 -18 -143v-86h-117v119q0 170 94 242q84 43 170 86q92 57 92 198q0 133 -55 184.5t-205 51.5q-145 0 -205.5 -44t-60.5 -155h-113q0 168 99 242q88 67 276 67q197 0 289 -79.5t92 -266.5zM485 66
q0 -82 -82 -82q-81 0 -81 82q0 81 81 81q82 0 82 -81z" />
    <glyph glyph-name="at" unicode="@" horiz-adv-x="1581" 
d="M1421 778q0 -360 -104 -461q-90 -88 -291 -84v86q-92 -98 -260 -98q-207 0 -281 119q-53 86 -53 295q0 213 51 297q72 121 281 121q168 0 260 -99v84h102v-700q129 -6 168 178q19 82 19 279q0 176 -27 266q-20 69 -69 117q-109 100 -416 100q-312 0 -416 -104
q-115 -115 -115 -539q0 -453 109 -561q61 -62 162 -86q94 -23 268 -23q180 0 276 29q138 41 195 153l92 -47q-72 -145 -248 -200q-118 -37 -325 -37q-201 0 -316.5 32.5t-193.5 110.5q-129 129 -129 639q0 473 147 610q135 125 490 125q370 0 501 -120q68 -62 95.5 -166.5
t27.5 -315.5zM1024 635q0 180 -59.5 246.5t-206.5 66.5q-137 0 -183 -84q-30 -61 -30 -229q0 -170 30 -227q43 -82 185 -82q147 0 205.5 65.5t58.5 243.5z" />
    <glyph glyph-name="A" unicode="A" horiz-adv-x="1260" 
d="M1214 0h-131l-153 403h-608l-152 -403h-127l528 1366h115zM889 510l-262 704l-265 -704h527z" />
    <glyph glyph-name="B" unicode="B" horiz-adv-x="1329" 
d="M1161 381q0 -205 -86 -289t-272 -90q-62 -2 -146 -2h-469v1366h457q203 0 254 -6q125 -17 182 -84q68 -82 68 -256q0 -252 -148 -315q160 -72 160 -324zM1030 1006q0 135 -51 192q-45 47 -141 55q-13 2 -207 2h-322v-499h336q229 0 285 24q100 43 100 226zM1040 377
q0 155 -51 205.5t-166 62.5q-30 2 -182 2h-332v-536h332q238 0 297 26q102 49 102 240z" />
    <glyph glyph-name="C" unicode="C" horiz-adv-x="1313" 
d="M1169 352q0 -202 -110.5 -285t-362.5 -83t-374 86q-107 75 -140 239q-20 105 -20 373t20 373q33 164 140 239q122 86 374 86q250 0 361.5 -83t111.5 -285h-114q0 145 -78 199.5t-299 54.5q-250 0 -328 -111q-37 -55 -51 -135q-16 -100 -16 -338t16 -338q14 -78 51 -133
q80 -113 328 -113q221 0 299 54.5t78 199.5h114z" />
    <glyph glyph-name="D" unicode="D" horiz-adv-x="1366" 
d="M1202 682q0 -190 -6 -262q-16 -158 -74 -248q-59 -96 -161.5 -134t-294.5 -38h-478v1366h478q190 0 293.5 -38t162 -131t74.5 -253q6 -72 6 -262zM1081 682q0 356 -71 463q-39 59 -115 83.5t-242 24.5h-344v-1140h344q166 0 242 23.5t115 82.5q71 105 71 463z" />
    <glyph glyph-name="E" unicode="E" horiz-adv-x="1200" 
d="M1042 0h-854v1366h854v-111h-735v-499h715v-109h-715v-536h735v-111z" />
    <glyph glyph-name="F" unicode="F" horiz-adv-x="1149" 
d="M1022 1255h-713v-499h695v-111h-695v-645h-121v1366h834v-111z" />
    <glyph glyph-name="G" unicode="G" horiz-adv-x="1364" 
d="M1192 0h-109v141q-125 -157 -432 -157q-231 0 -344 90q-96 76 -127 243q-18 103 -18 365q0 270 20 375q33 164 142 239q120 84 376 84q252 0 367 -80q125 -88 125 -288h-119q0 143 -86 198.5t-305 55.5q-254 0 -334 -113q-37 -55 -49 -135q-16 -94 -16 -336
q0 -238 16 -338q14 -78 51 -133q80 -113 328 -113q250 0 340 129q47 66 57 199q4 53 4 211v10h-409v109h522v-756z" />
    <glyph glyph-name="H" unicode="H" horiz-adv-x="1337" 
d="M1147 0h-121v647h-717v-647h-121v1366h121v-610h717v610h121v-1366z" />
    <glyph glyph-name="I" unicode="I" horiz-adv-x="500" 
d="M309 0h-121v1366h121v-1366z" />
    <glyph glyph-name="J" unicode="J" horiz-adv-x="1090" 
d="M907 426q0 -127 -8 -178q-41 -264 -403 -264q-213 0 -310 77q-106 86 -106 289h115q0 -151 73 -205q64 -49 228 -49q127 0 190 33q82 41 96 145q4 29 4 148v944h121v-940z" />
    <glyph glyph-name="K" unicode="K" horiz-adv-x="1178" 
d="M1159 0h-174l-676 647v-647h-121v1366h119v-610l688 610h162l-749 -655z" />
    <glyph glyph-name="L" unicode="L" horiz-adv-x="1049" 
d="M1022 0h-834v1366h121v-1255h713v-111z" />
    <glyph glyph-name="M" unicode="M" horiz-adv-x="1686" 
d="M1495 0h-115v1165l-479 -1165h-119l-479 1163v-1163h-115v1366h148l508 -1225l504 1227h147v-1368z" />
    <glyph glyph-name="N" unicode="N" horiz-adv-x="1333" 
d="M1143 0h-137l-703 1184v-1184h-115v1366h136l704 -1182v1182h115v-1366z" />
    <glyph glyph-name="O" unicode="O" horiz-adv-x="1372" 
d="M1208 686q0 -268 -16 -369q-31 -167 -135 -245q-119 -88 -371 -88q-250 0 -369 88q-104 78 -135 243q-20 103 -20 369t18 367q31 166 135 241q119 88 369 88q252 0 371 -86q104 -75 135 -241q18 -101 18 -367zM1087 684q0 238 -14 334q-12 78 -51 133q-78 115 -338 115
q-254 0 -336 -117q-37 -55 -49 -133q-16 -96 -16 -334t16 -334q12 -80 49 -135q80 -115 338 -115q256 0 336 117q39 55 51 135q14 96 14 334z" />
    <glyph glyph-name="P" unicode="P" horiz-adv-x="1253" 
d="M1149 993q0 -252 -137 -327q-94 -54 -375 -54h-328v-612h-121v1366h449q285 0 375 -49q137 -74 137 -324zM1028 989q0 191 -113 240q-59 26 -282 26h-324v-532h324q223 0 282 27q113 49 113 239z" />
    <glyph glyph-name="Q" unicode="Q" horiz-adv-x="1372" 
d="M1208 684q0 -350 -45 -469q-73 -188 -332 -223l105 -236l-105 -45l-122 273q-256 -2 -381 79q-109 74 -144 238q-22 109 -22 381q0 268 18 369q31 166 135 241q119 88 369 88q252 0 373 -88q104 -75 133 -241q18 -101 18 -367zM1087 682q0 238 -14 334q-12 80 -51 135
q-78 115 -338 115q-254 0 -336 -117q-37 -55 -49 -135q-16 -96 -16 -334t16 -334q12 -78 49 -133q78 -111 316 -115l-86 199l104 43l102 -238q172 17 238 113q39 55 51 133q14 96 14 334z" />
    <glyph glyph-name="R" unicode="R" horiz-adv-x="1327" 
d="M1149 0h-119v336q0 110 -4 147q-10 60 -45 95.5t-125 44.5q-43 4 -225 4h-322v-627h-121v1366h449q291 0 379 -49q133 -76 133 -338q0 -231 -154 -295q113 -33 144 -149q10 -48 10 -195v-340zM1030 985q0 193 -112 244q-64 26 -285 26h-324v-518h336q232 0 285 23
q100 43 100 225z" />
    <glyph glyph-name="S" unicode="S" horiz-adv-x="1313" 
d="M1167 403q0 -219 -120.5 -319t-393.5 -100q-268 0 -385 82q-125 86 -125 290h119q0 -147 85 -202.5t310 -55.5q224 0 305.5 66.5t81.5 228.5q0 168 -83 213q-58 31 -308 35q-264 4 -354 45q-156 70 -156 305q0 217 119 305q113 84 387 84q269 0 386.5 -83t117.5 -285
h-115q0 164 -108 217q-76 37 -285 37q-225 0 -303 -57.5t-78 -215.5q0 -157 86 -202q64 -33 307 -37q271 -4 355 -43q157 -70 155 -308z" />
    <glyph glyph-name="T" unicode="T" horiz-adv-x="1110" 
d="M1053 1255h-439v-1255h-120v1255h-439v111h998v-111z" />
    <glyph glyph-name="U" unicode="U" horiz-adv-x="1337" 
d="M1155 688q0 -239 2 -237q-6 -162 -35 -234q-90 -233 -454 -233q-365 0 -455 233q-27 72 -33 234q0 -2 0 237v678h121v-678q0 -266 2 -280q4 -121 35 -177q76 -133 330 -133q256 0 329 133q33 56 37 177v280v678h121v-678z" />
    <glyph glyph-name="V" unicode="V" 
d="M1147 1366l-512 -1366h-115l-508 1366h129l441 -1210l440 1210h125z" />
    <glyph glyph-name="W" unicode="W" horiz-adv-x="1792" 
d="M1704 1366l-350 -1366h-129l-330 1188l-330 -1188h-135l-344 1366h125l291 -1176l329 1176h130l327 -1176l297 1176h119z" />
    <glyph glyph-name="X" unicode="X" horiz-adv-x="1139" 
d="M1079 0h-139l-373 596l-368 -596h-142l439 696l-426 670h139l358 -571l359 571h141l-428 -670z" />
    <glyph glyph-name="Y" unicode="Y" horiz-adv-x="1085" 
d="M1075 1366l-473 -766v-600h-121v600l-473 766h137l400 -649l397 649h133z" />
    <glyph glyph-name="Z" unicode="Z" horiz-adv-x="1237" 
d="M1096 0h-957v109l815 1146h-815v111h957v-111l-815 -1144h815v-111z" />
    <glyph glyph-name="bracketleft" unicode="[" horiz-adv-x="606" 
d="M535 -391h-422v2042h422v-105h-308v-1833h308v-104z" />
    <glyph glyph-name="backslash" unicode="\" horiz-adv-x="1069" 
d="M1024 -172h-115l-866 1718h115z" />
    <glyph glyph-name="bracketright" unicode="]" horiz-adv-x="606" 
d="M492 -391h-422v104h307v1833h-307v105h422v-2042z" />
    <glyph glyph-name="asciicircum" unicode="^" 
d="M1071 428l-106 -43l-390 860l-380 -860l-107 43l434 956h111z" />
    <glyph glyph-name="underscore" unicode="_" horiz-adv-x="1034" 
d="M1030 -399h-1024v112h1024v-112z" />
    <glyph glyph-name="grave" unicode="`" horiz-adv-x="852" 
d="M627 1108h-138l-264 258h137z" />
    <glyph glyph-name="a" unicode="a" horiz-adv-x="1094" 
d="M948 0h-112v111q-84 -127 -349 -127q-194 0 -284 69q-97 72 -97 228q0 186 115 256q86 53 277 53h329v33q0 84 -2 108q-8 64 -45 98q-57 58 -239 58q-140 0 -201 -25q-96 -41 -96 -157h-111q0 163 117 233q100 61 307 61q344 0 383 -239q8 -49 8 -195v-565zM827 483h-338
q-139 0 -192 -34q-70 -43 -70 -166q0 -103 57.5 -148t196.5 -45q226 0 295 98q51 74 51 295z" />
    <glyph glyph-name="b" unicode="b" horiz-adv-x="1139" 
d="M1008 494q0 -265 -62 -367q-86 -143 -342 -143q-229 0 -328 135v-119h-114v1427h119v-555q100 127 323 127q260 0 346 -151q58 -103 58 -354zM889 489q0 213 -45 295q-58 103 -230 103q-190 0 -260 -82q-75 -84 -75 -316q0 -229 75 -313q70 -78 260 -78q172 0 230 101
q45 77 45 290z" />
    <glyph glyph-name="c" unicode="c" horiz-adv-x="1069" 
d="M954 279q0 -295 -397 -295q-268 0 -358 137q-70 102 -70 368q0 267 70 371q90 139 358 139q397 0 397 -294h-110q0 110 -90 153q-66 29 -195 29q-203 0 -264 -101q-47 -73 -47 -292q0 -222 47 -295q61 -101 264 -101q131 0 195 29q90 41 90 152h110z" />
    <glyph glyph-name="d" unicode="d" horiz-adv-x="1139" 
d="M975 0h-115v119q-96 -135 -328 -135q-253 0 -339 143q-64 102 -64 367q0 251 59 354q86 151 344 151q226 0 324 -127v555h119v-1427zM858 489q0 232 -71.5 315t-264.5 83q-170 0 -227 -103q-47 -82 -47 -295t47 -290q57 -101 227 -101q193 0 264.5 81t71.5 310z" />
    <glyph glyph-name="e" unicode="e" horiz-adv-x="1098" 
d="M967 463h-719q0 -205 51 -277q66 -92 258 -92q285 0 285 185h110q0 -295 -397 -295q-262 0 -354 133q-72 104 -72 370q0 271 74 377q90 135 346 135q274 0 358 -145q60 -102 60 -391zM852 571q0 181 -63.5 250.5t-239.5 69.5q-166 0 -232.5 -75t-66.5 -245h602z" />
    <glyph glyph-name="f" unicode="f" horiz-adv-x="909" 
d="M887 1219h-117q-8 110 -207 110q-114 0 -166 -33q-59 -41 -59 -145v-168h389v-106h-389v-877h-119v877h-166v106h166v168q0 291 340 291q320 0 328 -223z" />
    <glyph glyph-name="g" unicode="g" horiz-adv-x="1139" 
d="M975 92q0 -174 -8 -227q-39 -262 -424 -262q-389 0 -389 274h114q0 -166 269 -166q290 0 313 185l6 231q-100 -129 -321 -129q-254 0 -342 139q-64 103 -64 365q0 250 66 354q88 143 335 143q232 0 330 -127v111h115v-891zM858 498q0 221 -72.5 305t-263.5 84
q-170 0 -227 -99q-47 -79 -47 -290q0 -209 49 -289q57 -96 225 -96q191 0 263.5 80.5t72.5 304.5z" />
    <glyph glyph-name="h" unicode="h" horiz-adv-x="1102" 
d="M956 0h-118v518q0 223 -23 273q-43 96 -229 96q-205 0 -267 -131q-38 -80 -38 -307v-449h-119v1427h119v-555q100 127 313 127q182 0 268 -69q72 -58 88 -178q6 -50 6 -234v-518z" />
    <glyph glyph-name="i" unicode="i" horiz-adv-x="444" 
d="M301 1303q0 -80 -80 -80q-78 0 -78 80q0 77 78 77q80 0 80 -77zM281 0h-119v983h119v-983z" />
    <glyph glyph-name="j" unicode="j" horiz-adv-x="444" 
d="M301 1303q0 -80 -80 -80q-78 0 -78 80q0 77 78 77q80 0 80 -77zM283 -94q0 -142 -74 -213q-92 -90 -270 -90q-322 0 -328 254h115q4 -148 213 -148q120 0 186 66q39 39 39 178v1030h119v-1077z" />
    <glyph glyph-name="k" unicode="k" horiz-adv-x="963" 
d="M950 0h-166l-503 475v-475h-119v1427h119v-841l499 407h164l-569 -461z" />
    <glyph glyph-name="l" unicode="l" horiz-adv-x="444" 
d="M281 0h-119v1427h119v-1427z" />
    <glyph glyph-name="m" unicode="m" horiz-adv-x="1651" 
d="M1505 0h-119v598q0 162 -26 213q-43 76 -195 76q-184 0 -239 -146q-33 -79 -33 -301v-440h-119v598q0 162 -26 213q-43 76 -195 76q-184 0 -240 -148q-32 -82 -32 -303v-436h-119v983h114v-115q86 131 295 131q228 0 291 -157q105 157 320 157q233 0 297 -155
q26 -66 26 -250v-594z" />
    <glyph glyph-name="n" unicode="n" horiz-adv-x="1102" 
d="M956 0h-118v518q0 223 -23 273q-43 96 -229 96q-205 0 -267 -131q-38 -80 -38 -307v-449h-119v983h114v-115q101 131 318 131q182 0 268 -69q72 -58 88 -178q6 -50 6 -234v-518z" />
    <glyph glyph-name="o" unicode="o" horiz-adv-x="1130" 
d="M999 492q0 -304 -94 -400q-104 -108 -340 -108q-284 0 -377 155q-59 97 -59 353q0 303 94 399q107 108 342 108q285 0 377 -155q57 -96 57 -352zM881 496q0 223 -45 295q-64 96 -271 96q-211 0 -272 -101q-45 -69 -45 -290q0 -222 45 -295q63 -103 272 -103
q211 0 273 105q43 71 43 293z" />
    <glyph glyph-name="p" unicode="p" horiz-adv-x="1139" 
d="M1008 489q0 -251 -58 -354q-86 -151 -346 -151q-223 0 -323 127v-502h-119v1374h114v-119q99 135 328 135q256 0 342 -143q62 -102 62 -367zM889 492q0 213 -45 292q-58 103 -230 103q-190 0 -260 -80q-75 -84 -75 -315q0 -230 75 -314q70 -80 260 -80q172 0 230 101
q45 80 45 293z" />
    <glyph glyph-name="q" unicode="q" horiz-adv-x="1139" 
d="M975 -391h-119v502q-98 -127 -324 -127q-258 0 -344 151q-59 103 -59 354q0 265 64 367q86 143 339 143q232 0 328 -135v119h115v-1374zM858 492q0 231 -71.5 313t-264.5 82q-170 0 -227 -103q-47 -79 -47 -292t47 -293q57 -101 227 -101q193 0 264.5 82t71.5 312z" />
    <glyph glyph-name="r" unicode="r" horiz-adv-x="905" 
d="M877 713h-111q0 100 -47 137t-166 37q-188 0 -244 -156q-28 -80 -28 -305v-426h-119v983h114v-115q99 131 299 131q302 0 302 -286z" />
    <glyph glyph-name="s" unicode="s" horiz-adv-x="1040" 
d="M924 281q0 -162 -101.5 -229.5t-312.5 -67.5q-205 0 -295 65q-98 70 -98 230h110q0 -103 61.5 -142t219.5 -39q164 0 230.5 39t66.5 129q0 121 -53 150q-37 18 -224 24q-215 6 -274 35q-121 51 -121 236q0 161 107 229q94 59 307 59q188 0 278 -61q99 -72 99 -233h-111
q0 100 -57.5 142t-206.5 42q-166 0 -231.5 -37t-65.5 -125q0 -121 59 -147q29 -15 201 -23q233 -10 287 -33q125 -53 125 -243z" />
    <glyph glyph-name="t" unicode="t" horiz-adv-x="930" 
d="M868 279q0 -295 -329 -295q-320 0 -320 292v601h-166v106h166v383h119v-383h448v-106h-448v-601q0 -104 47 -145t158 -41q114 0 164.5 44t50.5 145h110z" />
    <glyph glyph-name="u" unicode="u" horiz-adv-x="1102" 
d="M940 0h-115v115q-100 -131 -317 -131q-256 0 -328 147q-35 74 -35 313v539h119v-518q0 -221 23 -272q43 -99 229 -99q205 0 266 133q39 80 39 308v448h119v-983z" />
    <glyph glyph-name="v" unicode="v" horiz-adv-x="946" 
d="M915 983l-383 -983h-118l-385 983h125l321 -842l316 842h124z" />
    <glyph glyph-name="w" unicode="w" horiz-adv-x="1430" 
d="M1378 983l-297 -983h-125l-243 821l-242 -821h-125l-297 983h123l238 -817l243 817h119l248 -815l235 815h123z" />
    <glyph glyph-name="x" unicode="x" horiz-adv-x="946" 
d="M907 0h-145l-293 414l-295 -414h-137l364 502l-350 481h146l278 -393l283 393h137l-352 -479z" />
    <glyph glyph-name="y" unicode="y" horiz-adv-x="879" 
d="M854 983l-516 -1372h-123l154 403l-361 969h125l299 -825l297 825h125z" />
    <glyph glyph-name="z" unicode="z" horiz-adv-x="981" 
d="M877 0h-775v96l627 781h-627v106h775v-96l-625 -778h625v-109z" />
    <glyph glyph-name="braceleft" unicode="{" horiz-adv-x="752" 
d="M674 -391q-174 0 -250 76q-64 63 -86 151q-12 60 -12 174v379q0 29 -87 100.5t-87 139.5q0 55 61 116l111 111q2 2 2 6v428q0 115 12 174q22 88 86 152q76 76 250 76v-105q-121 0 -174 -53q-60 -59 -60 -242v-413q0 -64 -59 -131q-53 -50 -105 -101q-20 -18 0 -37
l115 -108q49 -47 49 -125v-369q0 -182 62 -244q51 -51 172 -51v-104z" />
    <glyph glyph-name="bar" unicode="|" horiz-adv-x="586" 
d="M350 -391h-114v1757h114v-1757z" />
    <glyph glyph-name="braceright" unicode="}" horiz-adv-x="752" 
d="M602 629q0 -68 -87 -139.5t-87 -100.5v-379q0 -114 -14 -174q-23 -88 -84 -151q-78 -76 -250 -76v104q119 0 172 51q61 62 61 244v369q0 78 49 125l115 108q19 19 0 37q-53 51 -106 101q-58 67 -58 131v413q0 183 -59 242q-55 53 -174 53v105q172 0 250 -76
q61 -64 84 -152q14 -59 14 -174v-428q-2 -4 2 -6l111 -111q61 -61 61 -116z" />
    <glyph glyph-name="asciitilde" unicode="~" 
d="M1087 520l-163 -119q-72 -53 -166 -53q-86 0 -152 47q-143 105 -209 105q-51 0 -102 -35l-160 -113l-63 97l166 118q75 54 170 54q84 0 145 -46q145 -104 211 -104q51 0 100 35l162 110z" />
    <glyph glyph-name="Euro" 
d="M1042 295q0 -174 -108 -248q-92 -63 -287 -63q-344 0 -409 272q-19 74 -21 262h-106v109h106v114h-106v109h106q2 125 6 176q10 100 43 168q94 186 381 186q191 0 283 -61q112 -74 112 -248h-116q0 119 -80 164q-62 35 -199 35q-233 0 -285 -160q-24 -82 -26 -260h373
v-109h-373v-114h373v-109h-373q2 -215 37 -295q57 -125 272 -125q141 0 203 33q78 45 78 164h116z" />
    <glyph glyph-name="Euro" unicode="&#x20ac;" 
d="M1042 295q0 -174 -108 -248q-92 -63 -287 -63q-344 0 -409 272q-19 74 -21 262h-106v109h106v114h-106v109h106q2 125 6 176q10 100 43 168q94 186 381 186q191 0 283 -61q112 -74 112 -248h-116q0 119 -80 164q-62 35 -199 35q-233 0 -285 -160q-24 -82 -26 -260h373
v-109h-373v-114h373v-109h-373q2 -215 37 -295q57 -125 272 -125q141 0 203 33q78 45 78 164h116z" />
    <glyph glyph-name="nonbreakingspace" unicode="&#xa0;" horiz-adv-x="586" 
 />
    <glyph glyph-name="exclamdown" unicode="&#xa1;" horiz-adv-x="584" 
d="M373 918q0 -82 -82 -82t-82 82q0 81 82 81t82 -81zM350 -383h-117v977h117v-977z" />
    <glyph glyph-name="cent" unicode="&#xa2;" horiz-adv-x="1069" 
d="M954 279q0 -275 -344 -293v-181h-110v181q-187 10 -279 107t-92 401q0 299 92 396t279 107v181h110v-181q344 -18 344 -292h-110q0 167 -234 182v-791q234 15 234 183h110zM500 96v791q-162 -13 -213 -115q-39 -76 -39 -278q0 -205 39 -281q51 -102 213 -117z" />
    <glyph glyph-name="sterling" unicode="&#xa3;" 
d="M1065 0h-942v111h115v518h-115v108h115v201q0 135 8 180q14 103 73 160q107 102 326 102q186 0 270 -45q132 -67 132 -264h-115q0 123 -74 166q-55 33 -192 33q-195 0 -263 -76q-34 -41 -43 -119q-4 -22 -4 -131v-207h598v-108h-598v-518h709v-111z" />
    <glyph glyph-name="currency" unicode="&#xa4;" 
d="M1042 295q0 -174 -108 -248q-92 -63 -287 -63q-344 0 -409 272q-19 74 -21 262h-106v109h106v114h-106v109h106q2 125 6 176q10 100 43 168q94 186 381 186q191 0 283 -61q112 -74 112 -248h-116q0 119 -80 164q-62 35 -199 35q-233 0 -285 -160q-24 -82 -26 -260h373
v-109h-373v-114h373v-109h-373q2 -215 37 -295q57 -125 272 -125q141 0 203 33q78 45 78 164h116z" />
    <glyph glyph-name="yen" unicode="&#xa5;" horiz-adv-x="1102" 
d="M1067 1366l-307 -516h172v-107h-236l-67 -114h303v-107h-322v-522h-118v522h-322v107h305l-69 114h-236v107h172l-309 516h137l385 -651l379 651h133z" />
    <glyph glyph-name="brokenbar" unicode="&#xa6;" horiz-adv-x="588" 
d="M350 739h-114v627h114v-627zM350 -391h-114v627h114v-627z" />
    <glyph glyph-name="section" unicode="&#xa7;" horiz-adv-x="1159" 
d="M973 100q0 -182 -109 -256q-86 -57 -272 -59q-217 -2 -309 63q-99 72 -99 246h115q0 -112 61.5 -154t231.5 -40q133 0 186 30q76 43 76 170q0 131 -82 168q-47 23 -201 23q-223 0 -305 69.5t-82 223.5q0 180 123 233q-123 57 -123 248q0 182 109 256q86 57 272 59
q215 2 309.5 -65.5t98.5 -243.5h-115q0 113 -61.5 157t-231.5 42q-131 0 -186 -33q-76 -45 -76 -172q0 -131 82 -168q47 -23 201 -23q223 0 305 -69.5t82 -222.5q0 -181 -123 -234q123 -57 123 -248zM854 582q0 123 -82 161q-53 25 -197 25q-141 0 -192 -25
q-80 -38 -80 -159q0 -123 82 -162q53 -25 197 -25q139 0 192 25q80 39 80 160z" />
    <glyph glyph-name="dieresis" unicode="&#xa8;" horiz-adv-x="860" 
d="M731 1288q0 -82 -82 -82t-82 82t82 82t82 -82zM291 1288q0 -82 -82 -82t-82 82t82 82t82 -82z" />
    <glyph glyph-name="copyright" unicode="&#xa9;" horiz-adv-x="1700" 
d="M1536 684q0 -229 -35 -355t-115 -202q-147 -143 -538 -143q-389 0 -539 143q-78 76 -112.5 203t-34.5 358q0 232 34.5 356.5t113.5 200.5t210 107q121 28 328 28q209 0 330 -28q131 -31 209.5 -107t113.5 -201q35 -131 35 -360zM1425 690q0 211 -26 320q-27 98 -88 157
q-115 111 -463 111q-346 0 -463 -111q-59 -57 -84 -161q-29 -111 -29 -324q0 -211 29 -320q25 -98 84 -157q125 -119 463 -119q340 0 463 119q61 59 88 162q26 112 26 323zM1253 510q0 -59 -8 -96q-45 -217 -393 -217q-285 0 -377 155q-53 90 -53 332q0 139 12 201
q19 112 80 178q102 106 338 106q348 0 393 -215q8 -39 8 -96h-108q0 103 -39 139q-72 70 -252 70q-184 0 -258 -78q-35 -37 -47 -94q-14 -64 -14 -211t14 -213q12 -57 47 -94q74 -78 258 -78q178 0 252 72q39 37 39 139h108z" />
    <glyph glyph-name="ordfeminine" unicode="&#xaa;" horiz-adv-x="786" 
d="M698 688h-84v84q-98 -94 -256 -94q-141 0 -206 45q-72 49 -72 160q0 131 86 180q63 39 203 39h231v4q0 113 -37 147.5t-166 34.5q-200 0 -200 -110h-97q0 202 310 202q256 0 284 -170q4 -22 4 -129v-393zM598 1012h-236q-92 0 -131 -21q-53 -28 -53 -106q0 -66 37 -91.5
t139 -25.5q172 0 219 98q17 31 19 47q6 27 6 99z" />
    <glyph glyph-name="guillemotleft" unicode="&#xab;" horiz-adv-x="926" 
d="M834 827q-132 -133 -148 -153q-88 -109 -88 -187q0 -79 84 -182q23 -26 147 -151l-75 -76q-140 139 -172 182q-95 121 -95 225q0 105 97 230q32 43 174 190zM446 827q-131 -133 -147 -153q-88 -109 -88 -187q0 -79 84 -182q22 -26 147 -151l-75 -76q-140 139 -172 182
q-95 121 -95 225q0 105 97 230q32 43 174 190z" />
    <glyph glyph-name="logicalnot" unicode="&#xac;" 
d="M1067 0h-115v637h-860v108h975v-745z" />
    <glyph glyph-name="minus" unicode="&#xad;" 
d="M1067 438h-975v109h975v-109z" />
    <glyph glyph-name="minus" unicode="&#x2212;" 
d="M1067 438h-975v109h975v-109z" />
    <glyph glyph-name="registered" unicode="&#xae;" horiz-adv-x="1098" 
d="M1010 918q0 -277 -95.5 -371t-365.5 -94t-366.5 94t-96.5 373q0 151 20 231q33 129 131.5 179t311.5 50q276 0 368.5 -91t92.5 -371zM930 922q0 239 -72 311t-309 72q-238 0 -309.5 -71t-71.5 -319q0 -241 72.5 -313t308.5 -72q235 0 308 73t73 319zM762 631h-80v166
q0 49 -10 67q-17 25 -64 27q-30 2 -69 2h-111v-262h-82v583h199q71 0 104 -6q113 -20 113 -157q0 -78 -60 -121q60 -39 60 -129v-170zM682 1053q0 55 -17.5 72.5t-125.5 17.5h-113v-180h119q90 0 106 8q31 14 31 82z" />
    <glyph glyph-name="macron" unicode="&#xaf;" horiz-adv-x="860" 
d="M772 1243h-680v103h680v-103z" />
    <glyph glyph-name="macron" unicode="&#x2c9;" horiz-adv-x="860" 
d="M772 1243h-680v103h680v-103z" />
    <glyph glyph-name="degree" unicode="&#xb0;" horiz-adv-x="1163" 
d="M887 1073q0 -164 -73 -239.5t-232 -75.5q-158 0 -233 75.5t-75 239.5t74 235.5t234 71.5q161 0 233 -71.5t72 -235.5zM774 1069q0 117 -39 162t-153 45q-113 0 -154 -45t-41 -162t41 -161t154 -44q114 0 153 44t39 161z" />
    <glyph glyph-name="plusminus" unicode="&#xb1;" 
d="M1069 600h-434v-385h-115v385h-432v109h432v383h115v-383h434v-109zM1092 0h-1024v109h1024v-109z" />
    <glyph glyph-name="twosuperior" unicode="&#xb2;" horiz-adv-x="819" 
d="M653 1143q0 -131 -78 -189q-40 -28 -198 -73q-96 -29 -121 -47q-37 -31 -37 -111v-80h432v-90h-534v190q0 125 100 181q23 12 207 69q74 23 101.5 52.5t27.5 97.5q0 84 -36 114.5t-132 30.5q-82 0 -115 -14q-55 -25 -55 -98h-100q0 204 268 204q139 0 204.5 -53
t65.5 -184z" />
    <glyph glyph-name="threesuperior" unicode="&#xb3;" horiz-adv-x="819" 
d="M666 782q0 -118 -61.5 -178.5t-219.5 -60.5q-270 0 -270 211h98q4 -68 42 -93.5t130 -25.5q107 0 143.5 25.5t36.5 119.5q0 99 -43 129q-33 23 -133 23h-141v92h141q92 0 125 18q43 27 43 109q0 80 -31.5 108.5t-136.5 28.5q-94 0 -132 -25.5t-40 -93.5h-96
q0 211 268 211q141 0 204.5 -52t63.5 -173q0 -139 -82 -178q91 -39 91 -195z" />
    <glyph glyph-name="acute" unicode="&#xb4;" horiz-adv-x="860" 
d="M631 1366l-264 -258h-138l265 258h137z" />
    <glyph glyph-name="mu" unicode="&#xb5;" horiz-adv-x="1120" 
d="M958 0h-114v115q-101 -131 -318 -131q-164 0 -243 77v-452h-119v1374h119v-518q0 -227 26 -281q43 -86 226 -86q204 0 266 131q39 78 39 306v448h118v-983z" />
    <glyph glyph-name="mu" unicode="&#x3bc;" horiz-adv-x="1120" 
d="M958 0h-114v115q-101 -131 -318 -131q-164 0 -243 77v-452h-119v1374h119v-518q0 -227 26 -281q43 -86 226 -86q204 0 266 131q39 78 39 306v448h118v-983z" />
    <glyph glyph-name="paragraph" unicode="&#xb6;" horiz-adv-x="1155" 
d="M926 0h-115v1255h-115v-1255h-114v621q-166 0 -217 8q-121 16 -195 88q-82 80 -82 274q0 320 248 365q59 10 254 10h336v-1366zM582 733v522h-35q-191 0 -250 -32q-92 -52 -92 -226q0 -186 96 -233q59 -31 281 -31z" />
    <glyph glyph-name="periodcentered" unicode="&#xb7;" horiz-adv-x="436" 
d="M299 686q0 -82 -82 -82t-82 82t82 82t82 -82z" />
    <glyph glyph-name="periodcentered" unicode="&#x22c5;" horiz-adv-x="436" 
d="M299 686q0 -82 -82 -82t-82 82t82 82t82 -82z" />
    <glyph glyph-name="periodcentered" unicode="&#x2219;" horiz-adv-x="436" 
d="M299 686q0 -82 -82 -82t-82 82t82 82t82 -82z" />
    <glyph glyph-name="cedilla" unicode="&#xb8;" horiz-adv-x="860" 
d="M580 -238q0 -153 -162 -153q-164 0 -164 137h80q0 -41 18.5 -53t63.5 -12q78 0 78 79q0 56 -45 68q-19 6 -89 6v166h86v-100q134 0 134 -138z" />
    <glyph glyph-name="onesuperior" unicode="&#xb9;" horiz-adv-x="819" 
d="M598 547h-473v88h184v596l-135 -121l-59 66l211 190h86v-731h186v-88z" />
    <glyph glyph-name="ordmasculine" unicode="&#xba;" horiz-adv-x="786" 
d="M711 1030q0 -205 -70 -274q-76 -76 -248 -76q-258 0 -301 172q-16 59 -16 178q0 207 67 275q78 75 250 75q221 0 285 -125q33 -65 33 -225zM612 1030q0 166 -45 212t-174 46q-145 0 -186 -61q-33 -45 -33 -197q0 -151 33 -196q41 -62 186 -62q146 0 187 62q32 47 32 196z
" />
    <glyph glyph-name="guillemotright" unicode="&#xbb;" horiz-adv-x="926" 
d="M823 485q0 -104 -94 -225q-33 -43 -172 -182l-76 76q125 125 148 151q84 103 84 182q0 78 -88 187q-17 20 -148 153l76 78q141 -147 174 -190q96 -125 96 -230zM436 485q0 -104 -94 -225q-33 -43 -172 -182l-76 76q125 125 148 151q84 103 84 182q0 78 -88 187
q-17 20 -148 153l76 78q141 -147 174 -190q96 -125 96 -230z" />
    <glyph glyph-name="onequarter" unicode="&#xbc;" horiz-adv-x="1628" 
d="M1470 215h-124v-215h-99v215h-373v84l381 520h91v-520h124v-84zM1229 1366l-690 -1366h-107l688 1366h109zM598 547h-473v88h184v596l-135 -121l-59 66l211 190h86v-731h186v-88zM1247 299v369l-260 -369h260z" />
    <glyph glyph-name="onehalf" unicode="&#xbd;" horiz-adv-x="1628" 
d="M1552 590q0 -131 -77 -189q-41 -28 -199 -73q-96 -29 -121 -47q-37 -31 -37 -111v-80h432v-90h-534v190q0 125 100 181q23 12 207 69q74 23 101.5 52.5t27.5 97.5q0 84 -36 114.5t-132 30.5q-82 0 -115 -14q-55 -25 -55 -98h-100q0 204 268 204q139 0 204.5 -53
t65.5 -184zM1229 1366l-690 -1366h-107l688 1366h109zM598 547h-473v88h184v596l-135 -121l-59 66l211 190h86v-731h186v-88z" />
    <glyph glyph-name="threequarters" unicode="&#xbe;" horiz-adv-x="1628" 
d="M1470 215h-124v-215h-99v215h-373v84l381 520h91v-520h124v-84zM1229 1366l-690 -1366h-107l688 1366h109zM666 782q0 -118 -61.5 -178.5t-219.5 -60.5q-270 0 -270 211h98q4 -68 42 -93.5t130 -25.5q107 0 143.5 25.5t36.5 119.5q0 99 -43 129q-33 23 -133 23h-141v92
h141q92 0 125 18q43 27 43 109q0 80 -31.5 108.5t-136.5 28.5q-94 0 -132 -25.5t-40 -93.5h-96q0 211 268 211q141 0 204.5 -52t63.5 -173q0 -139 -82 -178q91 -39 91 -195zM1247 299v369l-260 -369h260z" />
    <glyph glyph-name="questiondown" unicode="&#xbf;" horiz-adv-x="870" 
d="M559 918q0 -82 -82 -82t-82 82q0 81 82 81t82 -81zM819 -88q0 -168 -98 -242q-88 -67 -277 -67q-196 0 -288.5 79.5t-92.5 266.5q0 129 54.5 204.5t173.5 127.5q88 38 110 84q19 32 19 143v86h117v-119q0 -170 -95 -242q-84 -43 -170 -86q-92 -57 -92 -198
q0 -133 55.5 -184.5t204.5 -51.5q146 0 206.5 44t60.5 155h112z" />
    <glyph glyph-name="Agrave" unicode="&#xc0;" horiz-adv-x="1260" 
d="M1214 0h-131l-153 403h-608l-152 -403h-127l528 1366h115zM889 510l-262 704l-265 -704h527zM797 1507h-138l-264 258h137z" />
    <glyph glyph-name="Aacute" unicode="&#xc1;" horiz-adv-x="1260" 
d="M1214 0h-131l-153 403h-608l-152 -403h-127l528 1366h115zM889 510l-262 704l-265 -704h527zM864 1765l-264 -258h-138l265 258h137z" />
    <glyph glyph-name="Acircumflex" unicode="&#xc2;" horiz-adv-x="1260" 
d="M1214 0h-131l-153 403h-608l-152 -403h-127l528 1366h115zM889 510l-262 704l-265 -704h527zM947 1507h-138l-178 170l-178 -170h-137l272 258h86z" />
    <glyph glyph-name="Atilde" unicode="&#xc3;" horiz-adv-x="1260" 
d="M1214 0h-131l-153 403h-608l-152 -403h-127l528 1366h115zM889 510l-262 704l-265 -704h527zM1004 1673l-127 -68q-62 -32 -125 -32q-61 0 -113 30q-34 21 -67 41q-39 21 -72 21q-31 0 -61 -17l-136 -71l-47 92q60 33 121 65q72 33 131 33q58 0 113 -31q102 -59 139 -59
q31 0 64 16l133 72z" />
    <glyph glyph-name="Adieresis" unicode="&#xc4;" horiz-adv-x="1257" 
d="M1214 0h-131l-153 403h-608l-152 -403h-127l528 1366h115zM889 510l-262 704l-265 -704h527zM928 1687q0 -82 -82 -82t-82 82t82 82t82 -82zM488 1687q0 -82 -82 -82t-82 82t82 82t82 -82z" />
    <glyph glyph-name="Aring" unicode="&#xc5;" horiz-adv-x="1260" 
d="M1214 0h-131l-153 403h-608l-152 -403h-127l494 1280q-150 25 -150 233q0 123 55.5 172.5t186.5 49.5t187 -53.5t56 -180.5q0 -203 -151 -223zM768 1499q0 86 -26.5 113.5t-112.5 27.5q-88 0 -112.5 -28.5t-24.5 -112.5q0 -104 49 -123q26 -10 90 -10q86 0 111.5 25.5
t25.5 107.5zM889 510l-262 704l-265 -704h527z" />
    <glyph glyph-name="AE" unicode="&#xc6;" horiz-adv-x="1862" 
d="M1704 0h-770v414h-514l-277 -414h-135l912 1366h784v-111h-651v-499h630v-109h-630v-536h651v-111zM934 520v674l-447 -674h447z" />
    <glyph glyph-name="Ccedilla" unicode="&#xc7;" horiz-adv-x="1313" 
d="M1169 352q0 -194 -103 -278t-335 -90v-86q133 0 133 -138q0 -153 -162 -153q-163 0 -163 137h79q0 -41 23 -55q16 -11 59 -11q78 0 78 80q0 56 -45 68q-16 6 -88 6v152q-229 10 -340 98q-96 76 -125 237q-18 103 -18 363q0 268 20 373q33 164 140 239q122 86 374 86
q250 0 361.5 -83t111.5 -285h-114q0 145 -78 199.5t-299 54.5q-250 0 -328 -111q-37 -55 -51 -135q-16 -100 -16 -338t16 -338q14 -78 51 -133q80 -113 328 -113q221 0 299 54.5t78 199.5h114z" />
    <glyph glyph-name="Egrave" unicode="&#xc8;" horiz-adv-x="1200" 
d="M1042 0h-854v1366h854v-111h-735v-499h715v-109h-715v-536h735v-111zM779 1507h-138l-264 258h137z" />
    <glyph glyph-name="Eacute" unicode="&#xc9;" horiz-adv-x="1200" 
d="M1042 0h-854v1366h854v-111h-735v-499h715v-109h-715v-536h735v-111zM836 1765l-264 -258h-138l265 258h137z" />
    <glyph glyph-name="Ecircumflex" unicode="&#xca;" horiz-adv-x="1200" 
d="M1042 0h-854v1366h854v-111h-735v-499h715v-109h-715v-536h735v-111zM953 1507h-138l-178 170l-178 -170h-137l272 258h86z" />
    <glyph glyph-name="Edieresis" unicode="&#xcb;" horiz-adv-x="1200" 
d="M1042 0h-854v1366h854v-111h-735v-499h715v-109h-715v-536h735v-111zM907 1685q0 -82 -82 -82t-82 82t82 82t82 -82zM467 1685q0 -82 -82 -82t-82 82t82 82t82 -82z" />
    <glyph glyph-name="Igrave" unicode="&#xcc;" horiz-adv-x="561" 
d="M344 0h-121v1366h121v-1366zM476 1507h-138l-264 258h137z" />
    <glyph glyph-name="Iacute" unicode="&#xcd;" horiz-adv-x="561" 
d="M346 0h-121v1366h121v-1366zM499 1765l-264 -258h-138l265 258h137z" />
    <glyph glyph-name="Icircumflex" unicode="&#xce;" horiz-adv-x="561" 
d="M346 0h-121v1366h121v-1366zM602 1507h-138l-178 170l-178 -170h-137l272 258h86z" />
    <glyph glyph-name="Idieresis" unicode="&#xcf;" horiz-adv-x="561" 
d="M346 0h-121v1366h121v-1366zM589 1687q0 -82 -82 -82t-82 82t82 82t82 -82zM149 1687q0 -82 -82 -82t-82 82t82 82t82 -82z" />
    <glyph glyph-name="Eth" unicode="&#xd0;" horiz-adv-x="1413" 
d="M1249 682q0 -190 -6 -262q-16 -158 -74 -248q-59 -96 -161.5 -134t-294.5 -38h-477v633h-166v108h166v625h477q190 0 293.5 -38t162 -131t74.5 -253q6 -72 6 -262zM1128 682q0 356 -71 463q-39 59 -111 82q-80 26 -246 26h-344v-512h371v-108h-371v-520h344
q166 0 242 23.5t115 82.5q71 105 71 463z" />
    <glyph glyph-name="Ntilde" unicode="&#xd1;" horiz-adv-x="1333" 
d="M1143 0h-137l-703 1184v-1184h-115v1366h136l704 -1182v1182h115v-1366zM1043 1673l-127 -68q-62 -32 -125 -32q-61 0 -113 30q-34 21 -67 41q-39 21 -72 21q-31 0 -61 -17l-136 -71l-47 92q60 33 121 65q72 33 131 33q58 0 113 -31q102 -59 139 -59q31 0 64 16l133 72z
" />
    <glyph glyph-name="Ograve" unicode="&#xd2;" horiz-adv-x="1372" 
d="M1208 686q0 -268 -16 -369q-31 -167 -135 -245q-119 -88 -371 -88q-250 0 -369 88q-104 78 -135 243q-20 103 -20 369t18 367q31 166 135 241q119 88 369 88q252 0 371 -86q104 -75 135 -241q18 -101 18 -367zM1087 684q0 238 -14 334q-12 78 -51 133q-78 115 -338 115
q-254 0 -336 -117q-37 -55 -49 -133q-16 -96 -16 -334t16 -334q12 -80 49 -135q80 -115 338 -115q256 0 336 117q39 55 51 135q14 96 14 334zM895 1507h-138l-264 258h137z" />
    <glyph glyph-name="Oacute" unicode="&#xd3;" horiz-adv-x="1372" 
d="M1208 686q0 -268 -16 -369q-31 -167 -135 -245q-119 -88 -371 -88q-250 0 -369 88q-104 78 -135 243q-20 103 -20 369t18 367q31 166 135 241q119 88 369 88q252 0 371 -86q104 -75 135 -241q18 -101 18 -367zM1087 684q0 238 -14 334q-12 78 -51 133q-78 115 -338 115
q-254 0 -336 -117q-37 -55 -49 -133q-16 -96 -16 -334t16 -334q12 -80 49 -135q80 -115 338 -115q256 0 336 117q39 55 51 135q14 96 14 334zM877 1765l-264 -258h-138l265 258h137z" />
    <glyph glyph-name="Ocircumflex" unicode="&#xd4;" horiz-adv-x="1372" 
d="M1208 686q0 -268 -16 -369q-31 -167 -135 -245q-119 -88 -371 -88q-250 0 -369 88q-104 78 -135 243q-20 103 -20 369t18 367q31 166 135 241q119 88 369 88q252 0 371 -86q104 -75 135 -241q18 -101 18 -367zM1087 684q0 238 -14 334q-12 78 -51 133q-78 115 -338 115
q-254 0 -336 -117q-37 -55 -49 -133q-16 -96 -16 -334t16 -334q12 -80 49 -135q80 -115 338 -115q256 0 336 117q39 55 51 135q14 96 14 334zM1002 1507h-138l-178 170l-178 -170h-137l272 258h86z" />
    <glyph glyph-name="Otilde" unicode="&#xd5;" horiz-adv-x="1372" 
d="M1208 686q0 -268 -16 -369q-31 -167 -135 -245q-119 -88 -371 -88q-250 0 -369 88q-104 78 -135 243q-20 103 -20 369t18 367q31 166 135 241q119 88 369 88q252 0 371 -86q104 -75 135 -241q18 -101 18 -367zM1087 684q0 238 -14 334q-12 78 -51 133q-78 115 -338 115
q-254 0 -336 -117q-37 -55 -49 -133q-16 -96 -16 -334t16 -334q12 -80 49 -135q80 -115 338 -115q256 0 336 117q39 55 51 135q14 96 14 334zM1061 1673l-127 -68q-62 -32 -125 -32q-61 0 -113 30q-34 21 -67 41q-39 21 -72 21q-31 0 -61 -17l-136 -71l-47 92q60 33 121 65
q72 33 131 33q58 0 113 -31q102 -59 139 -59q31 0 64 16l133 72z" />
    <glyph glyph-name="Odieresis" unicode="&#xd6;" horiz-adv-x="1372" 
d="M1208 686q0 -268 -16 -369q-31 -167 -135 -245q-119 -88 -371 -88q-250 0 -369 88q-104 78 -135 243q-20 103 -20 369t18 367q31 166 135 241q119 88 369 88q252 0 371 -86q104 -75 135 -241q18 -101 18 -367zM1087 684q0 238 -14 334q-12 78 -51 133q-78 115 -338 115
q-254 0 -336 -117q-37 -55 -49 -133q-16 -96 -16 -334t16 -334q12 -80 49 -135q80 -115 338 -115q256 0 336 117q39 55 51 135q14 96 14 334zM987 1687q0 -82 -82 -82t-82 82t82 82t82 -82zM547 1687q0 -82 -82 -82t-82 82t82 82t82 -82z" />
    <glyph glyph-name="multiply" unicode="&#xd7;" 
d="M1047 129l-78 -78l-389 389l-387 -389l-78 78l389 387l-389 389l78 78l387 -389l389 389l78 -78l-390 -389z" />
    <glyph glyph-name="Oslash" unicode="&#xd8;" horiz-adv-x="1372" 
d="M1208 682q-2 -268 -20 -369q-33 -168 -135 -243q-121 -88 -371 -86q-53 0 -96 4l-64 -277l-106 21l63 272q-219 47 -280 234q-37 116 -35 450q2 268 20 367q31 166 135 241q121 86 371 84q49 0 94 -4l62 271l106 -23l-59 -264q215 -47 276 -221q41 -117 39 -457z
M1087 680q3 238 -12 334q-12 80 -49 135q-51 76 -160 98l-256 -1147q25 -2 72 -2q254 -2 336 115q39 55 51 133q16 96 18 334zM760 1264q-25 2 -70 2q-256 2 -338 -115q-51 -72 -63 -227q-2 -33 -4 -238q-2 -237 12 -334q12 -82 49 -137q51 -76 158 -98z" />
    <glyph glyph-name="Ugrave" unicode="&#xd9;" horiz-adv-x="1337" 
d="M1155 688q0 -239 2 -237q-6 -162 -35 -234q-90 -233 -454 -233q-365 0 -455 233q-27 72 -33 234q0 -2 0 237v678h121v-678q0 -266 2 -280q4 -121 35 -177q76 -133 330 -133q256 0 329 133q33 56 37 177v280v678h121v-678zM850 1505h-138l-264 258h137z" />
    <glyph glyph-name="Uacute" unicode="&#xda;" horiz-adv-x="1337" 
d="M1155 688q0 -239 2 -237q-6 -162 -35 -234q-90 -233 -454 -233q-365 0 -455 233q-27 72 -33 234q0 -2 0 237v678h121v-678q0 -266 2 -280q4 -121 35 -177q76 -133 330 -133q256 0 329 133q33 56 37 177v280v678h121v-678zM918 1765l-264 -258h-138l265 258h137z" />
    <glyph glyph-name="Ucircumflex" unicode="&#xdb;" horiz-adv-x="1337" 
d="M1155 688q0 -239 2 -237q-6 -162 -35 -234q-90 -233 -454 -233q-365 0 -455 233q-27 72 -33 234q0 -2 0 237v678h121v-678q0 -266 2 -280q4 -121 35 -177q76 -133 330 -133q256 0 329 133q33 56 37 177v280v678h121v-678zM1002 1507h-138l-178 170l-178 -170h-137
l272 258h86z" />
    <glyph glyph-name="Udieresis" unicode="&#xdc;" horiz-adv-x="1337" 
d="M1155 688q0 -239 2 -237q-6 -162 -35 -234q-90 -233 -454 -233q-365 0 -455 233q-27 72 -33 234q0 -2 0 237v678h121v-678q0 -266 2 -280q4 -121 35 -177q76 -133 330 -133q256 0 329 133q33 56 37 177v280v678h121v-678zM977 1687q0 -82 -82 -82t-82 82t82 82t82 -82z
M537 1687q0 -82 -82 -82t-82 82t82 82t82 -82z" />
    <glyph glyph-name="Yacute" unicode="&#xdd;" horiz-adv-x="1085" 
d="M1075 1366l-473 -766v-600h-121v600l-473 766h137l400 -649l397 649h133zM752 1765l-264 -258h-138l265 258h137z" />
    <glyph glyph-name="Thorn" unicode="&#xde;" horiz-adv-x="1253" 
d="M1149 688q0 -252 -137 -328q-94 -53 -375 -53h-328v-307h-121v1366h121v-305h328q285 0 375 -49q137 -74 137 -324zM1028 684q0 190 -113 240q-59 26 -282 26h-324v-532h324q223 0 282 26q113 50 113 240z" />
    <glyph glyph-name="germandbls" unicode="&#xdf;" horiz-adv-x="1159" 
d="M1008 401q0 -233 -127 -327q-99 -74 -308 -74h-155v104h160q170 0 239.5 60.5t71.5 228.5q0 187 -76 252q-68 62 -252 62h-143v106h143q176 0 256 61q60 46 60 201q0 148 -61.5 200t-237.5 52q-197 0 -256 -82q-39 -59 -39 -244v-1001h-119v995q0 215 41 293
q86 154 373 154q221 0 319 -82t98 -279q0 -247 -153 -321q92 -37 131 -127q35 -82 35 -232z" />
    <glyph glyph-name="agrave" unicode="&#xe0;" horiz-adv-x="1094" 
d="M948 0h-112v111q-84 -127 -349 -127q-194 0 -284 69q-97 72 -97 228q0 186 115 256q86 53 277 53h329v33q0 84 -2 108q-8 64 -45 98q-57 58 -239 58q-140 0 -201 -25q-96 -41 -96 -157h-111q0 163 117 233q100 61 307 61q344 0 383 -239q8 -49 8 -195v-565zM827 483h-338
q-139 0 -192 -34q-70 -43 -70 -166q0 -103 57.5 -148t196.5 -45q226 0 295 98q51 74 51 295zM731 1108h-138l-264 258h137z" />
    <glyph glyph-name="aacute" unicode="&#xe1;" horiz-adv-x="1094" 
d="M948 0h-112v111q-84 -127 -349 -127q-194 0 -284 69q-97 72 -97 228q0 186 115 256q86 53 277 53h329v33q0 84 -2 108q-8 64 -45 98q-57 58 -239 58q-140 0 -201 -25q-96 -41 -96 -157h-111q0 163 117 233q100 61 307 61q344 0 383 -239q8 -49 8 -195v-565zM827 483h-338
q-139 0 -192 -34q-70 -43 -70 -166q0 -103 57.5 -148t196.5 -45q226 0 295 98q51 74 51 295zM770 1366l-264 -258h-138l265 258h137z" />
    <glyph glyph-name="acircumflex" unicode="&#xe2;" horiz-adv-x="1094" 
d="M948 0h-112v111q-84 -127 -349 -127q-194 0 -284 69q-97 72 -97 228q0 186 115 256q86 53 277 53h329v33q0 84 -2 108q-8 64 -45 98q-57 58 -239 58q-140 0 -201 -25q-96 -41 -96 -157h-111q0 163 117 233q100 61 307 61q344 0 383 -239q8 -49 8 -195v-565zM827 483h-338
q-139 0 -192 -34q-70 -43 -70 -166q0 -103 57.5 -148t196.5 -45q226 0 295 98q51 74 51 295zM865 1108h-138l-178 170l-178 -170h-137l272 258h86z" />
    <glyph glyph-name="atilde" unicode="&#xe3;" horiz-adv-x="1094" 
d="M948 0h-112v111q-84 -127 -349 -127q-194 0 -284 69q-97 72 -97 228q0 186 115 256q86 53 277 53h329v33q0 84 -2 108q-8 64 -45 98q-57 58 -239 58q-140 0 -201 -25q-96 -41 -96 -157h-111q0 163 117 233q100 61 307 61q344 0 383 -239q8 -49 8 -195v-565zM827 483h-338
q-139 0 -192 -34q-70 -43 -70 -166q0 -103 57.5 -148t196.5 -45q226 0 295 98q51 74 51 295zM914 1274l-127 -68q-62 -32 -125 -32q-61 0 -113 30q-34 21 -67 41q-39 21 -72 21q-31 0 -61 -17l-136 -71l-47 92q60 33 121 65q72 33 131 33q58 0 113 -31q102 -59 139 -59
q31 0 64 16l133 72z" />
    <glyph glyph-name="adieresis" unicode="&#xe4;" horiz-adv-x="1094" 
d="M948 0h-112v111q-84 -127 -349 -127q-194 0 -284 69q-97 72 -97 228q0 186 115 256q86 53 277 53h329v33q0 84 -2 108q-8 64 -45 98q-57 58 -239 58q-140 0 -201 -25q-96 -41 -96 -157h-111q0 163 117 233q100 61 307 61q344 0 383 -239q8 -49 8 -195v-565zM827 483h-338
q-139 0 -192 -34q-70 -43 -70 -166q0 -103 57.5 -148t196.5 -45q226 0 295 98q51 74 51 295zM848 1288q0 -82 -82 -82t-82 82t82 82t82 -82zM408 1288q0 -82 -82 -82t-82 82t82 82t82 -82z" />
    <glyph glyph-name="aring" unicode="&#xe5;" horiz-adv-x="1094" 
d="M952 0h-112v111q-84 -127 -348 -127q-386 0 -386 297q0 186 117 256q88 53 279 53h329v33q0 84 -2 108q-8 64 -45 98q-59 60 -239 60q-139 0 -201 -27q-96 -41 -96 -157h-111q0 235 219 274q-45 33 -45 164q0 123 55.5 173t186.5 50q133 0 188.5 -49t55.5 -174
q0 -133 -52 -168q170 -37 199 -215q8 -49 8 -195v-565zM694 1128q0 89 -26.5 117.5t-114.5 28.5t-113.5 -30t-25.5 -116q0 -108 51 -124q29 -11 90 -11q88 0 113.5 25.5t25.5 109.5zM831 483h-337q-140 0 -193 -34q-70 -43 -70 -166q0 -103 57.5 -148t196.5 -45
q226 0 295 98q51 74 51 295z" />
    <glyph glyph-name="ae" unicode="&#xe6;" horiz-adv-x="1802" 
d="M1671 475h-719q0 -207 52 -282q65 -99 258 -99q284 0 284 185h111q0 -125 -64 -189q-106 -106 -340 -106q-295 0 -362 180q-94 -180 -399 -180q-195 0 -287 67q-99 70 -99 225q0 187 117 256q88 54 279 54h334v32q0 164 -48 211q-57 58 -243 58q-142 0 -203 -25
q-98 -41 -98 -157h-111q0 163 119 233q102 61 309 61q273 0 350 -143q90 143 342 143t344 -116q74 -99 74 -344v-64zM1556 584q0 178 -62 240.5t-241 62.5q-168 0 -233.5 -67.5t-65.5 -235.5h602zM836 479h-342q-140 0 -195 -35q-72 -43 -72 -165q0 -103 58.5 -146
t199.5 -43q226 0 297 96q54 74 54 293z" />
    <glyph glyph-name="ccedilla" unicode="&#xe7;" horiz-adv-x="1069" 
d="M954 279q0 -283 -358 -295v-84q133 0 133 -138q0 -153 -162 -153q-164 0 -164 137h80q0 -41 23 -55q16 -10 59 -10q78 0 78 79q0 56 -45 68q-16 6 -88 6v150q-191 8 -286 103t-95 402q0 267 70 371q90 139 358 139q397 0 397 -294h-110q0 110 -90 153q-66 29 -195 29
q-203 0 -264 -101q-47 -73 -47 -292q0 -222 47 -297q61 -103 264 -103q285 0 285 185h110z" />
    <glyph glyph-name="egrave" unicode="&#xe8;" horiz-adv-x="1098" 
d="M967 463h-719q0 -205 51 -277q66 -92 258 -92q285 0 285 185h110q0 -295 -397 -295q-262 0 -354 133q-72 104 -72 370q0 271 74 377q90 135 346 135q274 0 358 -145q60 -102 60 -391zM852 571q0 181 -63.5 250.5t-239.5 69.5q-166 0 -232.5 -75t-66.5 -245h602zM727 1108
h-138l-264 258h137z" />
    <glyph glyph-name="eacute" unicode="&#xe9;" horiz-adv-x="1098" 
d="M967 463h-719q0 -205 51 -277q66 -92 258 -92q285 0 285 185h110q0 -295 -397 -295q-262 0 -354 133q-72 104 -72 370q0 271 74 377q90 135 346 135q274 0 358 -145q60 -102 60 -391zM852 571q0 181 -63.5 250.5t-239.5 69.5q-166 0 -232.5 -75t-66.5 -245h602zM768 1366
l-264 -258h-138l265 258h137z" />
    <glyph glyph-name="ecircumflex" unicode="&#xea;" horiz-adv-x="1098" 
d="M967 463h-719q0 -205 51 -277q66 -92 258 -92q285 0 285 185h110q0 -295 -397 -295q-262 0 -354 133q-72 104 -72 370q0 271 74 377q90 135 346 135q274 0 358 -145q60 -102 60 -391zM852 571q0 181 -63.5 250.5t-239.5 69.5q-166 0 -232.5 -75t-66.5 -245h602zM863 1108
h-138l-178 170l-178 -170h-137l272 258h86z" />
    <glyph glyph-name="edieresis" unicode="&#xeb;" horiz-adv-x="1098" 
d="M967 463h-719q0 -205 51 -277q66 -92 258 -92q285 0 285 185h110q0 -295 -397 -295q-262 0 -354 133q-72 104 -72 370q0 271 74 377q90 135 346 135q274 0 358 -145q60 -102 60 -391zM852 571q0 181 -63.5 250.5t-239.5 69.5q-166 0 -232.5 -75t-66.5 -245h602zM848 1288
q0 -82 -82 -82t-82 82t82 82t82 -82zM408 1288q0 -82 -82 -82t-82 82t82 82t82 -82z" />
    <glyph glyph-name="igrave" unicode="&#xec;" horiz-adv-x="436" 
d="M289 0h-119v983h119v-983zM427 1108h-138l-264 258h137z" />
    <glyph glyph-name="iacute" unicode="&#xed;" horiz-adv-x="438" 
d="M289 0h-119v983h119v-983zM427 1366l-264 -258h-138l265 258h137z" />
    <glyph glyph-name="icircumflex" unicode="&#xee;" horiz-adv-x="436" 
d="M289 0h-119v983h119v-983zM540 1108h-138l-178 170l-178 -170h-137l272 258h86z" />
    <glyph glyph-name="idieresis" unicode="&#xef;" horiz-adv-x="436" 
d="M289 0h-119v983h119v-983zM525 1288q0 -82 -82 -82t-82 82t82 82t82 -82zM85 1288q0 -82 -82 -82t-82 82t82 82t82 -82z" />
    <glyph glyph-name="eth" unicode="&#xf0;" horiz-adv-x="1126" 
d="M995 492q0 -304 -94 -400q-104 -108 -340 -108q-235 0 -342 108q-59 64 -80 191q-10 67 -10 211q0 247 64 354q90 151 339 151q78 0 134 -12l-215 215l-123 -88l-64 72l117 88l-107 110l82 68l113 -115l127 95l63 -74l-120 -92l276 -285q113 -115 146.5 -210t33.5 -279z
M877 492q0 223 -80 311q-74 82 -260 84q-183 2 -246 -113q-47 -82 -47 -282q0 -222 45 -295q63 -103 272 -103q211 0 273 105q43 71 43 293z" />
    <glyph glyph-name="ntilde" unicode="&#xf1;" horiz-adv-x="1102" 
d="M956 0h-118v518q0 223 -23 273q-43 96 -229 96q-205 0 -267 -131q-38 -80 -38 -307v-449h-119v983h114v-115q101 131 318 131q182 0 268 -69q72 -58 88 -178q6 -50 6 -234v-518zM926 1274l-127 -68q-62 -32 -125 -32q-61 0 -113 30q-34 21 -67 41q-39 21 -72 21
q-31 0 -61 -17l-136 -71l-47 92q60 33 121 65q72 33 131 33q58 0 113 -31q102 -59 139 -59q31 0 64 16l133 72z" />
    <glyph glyph-name="ograve" unicode="&#xf2;" horiz-adv-x="1130" 
d="M999 492q0 -304 -94 -400q-104 -108 -340 -108q-284 0 -377 155q-59 97 -59 353q0 303 94 399q107 108 342 108q285 0 377 -155q57 -96 57 -352zM881 496q0 223 -45 295q-64 96 -271 96q-211 0 -272 -101q-45 -69 -45 -290q0 -222 45 -295q63 -103 272 -103
q211 0 273 105q43 71 43 293zM785 1108h-138l-264 258h137z" />
    <glyph glyph-name="oacute" unicode="&#xf3;" horiz-adv-x="1130" 
d="M999 492q0 -304 -94 -400q-104 -108 -340 -108q-284 0 -377 155q-59 97 -59 353q0 303 94 399q107 108 342 108q285 0 377 -155q57 -96 57 -352zM881 496q0 223 -45 295q-64 96 -271 96q-211 0 -272 -101q-45 -69 -45 -290q0 -222 45 -295q63 -103 272 -103
q211 0 273 105q43 71 43 293zM748 1366l-264 -258h-138l265 258h137z" />
    <glyph glyph-name="ocircumflex" unicode="&#xf4;" horiz-adv-x="1130" 
d="M999 492q0 -304 -94 -400q-104 -108 -340 -108q-284 0 -377 155q-59 97 -59 353q0 303 94 399q107 108 342 108q285 0 377 -155q57 -96 57 -352zM881 496q0 223 -45 295q-64 96 -271 96q-211 0 -272 -101q-45 -69 -45 -290q0 -222 45 -295q63 -103 272 -103
q211 0 273 105q43 71 43 293zM883 1108h-138l-178 170l-178 -170h-137l272 258h86z" />
    <glyph glyph-name="otilde" unicode="&#xf5;" horiz-adv-x="1130" 
d="M999 492q0 -304 -94 -400q-104 -108 -340 -108q-284 0 -377 155q-59 97 -59 353q0 303 94 399q107 108 342 108q285 0 377 -155q57 -96 57 -352zM881 496q0 223 -45 295q-64 96 -271 96q-211 0 -272 -101q-45 -69 -45 -290q0 -222 45 -295q63 -103 272 -103
q211 0 273 105q43 71 43 293zM940 1274l-127 -68q-62 -32 -125 -32q-61 0 -113 30q-34 21 -67 41q-39 21 -72 21q-31 0 -61 -17l-136 -71l-47 92q60 33 121 65q72 33 131 33q58 0 113 -31q102 -59 139 -59q31 0 64 16l133 72z" />
    <glyph glyph-name="odieresis" unicode="&#xf6;" horiz-adv-x="1130" 
d="M999 492q0 -304 -94 -400q-104 -108 -340 -108q-284 0 -377 155q-59 97 -59 353q0 303 94 399q107 108 342 108q285 0 377 -155q57 -96 57 -352zM881 496q0 223 -45 295q-64 96 -271 96q-211 0 -272 -101q-45 -69 -45 -290q0 -222 45 -295q63 -103 272 -103
q211 0 273 105q43 71 43 293zM866 1288q0 -82 -82 -82t-82 82t82 82t82 -82zM426 1288q0 -82 -82 -82t-82 82t82 82t82 -82z" />
    <glyph glyph-name="divide" unicode="&#xf7;" 
d="M662 918q0 -82 -82 -82t-82 82q0 81 82 81t82 -81zM1067 438h-975v109h975v-109zM662 66q0 -82 -82 -82t-82 82q0 81 82 81t82 -81z" />
    <glyph glyph-name="oslash" unicode="&#xf8;" horiz-adv-x="1130" 
d="M999 487q-2 -141 -12 -208q-20 -125 -84 -189q-106 -108 -342 -106q-63 0 -117 8l-67 -191l-107 37l66 180q-70 27 -115 76q-92 96 -90 402q2 141 12 209q21 124 84 188q107 108 344 106q58 0 113 -8l66 185l104 -37l-61 -174q69 -27 116 -76q92 -96 90 -402zM883 494
q2 159 -17 229q-28 100 -112 135l-269 -756q31 -4 78 -4q209 -2 273 103q45 71 47 293zM645 885q-35 4 -76 4q-211 2 -274 -101q-43 -69 -45 -292q-2 -164 16 -234q27 -96 113 -131z" />
    <glyph glyph-name="ugrave" unicode="&#xf9;" horiz-adv-x="1102" 
d="M940 0h-115v115q-100 -131 -317 -131q-256 0 -328 147q-35 74 -35 313v539h119v-518q0 -221 23 -272q43 -99 229 -99q205 0 266 133q39 80 39 308v448h119v-983zM729 1108h-138l-264 258h137z" />
    <glyph glyph-name="uacute" unicode="&#xfa;" horiz-adv-x="1102" 
d="M940 0h-115v115q-100 -131 -317 -131q-256 0 -328 147q-35 74 -35 313v539h119v-518q0 -221 23 -272q43 -99 229 -99q205 0 266 133q39 80 39 308v448h119v-983zM774 1366l-264 -258h-138l265 258h137z" />
    <glyph glyph-name="ucircumflex" unicode="&#xfb;" horiz-adv-x="1102" 
d="M940 0h-115v115q-100 -131 -317 -131q-256 0 -328 147q-35 74 -35 313v539h119v-518q0 -221 23 -272q43 -99 229 -99q205 0 266 133q39 80 39 308v448h119v-983zM869 1108h-138l-178 170l-178 -170h-137l272 258h86z" />
    <glyph glyph-name="udieresis" unicode="&#xfc;" horiz-adv-x="1100" 
d="M940 0h-115v115q-100 -131 -317 -131q-256 0 -328 147q-35 74 -35 313v539h119v-518q0 -221 23 -272q43 -99 229 -99q205 0 266 133q39 80 39 308v448h119v-983zM852 1288q0 -82 -82 -82t-82 82t82 82t82 -82zM412 1288q0 -82 -82 -82t-82 82t82 82t82 -82z" />
    <glyph glyph-name="yacute" unicode="&#xfd;" horiz-adv-x="879" 
d="M854 983l-516 -1372h-123l154 403l-361 969h125l299 -825l297 825h125zM645 1366l-264 -258h-138l265 258h137z" />
    <glyph glyph-name="thorn" unicode="&#xfe;" horiz-adv-x="1139" 
d="M1008 489q0 -251 -58 -354q-86 -151 -346 -151q-223 0 -323 127v-502h-119v1818h119v-557q102 129 323 129q256 0 342 -143q62 -102 62 -367zM889 492q0 213 -45 292q-58 103 -230 103q-190 0 -260 -80q-75 -84 -75 -315q0 -230 75 -314q70 -80 260 -80q172 0 230 101
q45 80 45 293z" />
    <glyph glyph-name="ydieresis" unicode="&#xff;" horiz-adv-x="881" 
d="M856 983l-516 -1372h-123l154 403l-361 969h125l299 -825l297 825h125zM741 1288q0 -82 -82 -82t-82 82t82 82t82 -82zM301 1288q0 -82 -82 -82t-82 82t82 82t82 -82z" />
    <glyph glyph-name="dotlessi" unicode="&#x131;" horiz-adv-x="440" 
d="M283 0h-119v983h119v-983z" />
    <glyph glyph-name="Lslash" unicode="&#x141;" horiz-adv-x="1087" 
d="M1061 0h-834v580l-110 -115l-76 74l186 192v635h121v-530l158 159l74 -73l-232 -238v-573h713v-111z" />
    <glyph glyph-name="lslash" unicode="&#x142;" horiz-adv-x="444" 
d="M467 895l-184 -205v-690h-119v588l-111 -121l-76 70l187 202v688h119v-585l112 125z" />
    <glyph glyph-name="OE" unicode="&#x152;" horiz-adv-x="1886" 
d="M1729 0h-1031q-190 0 -292.5 37t-163.5 135q-56 90 -72 250q-8 72 -8 262t8 262q16 158 74.5 251t161 131t292.5 38h1031v-111h-668v-499h647v-109h-647v-536h668v-111zM942 111v1144h-233q-162 0 -244 -26q-74 -25 -115 -84q-67 -98 -67 -461q0 -213 15 -310.5
t54 -154.5t116 -82.5t241 -25.5h233z" />
    <glyph glyph-name="oe" unicode="&#x153;" horiz-adv-x="1849" 
d="M1718 463h-719q0 -205 52 -277q65 -92 258 -92q284 0 284 185h111q0 -125 -64 -189q-106 -106 -340 -106q-292 0 -362 184q-68 -184 -373 -184q-284 0 -377 155q-59 97 -59 353q0 303 94 399q107 108 346 108q301 0 369 -186q70 186 362 186q273 0 359 -145
q59 -102 59 -391zM1604 571q0 181 -63.5 248.5t-240.5 67.5q-165 0 -232 -73t-67 -243h603zM881 496q0 223 -45 295q-64 96 -271 96q-209 0 -272 -101q-45 -71 -45 -290q0 -222 45 -295q63 -103 272 -103q211 0 273 105q43 71 43 293z" />
    <glyph glyph-name="Scaron" unicode="&#x160;" horiz-adv-x="1313" 
d="M1167 403q0 -219 -120.5 -319t-393.5 -100q-268 0 -385 82q-125 86 -125 290h119q0 -147 85 -202.5t310 -55.5q224 0 305.5 66.5t81.5 228.5q0 168 -83 213q-58 31 -308 35q-264 4 -354 45q-156 70 -156 305q0 217 119 305q113 84 387 84q269 0 386.5 -83t117.5 -285
h-115q0 164 -108 217q-76 37 -285 37q-225 0 -303 -57.5t-78 -215.5q0 -157 86 -202q64 -33 307 -37q271 -4 355 -43q157 -70 155 -308zM973 1745l-273 -258h-86l-272 258h137l178 -170l178 170h138z" />
    <glyph glyph-name="scaron" unicode="&#x161;" horiz-adv-x="1040" 
d="M924 281q0 -162 -101.5 -229.5t-312.5 -67.5q-205 0 -295 65q-98 70 -98 230h110q0 -103 61.5 -142t219.5 -39q164 0 230.5 39t66.5 129q0 121 -53 150q-37 18 -224 24q-215 6 -274 35q-121 51 -121 236q0 161 107 229q94 59 307 59q188 0 278 -61q99 -72 99 -233h-111
q0 100 -57.5 142t-206.5 42q-166 0 -231.5 -37t-65.5 -125q0 -121 59 -147q29 -15 201 -23q233 -10 287 -33q125 -53 125 -243zM844 1366l-273 -258h-86l-272 258h137l178 -170l178 170h138z" />
    <glyph glyph-name="Ydieresis" unicode="&#x178;" horiz-adv-x="1087" 
d="M1077 1366l-473 -766v-600h-121v600l-473 766h137l400 -649l397 649h133zM848 1687q0 -82 -82 -82t-82 82t82 82t82 -82zM408 1687q0 -82 -82 -82t-82 82t82 82t82 -82z" />
    <glyph glyph-name="Zcaron" unicode="&#x17d;" horiz-adv-x="1237" 
d="M932 1745l-273 -258h-86l-272 258h137l178 -170l179 170h137zM1096 0h-957v109l813 1144h-813v113h957v-111l-813 -1142h813v-113z" />
    <glyph glyph-name="zcaron" unicode="&#x17e;" horiz-adv-x="981" 
d="M877 0h-775v96l627 781h-627v106h775v-96l-625 -778h625v-109zM807 1366l-273 -258h-86l-272 258h137l178 -170l178 170h138z" />
    <glyph glyph-name="florin" unicode="&#x192;" 
d="M1065 1071h-115q0 123 -73 166q-56 33 -193 33q-195 0 -262 -76q-35 -41 -43 -119q-4 -22 -4 -131v-207h598v-108h-598v-1020h-119v1020h-115v108h115v201q0 135 8 180q15 103 74 160q106 102 326 102q186 0 270 -45q131 -67 131 -264z" />
    <glyph glyph-name="circumflex" unicode="&#x2c6;" horiz-adv-x="860" 
d="M748 1108h-138l-178 170l-178 -170h-137l272 258h86z" />
    <glyph glyph-name="caron" unicode="&#x2c7;" horiz-adv-x="860" 
d="M748 1366l-273 -258h-86l-272 258h137l178 -170l178 170h138z" />
    <glyph glyph-name="breve" unicode="&#x2d8;" horiz-adv-x="860" 
d="M717 1366q0 -160 -88 -215q-64 -41 -197 -41q-162 0 -223.5 58.5t-61.5 197.5h113q0 -96 31 -124t141 -28q109 0 140.5 28t31.5 124h113z" />
    <glyph glyph-name="dotaccent" unicode="&#x2d9;" horiz-adv-x="862" 
d="M514 1288q0 -82 -82 -82t-82 82t82 82t82 -82z" />
    <glyph glyph-name="ring" unicode="&#x2da;" horiz-adv-x="862" 
d="M649 1280q0 -125 -47 -177t-170 -52t-171 52t-48 177q0 121 49 171t170 50q119 0 168 -50t49 -171zM557 1278q0 82 -21.5 108.5t-103.5 26.5t-104.5 -26.5t-22.5 -108.5q0 -86 21.5 -112.5t105.5 -26.5q82 0 105 30q20 25 20 109z" />
    <glyph glyph-name="ogonek" unicode="&#x2db;" horiz-adv-x="860" 
d="M594 -258q0 -74 -38 -103.5t-124 -29.5q-104 0 -141 61q-23 39 -23 133q0 115 39 156t146 41v-72q-72 0 -88 -26q-13 -19 -13 -101q0 -71 10 -92q15 -28 70 -28q43 0 57 8q23 12 23 53h82z" />
    <glyph glyph-name="tilde" unicode="&#x2dc;" horiz-adv-x="860" 
d="M805 1274l-127 -68q-62 -32 -125 -32q-61 0 -113 30q-34 21 -67 41q-39 21 -72 21q-31 0 -61 -17l-136 -71l-47 92q60 33 121 65q72 33 131 33q58 0 113 -31q102 -59 139 -59q31 0 64 16l133 72z" />
    <glyph glyph-name="hungarumlaut" unicode="&#x2dd;" horiz-adv-x="860" 
d="M854 1366l-258 -258h-137l258 258h137zM403 1366l-258 -258h-137l258 258h137z" />
    <glyph glyph-name="Delta" unicode="&#x394;" horiz-adv-x="1485" 
d="M1409 616h-1130l546 -540l-77 -78l-674 672l674 673l77 -77l-546 -539h1130v-111z" />
    <glyph glyph-name="Delta" unicode="&#x2206;" horiz-adv-x="1485" 
d="M1409 616h-1130l546 -540l-77 -78l-674 672l674 673l77 -77l-546 -539h1130v-111z" />
    <glyph glyph-name="Omega" unicode="&#x3a9;" horiz-adv-x="1485" 
d="M1231 903l-803 -801l770 4v-106h-948v952h106l-4 -772l801 801z" />
    <glyph glyph-name="Omega" unicode="&#x2126;" horiz-adv-x="1485" 
d="M1231 903l-803 -801l770 4v-106h-948v952h106l-4 -772l801 801z" />
    <glyph glyph-name="pi" unicode="&#x3c0;" horiz-adv-x="1485" 
d="M1231 463l-78 -78l-801 801l4 -772h-106v952h948v-106l-770 4z" />
    <glyph glyph-name="endash" unicode="&#x2013;" 
d="M1092 438h-1024v109h1024v-109z" />
    <glyph glyph-name="emdash" unicode="&#x2014;" horiz-adv-x="2058" 
d="M1847 438h-1638v109h1638v-109z" />
    <glyph glyph-name="quoteleft" unicode="&#x2018;" horiz-adv-x="436" 
d="M383 1315q-82 -74 -94 -98q-19 -31 -19 -119v-166h-108v166q0 84 14 129q21 55 76 104l61 53z" />
    <glyph glyph-name="quoteright" unicode="&#x2019;" horiz-adv-x="436" 
d="M272 1200q0 -84 -14 -129q-20 -55 -76 -104l-61 -54l-70 70q82 74 97.5 101.5t15.5 115.5v166h108v-166z" />
    <glyph glyph-name="quotesinglbase" unicode="&#x201a;" horiz-adv-x="436" 
d="M272 -23q0 -83 -14 -129q-20 -55 -76 -104l-61 -53l-70 69q82 74 97.5 101.5t15.5 115.5v166h108v-166z" />
    <glyph glyph-name="quotedblleft" unicode="&#x201c;" horiz-adv-x="768" 
d="M715 1315q-82 -74 -94 -98q-19 -31 -19 -119v-166h-108v166q0 84 14 129q20 55 76 104l61 53zM383 1315q-82 -74 -94 -98q-19 -31 -19 -119v-166h-108v166q0 84 14 129q21 55 76 104l61 53z" />
    <glyph glyph-name="quotedblright" unicode="&#x201d;" horiz-adv-x="768" 
d="M604 1200q0 -84 -14 -129q-21 -55 -76 -104l-61 -54l-70 70q82 74 97.5 101.5t15.5 115.5v166h108v-166zM272 1200q0 -84 -14 -129q-20 -55 -76 -104l-61 -54l-70 70q82 74 97.5 101.5t15.5 115.5v166h108v-166z" />
    <glyph glyph-name="quotedblbase" unicode="&#x201e;" horiz-adv-x="768" 
d="M604 -23q0 -83 -14 -129q-21 -55 -76 -104l-61 -53l-70 69q82 74 97.5 101.5t15.5 115.5v166h108v-166zM272 -23q0 -83 -14 -129q-20 -55 -76 -104l-61 -53l-70 69q82 74 97.5 101.5t15.5 115.5v166h108v-166z" />
    <glyph glyph-name="dagger" unicode="&#x2020;" horiz-adv-x="1159" 
d="M942 877h-305v-1063h-117v1063h-305v106h305v383h117v-383h305v-106z" />
    <glyph glyph-name="daggerdbl" unicode="&#x2021;" horiz-adv-x="1159" 
d="M942 410h-305v-596h-117v596h-305v106h305v361h-305v106h305v383h117v-383h305v-106h-305v-361h305v-106z" />
    <glyph glyph-name="bullet" unicode="&#x2022;" horiz-adv-x="1032" 
d="M707 684q0 -190 -191 -190q-192 0 -192 190q0 193 192 193q191 0 191 -193z" />
    <glyph glyph-name="ellipsis" unicode="&#x2026;" horiz-adv-x="2060" 
d="M1796 66q0 -82 -82 -82t-82 82q0 81 82 81t82 -81zM1112 66q0 -82 -82 -82t-82 82q0 81 82 81t82 -81zM430 66q0 -82 -82 -82t-82 82q0 81 82 81t82 -81z" />
    <glyph glyph-name="perthousand" unicode="&#x2030;" horiz-adv-x="2447" 
d="M2279 397q0 -225 -26 -288q-51 -125 -242 -125q-190 0 -242 131q-26 63 -26 282q0 217 26 283q52 129 242 129q193 0 244 -131q24 -62 24 -281zM1604 397q0 -225 -27 -288q-51 -125 -242 -125q-190 0 -241 131q-27 63 -27 282q0 217 27 283q51 129 241 129
q193 0 244 -131q25 -62 25 -281zM1292 1366l-690 -1366h-106l688 1366h108zM705 969q0 -226 -27 -289q-51 -125 -242 -125q-190 0 -241 131q-27 64 -27 283q0 217 27 282q51 129 241 129q193 0 244 -131q25 -61 25 -280zM2177 397q0 211 -20 254q-29 62 -146 62
q-125 0 -149 -78q-15 -45 -15 -238q0 -211 21 -256q28 -63 143 -63q127 0 152 80q14 45 14 239zM1501 397q0 211 -20 254q-29 62 -146 62q-125 0 -149 -78q-15 -45 -15 -238q0 -211 21 -256q29 -63 143 -63q127 0 152 80q14 45 14 239zM602 969q0 211 -20 254
q-29 61 -146 61q-125 0 -149 -78q-15 -45 -15 -237q0 -211 21 -256q29 -64 143 -64q127 0 152 80q14 45 14 240z" />
    <glyph glyph-name="guilsinglleft" unicode="&#x2039;" horiz-adv-x="539" 
d="M446 827q-129 -133 -145 -153q-90 -109 -90 -187q0 -79 86 -182q22 -26 145 -151l-75 -76q-138 139 -172 182q-95 121 -95 225q0 105 99 230q32 43 172 190z" />
    <glyph glyph-name="guilsinglright" unicode="&#x203a;" horiz-adv-x="539" 
d="M436 485q0 -104 -92 -225q-35 -43 -174 -182l-76 76q125 125 148 151q84 103 84 182q0 78 -88 187q-17 20 -148 153l76 78q141 -147 174 -190q96 -125 96 -230z" />
    <glyph glyph-name="fraction" unicode="&#x2044;" horiz-adv-x="598" 
d="M698 1366l-690 -1366h-106l688 1366h108z" />
    <glyph glyph-name="trademark" unicode="&#x2122;" horiz-adv-x="1747" 
d="M1616 475h-96v709l-275 -709h-108l-271 707v-707h-98v891h129l295 -764l299 764h125v-891zM684 1276h-268v-801h-103v801h-268v90h639v-90z" />
    <glyph glyph-name="partialdiff" unicode="&#x2202;" horiz-adv-x="1309" 
d="M887 1219h-117q-8 110 -207 110q-114 0 -166 -33q-59 -41 -59 -145v-168h389v-106h-389v-877h-119v877h-166v106h166v168q0 291 340 291q320 0 328 -223zM983 -94q0 -142 -74 -213q-92 -90 -270 -90q-320 0 -328 254h115q4 -148 213 -148q121 0 186 66q39 39 39 178v1030
h119v-1077z" />
    <glyph glyph-name="product" unicode="&#x220f;" horiz-adv-x="1485" 
d="M1231 414h-107l4 772l-800 -801l-78 78l803 801l-770 -4v106h948v-952z" />
    <glyph glyph-name="summation" unicode="&#x2211;" horiz-adv-x="911" 
 />
    <glyph glyph-name="radical" unicode="&#x221a;" horiz-adv-x="1485" 
d="M1415 674l-674 -674l-671 674l77 78l541 -547v1130h111v-1130l538 547z" />
    <glyph glyph-name="infinity" unicode="&#x221e;" horiz-adv-x="1491" 
d="M1419 662l-78 -78l-538 546v-1130h-111v1130l-540 -546l-78 78l671 673z" />
    <glyph glyph-name="integral" unicode="&#x222b;" horiz-adv-x="1485" 
d="M1231 0h-948v106l770 -4l-803 801l78 78l800 -801l-4 772h107v-952z" />
    <glyph glyph-name="approxequal" unicode="&#x2248;" 
d="M1087 727l-163 -119q-72 -53 -166 -53q-86 0 -152 47q-143 105 -209 105q-51 0 -102 -35l-160 -113l-63 96l166 119q75 53 170 53q84 0 145 -45q145 -104 211 -104q51 0 100 35l162 110zM1087 330l-163 -119q-72 -53 -166 -53q-86 0 -152 47q-143 104 -209 104
q-51 0 -102 -35l-160 -112l-63 96l166 119q75 53 170 53q84 0 145 -45q145 -104 211 -104q51 0 100 34l162 111z" />
    <glyph glyph-name="approxequal" unicode="&#x22f2;" 
d="M1087 727l-163 -119q-72 -53 -166 -53q-86 0 -152 47q-143 105 -209 105q-51 0 -102 -35l-160 -113l-63 96l166 119q75 53 170 53q84 0 145 -45q145 -104 211 -104q51 0 100 35l162 110zM1087 330l-163 -119q-72 -53 -166 -53q-86 0 -152 47q-143 104 -209 104
q-51 0 -102 -35l-160 -112l-63 96l166 119q75 53 170 53q84 0 145 -45q145 -104 211 -104q51 0 100 34l162 111z" />
    <glyph glyph-name="notequal" unicode="&#x2260;" 
d="M1067 242h-670l-229 -222l-76 76l154 146h-154v108h264l297 287h-561v108h674l225 218l76 -76l-149 -142h149v-108h-260l-297 -287h557v-108z" />
    <glyph glyph-name="lessequal" unicode="&#x2264;" 
d="M1087 322l-43 -107l-956 385v111l956 381l43 -107l-860 -328zM1092 0h-1024v109h1024v-109z" />
    <glyph glyph-name="greaterequal" unicode="&#x2265;" 
d="M1071 600l-956 -385l-43 107l860 335l-860 328l43 107l956 -381v-111zM1092 0h-1024v109h1024v-109z" />
    <glyph glyph-name="lozenge" unicode="&#x25ca;" horiz-adv-x="1485" 
d="M1409 670l-674 -672l-78 78l547 540h-1130v111h1130l-547 539l78 77z" />
    <glyph glyph-name="apple" unicode="&#xf000;" horiz-adv-x="1704" 
d="M1540 684q0 -227 -35 -356q-35 -121 -116 -199q-150 -143 -541 -143q-389 0 -541 143q-78 76 -111.5 202t-33.5 357q0 232 33.5 355.5t111.5 199.5q144 137 541 137q399 0 541 -137q81 -78 116 -201q35 -129 35 -358zM1423 690q0 209 -26 320q-27 96 -88 155
q-111 107 -461 107q-348 0 -461 -107q-80 -78 -100 -227q-8 -57 -8 -256q0 -213 26 -320q23 -98 81 -153t177 -86v520h-127v102h127v105q0 291 322 291q327 0 332 -273h-115q-2 88 -51.5 126t-161.5 38q-107 0 -158 -41t-51 -141v-105h444v-102h-444v-541q80 -8 168 -8
q344 0 459.5 111.5t115.5 484.5z" />
    <glyph glyph-name="fi" unicode="&#xf001;" horiz-adv-x="1141" 
d="M983 0h-119v983h119v-983zM887 1219h-117q-8 110 -207 110q-114 0 -166 -33q-59 -41 -59 -145v-168h389v-106h-389v-877h-119v877h-166v106h166v168q0 291 340 291q320 0 328 -223z" />
    <glyph glyph-name="fl" unicode="&#xf002;" horiz-adv-x="1303" 
d="M1141 0h-119v1427h119v-1427zM887 1219h-117q-8 110 -207 110q-114 0 -166 -33q-59 -41 -59 -145v-168h389v-106h-389v-877h-119v877h-166v106h166v168q0 291 340 291q320 0 328 -223z" />
    <glyph glyph-name="glyph219" horiz-adv-x="1024" 
 />
    <glyph glyph-name="HT" horiz-adv-x="1034" 
 />
    <glyph glyph-name="LF" horiz-adv-x="1034" 
 />
    <glyph glyph-name="nonmarkingreturn" horiz-adv-x="1034" 
 />
    <glyph glyph-name="DLE" horiz-adv-x="1034" 
 />
    <glyph glyph-name="DC1" horiz-adv-x="1034" 
 />
    <glyph glyph-name="DC2" horiz-adv-x="1034" 
 />
    <glyph glyph-name="DC3" horiz-adv-x="1034" 
 />
    <glyph glyph-name="DC4" horiz-adv-x="1034" 
 />
    <glyph glyph-name="RS" horiz-adv-x="1034" 
 />
    <glyph glyph-name="US" horiz-adv-x="1034" 
 />
    <glyph glyph-name="DEL" horiz-adv-x="1034" 
 />
    <glyph glyph-name="glyph260" horiz-adv-x="1034" 
 />
    <glyph glyph-name=".null" horiz-adv-x="0" 
 />
    </font>
</defs>
</svg>
