<svg id="logoLoader" xmlns="http://www.w3.org/2000/svg" viewBox="0 0 707.43 105.61">
  <g id="layer_1" data-name="Layer 1">
    <path d="M76.19,55.17c0,9.93-.11,16.5-.28,19.81q-1.69,30.63-37.78,30.58T.28,75C.11,71.66,0,65,0,55.17V6.3H21.14V51.74c0,15.09.51,24,1.46,26.82q2.78,7.74,15.52,7.74c8.49,0,13.66-2.52,15.52-7.63C54.6,75.81,55,66.84,55,51.74V6.3H76.19Z" style="fill: #fff"/>
    <path d="M144.28,37.6c0-6.17-1.63-9.87-4.84-11.11-2-.79-7.37-1.23-16.19-1.23H109.87V49.95h13.38c9.05,0,14.39-.34,16.08-1C142.59,47.59,144.28,43.83,144.28,37.6Zm21.14-.28c0,13.24-4.27,22.22-12.76,26.82q-8.86,4.8-29.18,4.83H109.81v35.46H88.67V6.3h34.8c13.66,0,23.28,1.46,29,4.38C161.09,15.22,165.42,24.14,165.42,37.32Z" style="fill: #fff"/>
    <polygon points="248.36 25.43 219.63 25.43 219.63 104.43 198.48 104.43 198.48 25.43 169.81 25.43 169.81 6.3 248.41 6.3 248.41 25.43 248.36 25.43" style="fill: #fff"/>
    <polygon points="327.53 104.43 258.65 104.43 258.65 6.3 327.53 6.3 327.53 25.43 279.85 25.43 279.85 44.73 326.12 44.73 326.12 63.81 279.85 63.81 279.85 85.3 327.53 85.3 327.53 104.43" style="fill: #fff"/>
    <path d="M416.93,75.48c0,8.7-2.42,15.49-7.2,20.42-6.35,6.51-17,9.71-31.94,9.71q-19.15,0-28.68-6.9c-5.4-3.93-9-10-10.74-18.12-1-5-1.57-13.52-1.57-25.3s.51-20.14,1.57-25.14C340,22,343.55,16,349,12.19q9.53-6.9,28.68-6.9Q400.45,5.29,410,15c4.61,4.71,6.92,11.5,6.92,20.42H395.62c-.11-3.87-1.24-6.62-3.49-8.19-2.59-1.8-7.37-2.64-14.23-2.64q-12.48,0-16.19,6.06c-2.47,4-3.77,12.29-3.77,24.86s1.24,20.82,3.77,24.86,7.93,6,16.25,6c6.92,0,11.64-.9,14.23-2.64,2.19-1.57,3.37-4.32,3.49-8.19Z" style="fill: #fff"/>
    <g>
      <path d="M455.52,11.35q0,3.74-2.35,5-1.56.83-5.63.83h-3.38v7.67h-3.42V5.61h6.79q4.07,0,5.6.77Q455.52,7.6,455.52,11.35Zm-3.43.06q0-2-1.22-2.52a12.83,12.83,0,0,0-3.39-.25h-3.32v5.47h3.32a12.83,12.83,0,0,0,3.39-.25Q452.09,13.33,452.09,11.41Z" style="fill: #fcfcfc"/>
      <path d="M473.31,24.82h-3.74l-1.8-4.89h-7.56l-1.77,4.89h-3.57l7.5-19.21h3.52ZM466.72,17,464,9.38,461.28,17Z" style="fill: #fcfcfc"/>
      <path d="M490.53,24.82H487.2v-5a6.49,6.49,0,0,0-.18-2q-.23-.58-1.22-.72-.64-.08-3.33-.08h-3.29v7.81h-3.42V5.61h6.79a14.45,14.45,0,0,1,5.63.75q2.35,1.15,2.35,4.78t-1.89,4.26a2.46,2.46,0,0,1,1.74,2,15.41,15.41,0,0,1,.14,2.7Zm-3.36-13.54a2.77,2.77,0,0,0-.58-2,1.77,1.77,0,0,0-.94-.46,22.2,22.2,0,0,0-3.16-.14h-3.32V14h3.52a14.16,14.16,0,0,0,3.49-.23Q487.17,13.31,487.17,11.28Z" style="fill: #fcfcfc"/>
      <path d="M510.43,15.18a20.29,20.29,0,0,1-.61,6,5.29,5.29,0,0,1-4.3,3.63l1.3,2.88-2.67,1.24L502.39,25q-5.08,0-6.71-2.56-1.19-1.9-1.19-7.29a28.91,28.91,0,0,1,.3-5,5.24,5.24,0,0,1,2.09-3.46,9.71,9.71,0,0,1,5.57-1.29A9.88,9.88,0,0,1,508,6.68a5.39,5.39,0,0,1,2.1,3.46A27.91,27.91,0,0,1,510.43,15.18Zm-3.42,0q0-4.21-.82-5.46T502.45,8.5q-2.94,0-3.73,1.25t-.79,5.49a15,15,0,0,0,.58,5.16A2.72,2.72,0,0,0,501.08,22l-1-2.28,2.68-1.18,1.45,3.38a2.7,2.7,0,0,0,2.3-1.76A16.36,16.36,0,0,0,507,15.2Z" style="fill: #fcfcfc"/>
      <path d="M529.14,15.18q0,3-.06,4Q528.76,25,521.77,25t-7.32-5.84q-.07-1-.07-4V5.61h3.43v9.56q0,4.35.41,5.25.64,1.52,3.55,1.52a5,5,0,0,0,2.9-.62,3,3,0,0,0,1-2.17q.06-.6.06-4V5.61h3.43Z" style="fill: #fcfcfc"/>
      <path d="M546.77,24.82H533.44V5.61h13.33v3h-10V13.5h9.67v3H536.8v5.27h10Z" style="fill: #fcfcfc"/>
      <path d="M572.8,15.23q0,2.53-.11,3.63a7.43,7.43,0,0,1-1.13,3.38,5.4,5.4,0,0,1-2.7,2.07,14.54,14.54,0,0,1-4.38.52h-7.21V5.61h7.18a13.84,13.84,0,0,1,4.38.55,5.2,5.2,0,0,1,2.7,2.07,7.71,7.71,0,0,1,1.13,3.4A31.72,31.72,0,0,1,572.8,15.23Zm-3.42,0a15.83,15.83,0,0,0-.45-4.51,2.65,2.65,0,0,0-1.62-1.79,10.53,10.53,0,0,0-3-.3h-3.63V21.77h3.66a10.36,10.36,0,0,0,3-.3,2.56,2.56,0,0,0,1.59-1.75A15.67,15.67,0,0,0,569.38,15.23Z" style="fill: #fcfcfc"/>
      <path d="M590.21,24.82H576.87V5.61h13.33v3h-10V13.5h9.67v3h-9.67v5.27h10Z" style="fill: #fcfcfc"/>
      <path d="M615.81,11h-3.38a2.14,2.14,0,0,0-.84-2,7.06,7.06,0,0,0-3.31-.52q-2.88,0-3.69,1.27t-.81,5.47q0,4.21.78,5.41t3.69,1.29a7.32,7.32,0,0,0,3.33-.5,2.12,2.12,0,0,0,.83-2h3.38a5,5,0,0,1-2,4.43A9.59,9.59,0,0,1,608.52,25a10,10,0,0,1-5.73-1.32,5.42,5.42,0,0,1-2.11-3.52,26.5,26.5,0,0,1-.33-5,26.29,26.29,0,0,1,.33-5,5.41,5.41,0,0,1,2.14-3.49,10,10,0,0,1,5.73-1.32,9.55,9.55,0,0,1,5.28,1.15A5,5,0,0,1,615.81,11Z" style="fill: #fcfcfc"/>
      <path d="M623.17,24.82h-3.42V5.61h3.42Z" style="fill: #fcfcfc"/>
      <path d="M640.93,24.82H627.6V5.61h13.33v3H631V13.5h9.67v3H631v5.27h10ZM639.5,3.66h-3.28l-2.06-2-2,2h-3.33L632.56,0h3.19Z" style="fill: #fcfcfc"/>
      <path d="M659.64,24.82h-3.52l-8-13.8v13.8h-3.19V5.61h3.48l8.09,13.69V5.61h3.19Z" style="fill: #fcfcfc"/>
      <path d="M679.17,11H675.8A2.14,2.14,0,0,0,675,9a7.06,7.06,0,0,0-3.31-.52q-2.88,0-3.69,1.27t-.81,5.47q0,4.21.78,5.41t3.69,1.29a7.32,7.32,0,0,0,3.33-.5,2.12,2.12,0,0,0,.83-2h3.38a5,5,0,0,1-2,4.43A9.59,9.59,0,0,1,671.88,25a10,10,0,0,1-5.73-1.32A5.42,5.42,0,0,1,664,20.21a26.5,26.5,0,0,1-.33-5,26.29,26.29,0,0,1,.33-5,5.41,5.41,0,0,1,2.14-3.49,10,10,0,0,1,5.73-1.32,9.55,9.55,0,0,1,5.28,1.15A5,5,0,0,1,679.17,11Z" style="fill: #fcfcfc"/>
      <path d="M686.53,24.82h-3.42V5.61h3.42Z" style="fill: #fcfcfc"/>
      <path d="M707.43,24.82h-3.74l-1.8-4.89h-7.56l-1.77,4.89H689l7.5-19.21H700ZM700.83,17l-2.7-7.61L695.4,17Z" style="fill: #fcfcfc"/>
      <path d="M454.08,51.27H440.74V32.06h13.34v3h-10v4.87h9.68v3h-9.68v5.27h10Z" style="fill: #fcfcfc"/>
      <path d="M477.59,35.08h-5.9V51.27h-3.42V35.08h-5.9v-3h15.22Z" style="fill: #fcfcfc"/>
      <path d="M493.66,51.27H480.33V32.06h13.34v3h-10v4.87h9.68v3h-9.68v5.27h10Z" style="fill: #fcfcfc"/>
      <path d="M512.73,37.44h-3.38a2.14,2.14,0,0,0-.84-2,7.07,7.07,0,0,0-3.31-.52q-2.88,0-3.69,1.27t-.81,5.47q0,4.21.78,5.41t3.69,1.29a7.32,7.32,0,0,0,3.33-.5,2.12,2.12,0,0,0,.83-2h3.38a5,5,0,0,1-2,4.43,9.6,9.6,0,0,1-5.28,1.15,10,10,0,0,1-5.73-1.32,5.42,5.42,0,0,1-2.11-3.52,26.5,26.5,0,0,1-.33-5,26.28,26.28,0,0,1,.33-5,5.41,5.41,0,0,1,2.14-3.49,10,10,0,0,1,5.73-1.32A9.55,9.55,0,0,1,510.74,33,5,5,0,0,1,512.73,37.44Z" style="fill: #fcfcfc"/>
      <path d="M531.43,51.27h-3.52l-8-13.8v13.8h-3.19V32.06h3.48l8.09,13.69V32.06h3.19Z" style="fill: #fcfcfc"/>
      <path d="M551.45,41.62q0,5.36-1.12,7.23-1.63,2.64-6.84,2.64a9.71,9.71,0,0,1-5.58-1.29,5.37,5.37,0,0,1-2.09-3.52,26.71,26.71,0,0,1-.33-5,28.91,28.91,0,0,1,.3-5,5.24,5.24,0,0,1,2.09-3.46,9.71,9.71,0,0,1,5.58-1.29A9.88,9.88,0,0,1,549,33.13a5.39,5.39,0,0,1,2.1,3.46A27.9,27.9,0,0,1,551.45,41.62Zm-3.42,0q0-4.21-.82-5.46t-3.75-1.25q-2.94,0-3.73,1.25t-.79,5.49q0,4.23.78,5.41t3.75,1.29q2.94,0,3.75-1.27T548,41.65Z" style="fill: #fcfcfc"/>
      <path d="M568.56,51.27h-13V32.06h3.42V48.22h9.62Z" style="fill: #fcfcfc"/>
      <path d="M586,41.62q0,5.36-1.12,7.23-1.63,2.64-6.84,2.64a9.71,9.71,0,0,1-5.58-1.29,5.37,5.37,0,0,1-2.09-3.52,26.71,26.71,0,0,1-.33-5,28.91,28.91,0,0,1,.3-5,5.24,5.24,0,0,1,2.09-3.46A9.71,9.71,0,0,1,578,31.86a9.88,9.88,0,0,1,5.58,1.27,5.39,5.39,0,0,1,2.1,3.46A27.9,27.9,0,0,1,586,41.62Zm-3.42,0q0-4.21-.82-5.46T578,34.94q-2.94,0-3.73,1.25t-.79,5.49q0,4.23.78,5.41T578,48.39q2.94,0,3.75-1.27T582.59,41.65Z" style="fill: #fcfcfc"/>
      <path d="M605.44,51.27h-2.7V49.84q-1.75,1.66-5.53,1.66-5,0-6.55-2.94-.94-1.81-.94-6.91a26.28,26.28,0,0,1,.33-5,5.41,5.41,0,0,1,2.14-3.49A13,13,0,0,1,603.26,33a4.82,4.82,0,0,1,2.16,4.43H602a2.07,2.07,0,0,0-.93-2,7.57,7.57,0,0,0-3.43-.53q-2.88,0-3.69,1.27t-.81,5.47q0,4.18.78,5.43t3.58,1.28q3.08,0,4-1.41a9.17,9.17,0,0,0,.64-4.12h-4.77V39.92h8.07Z" style="fill: #fcfcfc"/>
      <path d="M613.23,51.27h-3.42V32.06h3.42Z" style="fill: #fcfcfc"/>
      <path d="M634.13,51.27h-3.75l-1.8-4.89H621l-1.77,4.89h-3.58l7.51-19.21h3.52Zm-6.6-7.83-2.7-7.61-2.74,7.61Z" style="fill: #fcfcfc"/>
      <path d="M455.73,67.61q0,2.53-.11,3.63a7.44,7.44,0,0,1-1.13,3.38,5.39,5.39,0,0,1-2.69,2.07,14.45,14.45,0,0,1-4.37.52h-7.18V58h7.16a13.76,13.76,0,0,1,4.37.55,5.19,5.19,0,0,1,2.69,2.07,7.73,7.73,0,0,1,1.13,3.4A31.82,31.82,0,0,1,455.73,67.61Zm-3.41,0a15.88,15.88,0,0,0-.45-4.51,2.65,2.65,0,0,0-1.61-1.79,10.47,10.47,0,0,0-3-.3H443.6V74.15h3.65a10.3,10.3,0,0,0,3-.3,2.56,2.56,0,0,0,1.58-1.75A15.72,15.72,0,0,0,452.32,67.61Z" style="fill: #fcfcfc"/>
      <path d="M475.68,77.21h-3.73l-1.8-4.89h-7.54l-1.77,4.89h-3.56L464.77,58h3.51Zm-6.58-7.83-2.69-7.61-2.73,7.61Z" style="fill: #fcfcfc"/>
      <path d="M498.71,67.56q0,3-.06,4-.33,5.84-7.3,5.84t-7.3-5.84q-.07-1-.07-4V58h3.42v9.56q0,4.35.41,5.25.64,1.52,3.54,1.52a5,5,0,0,0,2.89-.62,3,3,0,0,0,1-2.17q.06-.6.06-4V58h3.42Z" style="fill: #fcfcfc"/>
      <path d="M517.7,77.21h-3.51l-8-13.8v13.8H503V58h3.46l8.06,13.69V58h3.18Z" style="fill: #fcfcfc"/>
      <path d="M525.52,77.21h-3.41V58h3.41Z" style="fill: #fcfcfc"/>
      <path d="M545.66,58l-7.27,19.21H535L527.81,58h3.65l5.3,14.92L542.06,58Z" style="fill: #fcfcfc"/>
      <path d="M561.24,77.21H547.95V58h13.29v3H551.3v4.87h9.64v3H551.3v5.27h9.94Z" style="fill: #fcfcfc"/>
      <path d="M579.92,77.21H576.6v-5a6.51,6.51,0,0,0-.18-2q-.23-.58-1.22-.72-.64-.08-3.32-.08h-3.28v7.81h-3.41V58H572a14.36,14.36,0,0,1,5.61.75q2.35,1.15,2.35,4.78T578,67.78a2.46,2.46,0,0,1,1.74,2,15.46,15.46,0,0,1,.14,2.7Zm-3.35-13.54a2.78,2.78,0,0,0-.58-2,1.76,1.76,0,0,0-.93-.46A22.07,22.07,0,0,0,571.9,61h-3.31v5.33h3.51a14.08,14.08,0,0,0,3.48-.23Q576.57,65.69,576.57,63.66Z" style="fill: #fcfcfc"/>
      <path d="M599.22,71.22a5.73,5.73,0,0,1-2,4.72q-1.91,1.5-5.87,1.5a11.11,11.11,0,0,1-5.63-1.11,4.86,4.86,0,0,1-2.14-4.47H587a2.11,2.11,0,0,0,.91,2,7.82,7.82,0,0,0,3.5.53,6.14,6.14,0,0,0,3.56-.72,2.85,2.85,0,0,0,.78-2.31,2.27,2.27,0,0,0-.55-1.79,3,3,0,0,0-1.63-.45q-2.22-.1-4.48-.15a7.26,7.26,0,0,1-3.86-1.15,5,5,0,0,1-1.64-4.18q0-3.22,1.94-4.6,1.77-1.24,5.76-1.24a10.61,10.61,0,0,1,5.6,1.15A4.84,4.84,0,0,1,599,63.38h-3.35a2.16,2.16,0,0,0-1.46-2.28,10.9,10.9,0,0,0-2.93-.25,6.9,6.9,0,0,0-3.56.6,2.62,2.62,0,0,0-.66,2.12,2.08,2.08,0,0,0,.58,1.7,3,3,0,0,0,1.6.44l4.48.17A7.1,7.1,0,0,1,597.6,67,4.87,4.87,0,0,1,599.22,71.22Z" style="fill: #fcfcfc"/>
      <path d="M606.45,77.21H603V58h3.41Z" style="fill: #fcfcfc"/>
      <path d="M626.35,67.61q0,2.53-.11,3.63a7.44,7.44,0,0,1-1.13,3.38,5.39,5.39,0,0,1-2.69,2.07,14.45,14.45,0,0,1-4.37.52h-7.18V58H618a13.76,13.76,0,0,1,4.37.55,5.19,5.19,0,0,1,2.69,2.07,7.73,7.73,0,0,1,1.13,3.4A31.82,31.82,0,0,1,626.35,67.61Zm-3.41,0a15.88,15.88,0,0,0-.45-4.51,2.65,2.65,0,0,0-1.61-1.79,10.47,10.47,0,0,0-3-.3h-3.62V74.15h3.65a10.3,10.3,0,0,0,3-.3,2.56,2.56,0,0,0,1.58-1.75A15.72,15.72,0,0,0,622.94,67.61Z" style="fill: #fcfcfc"/>
      <path d="M646.3,77.21h-3.73l-1.8-4.89h-7.54l-1.77,4.89H627.9L635.38,58h3.51Zm-6.58-7.83L637,61.76l-2.73,7.61Z" style="fill: #fcfcfc"/>
      <path d="M664.22,67.61q0,2.53-.11,3.63A7.44,7.44,0,0,1,663,74.62a5.39,5.39,0,0,1-2.69,2.07,14.45,14.45,0,0,1-4.37.52h-7.18V58h7.16a13.76,13.76,0,0,1,4.37.55,5.19,5.19,0,0,1,2.69,2.07,7.73,7.73,0,0,1,1.13,3.4A31.82,31.82,0,0,1,664.22,67.61Zm-3.41,0a15.88,15.88,0,0,0-.45-4.51,2.65,2.65,0,0,0-1.61-1.79,10.47,10.47,0,0,0-3-.3h-3.62V74.15h3.65a10.3,10.3,0,0,0,3-.3,2.56,2.56,0,0,0,1.58-1.75A15.72,15.72,0,0,0,660.81,67.61Z" style="fill: #fcfcfc"/>
      <path d="M681.57,77.21H668.28V58h13.29v3h-9.94v4.87h9.64v3h-9.64v5.27h9.94Z" style="fill: #fcfcfc"/>
      <path d="M456.25,94.11q0,2.53-.11,3.63a7.43,7.43,0,0,1-1.13,3.38,5.4,5.4,0,0,1-2.69,2.07,14.49,14.49,0,0,1-4.38.52h-7.19V84.49h7.17a13.79,13.79,0,0,1,4.38.55A5.2,5.2,0,0,1,455,87.11a7.72,7.72,0,0,1,1.13,3.4A31.78,31.78,0,0,1,456.25,94.11Zm-3.41,0a15.86,15.86,0,0,0-.45-4.51,2.65,2.65,0,0,0-1.61-1.79,10.5,10.5,0,0,0-3-.3H444.1v13.14h3.65a10.32,10.32,0,0,0,3-.3,2.56,2.56,0,0,0,1.59-1.75A15.7,15.7,0,0,0,452.84,94.11Z" style="fill: #fcfcfc"/>
      <path d="M475.88,94.05q0,5.36-1.12,7.23-1.63,2.64-6.83,2.64a9.68,9.68,0,0,1-5.56-1.29,5.37,5.37,0,0,1-2.08-3.52,26.76,26.76,0,0,1-.33-5,29,29,0,0,1,.3-5,5.24,5.24,0,0,1,2.08-3.46,9.68,9.68,0,0,1,5.56-1.29,9.85,9.85,0,0,1,5.56,1.27,5.39,5.39,0,0,1,2.1,3.46A28,28,0,0,1,475.88,94.05Zm-3.41,0q0-4.21-.81-5.46t-3.75-1.25q-2.93,0-3.72,1.25t-.79,5.49q0,4.23.78,5.41t3.74,1.29q2.93,0,3.75-1.27T472.46,94.08Z" style="fill: #fcfcfc"/>
      <path d="M501.22,90.23q0,3.74-2.35,5-1.56.83-5.62.83h-3.37v7.67h-3.41V84.49h6.78q4.06,0,5.59.77Q501.22,86.47,501.22,90.23Zm-3.43.06q0-2-1.22-2.52a12.79,12.79,0,0,0-3.38-.25h-3.31V93h3.31a12.79,12.79,0,0,0,3.38-.25Q497.8,92.21,497.8,90.29Z" style="fill: #fcfcfc"/>
      <path d="M520,94.05q0,5.36-1.12,7.23-1.63,2.64-6.83,2.64a9.68,9.68,0,0,1-5.56-1.29,5.37,5.37,0,0,1-2.08-3.52,26.76,26.76,0,0,1-.33-5,29,29,0,0,1,.3-5,5.24,5.24,0,0,1,2.08-3.46A9.68,9.68,0,0,1,512,84.29a9.85,9.85,0,0,1,5.56,1.27A5.39,5.39,0,0,1,519.7,89,28,28,0,0,1,520,94.05Zm-3.41,0q0-4.21-.81-5.46T512,87.37q-2.93,0-3.72,1.25t-.79,5.49q0,4.23.78,5.41t3.74,1.29q2.93,0,3.75-1.27T516.6,94.08Z" style="fill: #fcfcfc"/>
      <path d="M538.83,103.7H535.5v-5a6.5,6.5,0,0,0-.18-2q-.23-.58-1.22-.72-.64-.08-3.33-.08h-3.29v7.81h-3.41V84.49h6.78a14.4,14.4,0,0,1,5.62.75q2.35,1.15,2.35,4.78t-1.88,4.26a2.46,2.46,0,0,1,1.74,2,15.44,15.44,0,0,1,.14,2.7Zm-3.36-13.54a2.78,2.78,0,0,0-.58-2,1.77,1.77,0,0,0-.93-.46,22.13,22.13,0,0,0-3.16-.14h-3.31v5.33H531a14.11,14.11,0,0,0,3.48-.23Q535.48,92.18,535.48,90.16Z" style="fill: #fcfcfc"/>
      <path d="M556,87.51h-5.89V103.7h-3.41V87.51h-5.89v-3H556Z" style="fill: #fcfcfc"/>
      <path d="M573.55,94.05q0,5.36-1.12,7.23-1.63,2.64-6.83,2.64a9.68,9.68,0,0,1-5.56-1.29A5.37,5.37,0,0,1,558,99.12a26.76,26.76,0,0,1-.33-5,29,29,0,0,1,.3-5A5.24,5.24,0,0,1,560,85.59a9.68,9.68,0,0,1,5.56-1.29,9.85,9.85,0,0,1,5.56,1.27,5.39,5.39,0,0,1,2.1,3.46A28,28,0,0,1,573.55,94.05Zm-3.41,0q0-4.21-.81-5.46t-3.75-1.25q-2.93,0-3.72,1.25t-.79,5.49q0,4.23.78,5.41t3.74,1.29q2.93,0,3.75-1.27T570.14,94.08Z" style="fill: #fcfcfc"/>
    </g>
  </g>
</svg>
