<svg width="82" height="65" viewBox="0 0 82 65" fill="none" xmlns="http://www.w3.org/2000/svg">
<path d="M42.957 36.9766C42.957 31.1172 43.5755 26.6576 44.8125 23.5977C46.2448 19.7565 49.2396 15.5573 53.7969 11L63.9531 0.84375L81.2383 18.0312L77.2344 22.0352C74.1745 25.0951 72.1237 27.6992 71.082 29.8477C70.1055 31.931 69.6172 35.056 69.6172 39.2227V64.0273H42.957V36.9766ZM0.574219 36.9766C0.574219 31.1172 1.19271 26.6576 2.42969 23.5977C3.86198 19.7565 6.85677 15.5573 11.4141 11L21.5703 0.84375L38.7578 18.0312L34.7539 22.0352C31.694 25.0951 29.6758 27.6992 28.6992 29.8477C27.7227 31.931 27.2344 35.056 27.2344 39.2227V64.0273H0.574219V36.9766Z" fill="#2F2F2F"/>
</svg>
