<?xml version="1.0" encoding="UTF-8"?>
<svg width="4724px" height="205px" viewBox="0 0 4724 205" version="1.1" xmlns="http://www.w3.org/2000/svg" xmlns:xlink="http://www.w3.org/1999/xlink">
    <!-- Generator: Sketch 50.2 (55047) - http://www.bohemiancoding.com/sketch -->
    <title>Artboard</title>
    <desc>Created with Sketch.</desc>
    <defs></defs>
    <g id="Artboard" stroke="none" stroke-width="1" fill="none" fill-rule="evenodd" fill-opacity="0">
        <path d="M98.203125,106.042969 L79.84375,106.042969 L79.84375,137 L53.7695312,137 L53.7695312,106.042969 L-3.1640625,106.042969 L-3.1640625,82.6054688 L52.9882813,3.6015625 L79.84375,3.6015625 L79.84375,82.2148438 L98.203125,82.2148438 L98.203125,106.042969 Z M53.7695312,82.2148438 L53.7695312,40.0273438 L24.9609375,82.2148438 L53.7695312,82.2148438 Z M211.386719,70.3984375 C211.386719,80.4245293 211.126305,88.8879863 210.605469,95.7890625 C209.433588,110.567782 205.364618,121.309862 198.398438,128.015625 C190.976525,135.04691 179.257893,138.5625 163.242188,138.5625 C147.747318,138.5625 136.223996,135.242221 128.671875,128.601562 C122.356739,123.132785 118.28777,114.799535 116.464844,103.601562 C115.488276,97.4817402 115,86.4141426 115,70.3984375 C115,54.3827324 115.488276,43.3151348 116.464844,37.1953125 C118.28777,25.9973398 122.421843,17.6640898 128.867188,12.1953125 C136.2891,5.5546543 147.747318,2.234375 163.242188,2.234375 C178.671952,2.234375 190.195274,5.5546543 197.8125,12.1953125 C204.062531,17.6640898 208.131501,25.9973398 210.019531,37.1953125 C210.930994,43.3151348 211.386719,54.3827324 211.386719,70.3984375 Z M182.871094,70.3984375 C182.871094,53.6014785 182.122403,42.6640879 180.625,37.5859375 C178.476552,30.0989209 172.682339,26.3554688 163.242188,26.3554688 C153.802036,26.3554688 148.007823,30.0989209 145.859375,37.5859375 C144.361972,42.9245059 143.613281,53.8618965 143.613281,70.3984375 C143.613281,87.1953965 144.361972,98.1327871 145.859375,103.210938 C148.007823,110.697954 153.802036,114.441406 163.242188,114.441406 C172.682339,114.441406 178.476552,110.697954 180.625,103.210938 C182.122403,98.1327871 182.871094,87.1953965 182.871094,70.3984375 Z M329.453125,106.042969 L311.09375,106.042969 L311.09375,137 L285.019531,137 L285.019531,106.042969 L228.085938,106.042969 L228.085938,82.6054688 L284.238281,3.6015625 L311.09375,3.6015625 L311.09375,82.2148438 L329.453125,82.2148438 L329.453125,106.042969 Z M285.019531,82.2148438 L285.019531,40.0273438 L256.210938,82.2148438 L285.019531,82.2148438 Z M442.636719,70.3984375 C442.636719,80.4245293 442.376305,88.8879863 441.855469,95.7890625 C440.683588,110.567782 436.614618,121.309862 429.648438,128.015625 C422.226525,135.04691 410.507893,138.5625 394.492188,138.5625 C378.997318,138.5625 367.473996,135.242221 359.921875,128.601562 C353.606739,123.132785 349.53777,114.799535 347.714844,103.601562 C346.738276,97.4817402 346.25,86.4141426 346.25,70.3984375 C346.25,54.3827324 346.738276,43.3151348 347.714844,37.1953125 C349.53777,25.9973398 353.671843,17.6640898 360.117188,12.1953125 C367.5391,5.5546543 378.997318,2.234375 394.492188,2.234375 C409.921952,2.234375 421.445274,5.5546543 429.0625,12.1953125 C435.312531,17.6640898 439.381501,25.9973398 441.269531,37.1953125 C442.180994,43.3151348 442.636719,54.3827324 442.636719,70.3984375 Z M414.121094,70.3984375 C414.121094,53.6014785 413.372403,42.6640879 411.875,37.5859375 C409.726552,30.0989209 403.932339,26.3554688 394.492188,26.3554688 C385.052036,26.3554688 379.257823,30.0989209 377.109375,37.5859375 C375.611972,42.9245059 374.863281,53.8618965 374.863281,70.3984375 C374.863281,87.1953965 375.611972,98.1327871 377.109375,103.210938 C379.257823,110.697954 385.052036,114.441406 394.492188,114.441406 C403.932339,114.441406 409.726552,110.697954 411.875,103.210938 C413.372403,98.1327871 414.121094,87.1953965 414.121094,70.3984375 Z M560.703125,106.042969 L542.34375,106.042969 L542.34375,137 L516.269531,137 L516.269531,106.042969 L459.335938,106.042969 L459.335938,82.6054688 L515.488281,3.6015625 L542.34375,3.6015625 L542.34375,82.2148438 L560.703125,82.2148438 L560.703125,106.042969 Z M516.269531,82.2148438 L516.269531,40.0273438 L487.460938,82.2148438 L516.269531,82.2148438 Z M673.886719,70.3984375 C673.886719,80.4245293 673.626305,88.8879863 673.105469,95.7890625 C671.933588,110.567782 667.864618,121.309862 660.898438,128.015625 C653.476525,135.04691 641.757893,138.5625 625.742188,138.5625 C610.247318,138.5625 598.723996,135.242221 591.171875,128.601562 C584.856739,123.132785 580.78777,114.799535 578.964844,103.601562 C577.988276,97.4817402 577.5,86.4141426 577.5,70.3984375 C577.5,54.3827324 577.988276,43.3151348 578.964844,37.1953125 C580.78777,25.9973398 584.921843,17.6640898 591.367188,12.1953125 C598.7891,5.5546543 610.247318,2.234375 625.742188,2.234375 C641.171952,2.234375 652.695274,5.5546543 660.3125,12.1953125 C666.562531,17.6640898 670.631501,25.9973398 672.519531,37.1953125 C673.430994,43.3151348 673.886719,54.3827324 673.886719,70.3984375 Z M645.371094,70.3984375 C645.371094,53.6014785 644.622403,42.6640879 643.125,37.5859375 C640.976552,30.0989209 635.182339,26.3554688 625.742188,26.3554688 C616.302036,26.3554688 610.507823,30.0989209 608.359375,37.5859375 C606.861972,42.9245059 606.113281,53.8618965 606.113281,70.3984375 C606.113281,87.1953965 606.861972,98.1327871 608.359375,103.210938 C610.507823,110.697954 616.302036,114.441406 625.742188,114.441406 C635.182339,114.441406 640.976552,110.697954 643.125,103.210938 C644.622403,98.1327871 645.371094,87.1953965 645.371094,70.3984375 Z M791.953125,106.042969 L773.59375,106.042969 L773.59375,137 L747.519531,137 L747.519531,106.042969 L690.585938,106.042969 L690.585938,82.6054688 L746.738281,3.6015625 L773.59375,3.6015625 L773.59375,82.2148438 L791.953125,82.2148438 L791.953125,106.042969 Z M747.519531,82.2148438 L747.519531,40.0273438 L718.710938,82.2148438 L747.519531,82.2148438 Z M905.136719,70.3984375 C905.136719,80.4245293 904.876305,88.8879863 904.355469,95.7890625 C903.183588,110.567782 899.114618,121.309862 892.148438,128.015625 C884.726525,135.04691 873.007893,138.5625 856.992188,138.5625 C841.497318,138.5625 829.973996,135.242221 822.421875,128.601562 C816.106739,123.132785 812.03777,114.799535 810.214844,103.601562 C809.238276,97.4817402 808.75,86.4141426 808.75,70.3984375 C808.75,54.3827324 809.238276,43.3151348 810.214844,37.1953125 C812.03777,25.9973398 816.171843,17.6640898 822.617188,12.1953125 C830.0391,5.5546543 841.497318,2.234375 856.992188,2.234375 C872.421952,2.234375 883.945274,5.5546543 891.5625,12.1953125 C897.812531,17.6640898 901.881501,25.9973398 903.769531,37.1953125 C904.680994,43.3151348 905.136719,54.3827324 905.136719,70.3984375 Z M876.621094,70.3984375 C876.621094,53.6014785 875.872403,42.6640879 874.375,37.5859375 C872.226552,30.0989209 866.432339,26.3554688 856.992188,26.3554688 C847.552036,26.3554688 841.757823,30.0989209 839.609375,37.5859375 C838.111972,42.9245059 837.363281,53.8618965 837.363281,70.3984375 C837.363281,87.1953965 838.111972,98.1327871 839.609375,103.210938 C841.757823,110.697954 847.552036,114.441406 856.992188,114.441406 C866.432339,114.441406 872.226552,110.697954 874.375,103.210938 C875.872403,98.1327871 876.621094,87.1953965 876.621094,70.3984375 Z M1023.20312,106.042969 L1004.84375,106.042969 L1004.84375,137 L978.769531,137 L978.769531,106.042969 L921.835938,106.042969 L921.835938,82.6054688 L977.988281,3.6015625 L1004.84375,3.6015625 L1004.84375,82.2148438 L1023.20312,82.2148438 L1023.20312,106.042969 Z M978.769531,82.2148438 L978.769531,40.0273438 L949.960938,82.2148438 L978.769531,82.2148438 Z M1136.38672,70.3984375 C1136.38672,80.4245293 1136.1263,88.8879863 1135.60547,95.7890625 C1134.43359,110.567782 1130.36462,121.309862 1123.39844,128.015625 C1115.97653,135.04691 1104.25789,138.5625 1088.24219,138.5625 C1072.74732,138.5625 1061.224,135.242221 1053.67188,128.601562 C1047.35674,123.132785 1043.28777,114.799535 1041.46484,103.601562 C1040.48828,97.4817402 1040,86.4141426 1040,70.3984375 C1040,54.3827324 1040.48828,43.3151348 1041.46484,37.1953125 C1043.28777,25.9973398 1047.42184,17.6640898 1053.86719,12.1953125 C1061.2891,5.5546543 1072.74732,2.234375 1088.24219,2.234375 C1103.67195,2.234375 1115.19527,5.5546543 1122.8125,12.1953125 C1129.06253,17.6640898 1133.1315,25.9973398 1135.01953,37.1953125 C1135.93099,43.3151348 1136.38672,54.3827324 1136.38672,70.3984375 Z M1107.87109,70.3984375 C1107.87109,53.6014785 1107.1224,42.6640879 1105.625,37.5859375 C1103.47655,30.0989209 1097.68234,26.3554688 1088.24219,26.3554688 C1078.80204,26.3554688 1073.00782,30.0989209 1070.85938,37.5859375 C1069.36197,42.9245059 1068.61328,53.8618965 1068.61328,70.3984375 C1068.61328,87.1953965 1069.36197,98.1327871 1070.85938,103.210938 C1073.00782,110.697954 1078.80204,114.441406 1088.24219,114.441406 C1097.68234,114.441406 1103.47655,110.697954 1105.625,103.210938 C1107.1224,98.1327871 1107.87109,87.1953965 1107.87109,70.3984375 Z M1254.45312,106.042969 L1236.09375,106.042969 L1236.09375,137 L1210.01953,137 L1210.01953,106.042969 L1153.08594,106.042969 L1153.08594,82.6054688 L1209.23828,3.6015625 L1236.09375,3.6015625 L1236.09375,82.2148438 L1254.45312,82.2148438 L1254.45312,106.042969 Z M1210.01953,82.2148438 L1210.01953,40.0273438 L1181.21094,82.2148438 L1210.01953,82.2148438 Z M1367.63672,70.3984375 C1367.63672,80.4245293 1367.3763,88.8879863 1366.85547,95.7890625 C1365.68359,110.567782 1361.61462,121.309862 1354.64844,128.015625 C1347.22653,135.04691 1335.50789,138.5625 1319.49219,138.5625 C1303.99732,138.5625 1292.474,135.242221 1284.92188,128.601562 C1278.60674,123.132785 1274.53777,114.799535 1272.71484,103.601562 C1271.73828,97.4817402 1271.25,86.4141426 1271.25,70.3984375 C1271.25,54.3827324 1271.73828,43.3151348 1272.71484,37.1953125 C1274.53777,25.9973398 1278.67184,17.6640898 1285.11719,12.1953125 C1292.5391,5.5546543 1303.99732,2.234375 1319.49219,2.234375 C1334.92195,2.234375 1346.44527,5.5546543 1354.0625,12.1953125 C1360.31253,17.6640898 1364.3815,25.9973398 1366.26953,37.1953125 C1367.18099,43.3151348 1367.63672,54.3827324 1367.63672,70.3984375 Z M1339.12109,70.3984375 C1339.12109,53.6014785 1338.3724,42.6640879 1336.875,37.5859375 C1334.72655,30.0989209 1328.93234,26.3554688 1319.49219,26.3554688 C1310.05204,26.3554688 1304.25782,30.0989209 1302.10938,37.5859375 C1300.61197,42.9245059 1299.86328,53.8618965 1299.86328,70.3984375 C1299.86328,87.1953965 1300.61197,98.1327871 1302.10938,103.210938 C1304.25782,110.697954 1310.05204,114.441406 1319.49219,114.441406 C1328.93234,114.441406 1334.72655,110.697954 1336.875,103.210938 C1338.3724,98.1327871 1339.12109,87.1953965 1339.12109,70.3984375 Z M1485.70312,106.042969 L1467.34375,106.042969 L1467.34375,137 L1441.26953,137 L1441.26953,106.042969 L1384.33594,106.042969 L1384.33594,82.6054688 L1440.48828,3.6015625 L1467.34375,3.6015625 L1467.34375,82.2148438 L1485.70312,82.2148438 L1485.70312,106.042969 Z M1441.26953,82.2148438 L1441.26953,40.0273438 L1412.46094,82.2148438 L1441.26953,82.2148438 Z M1598.88672,70.3984375 C1598.88672,80.4245293 1598.6263,88.8879863 1598.10547,95.7890625 C1596.93359,110.567782 1592.86462,121.309862 1585.89844,128.015625 C1578.47653,135.04691 1566.75789,138.5625 1550.74219,138.5625 C1535.24732,138.5625 1523.724,135.242221 1516.17188,128.601562 C1509.85674,123.132785 1505.78777,114.799535 1503.96484,103.601562 C1502.98828,97.4817402 1502.5,86.4141426 1502.5,70.3984375 C1502.5,54.3827324 1502.98828,43.3151348 1503.96484,37.1953125 C1505.78777,25.9973398 1509.92184,17.6640898 1516.36719,12.1953125 C1523.7891,5.5546543 1535.24732,2.234375 1550.74219,2.234375 C1566.17195,2.234375 1577.69527,5.5546543 1585.3125,12.1953125 C1591.56253,17.6640898 1595.6315,25.9973398 1597.51953,37.1953125 C1598.43099,43.3151348 1598.88672,54.3827324 1598.88672,70.3984375 Z M1570.37109,70.3984375 C1570.37109,53.6014785 1569.6224,42.6640879 1568.125,37.5859375 C1565.97655,30.0989209 1560.18234,26.3554688 1550.74219,26.3554688 C1541.30204,26.3554688 1535.50782,30.0989209 1533.35938,37.5859375 C1531.86197,42.9245059 1531.11328,53.8618965 1531.11328,70.3984375 C1531.11328,87.1953965 1531.86197,98.1327871 1533.35938,103.210938 C1535.50782,110.697954 1541.30204,114.441406 1550.74219,114.441406 C1560.18234,114.441406 1565.97655,110.697954 1568.125,103.210938 C1569.6224,98.1327871 1570.37109,87.1953965 1570.37109,70.3984375 Z M1716.95312,106.042969 L1698.59375,106.042969 L1698.59375,137 L1672.51953,137 L1672.51953,106.042969 L1615.58594,106.042969 L1615.58594,82.6054688 L1671.73828,3.6015625 L1698.59375,3.6015625 L1698.59375,82.2148438 L1716.95312,82.2148438 L1716.95312,106.042969 Z M1672.51953,82.2148438 L1672.51953,40.0273438 L1643.71094,82.2148438 L1672.51953,82.2148438 Z M1830.13672,70.3984375 C1830.13672,80.4245293 1829.8763,88.8879863 1829.35547,95.7890625 C1828.18359,110.567782 1824.11462,121.309862 1817.14844,128.015625 C1809.72653,135.04691 1798.00789,138.5625 1781.99219,138.5625 C1766.49732,138.5625 1754.974,135.242221 1747.42188,128.601562 C1741.10674,123.132785 1737.03777,114.799535 1735.21484,103.601562 C1734.23828,97.4817402 1733.75,86.4141426 1733.75,70.3984375 C1733.75,54.3827324 1734.23828,43.3151348 1735.21484,37.1953125 C1737.03777,25.9973398 1741.17184,17.6640898 1747.61719,12.1953125 C1755.0391,5.5546543 1766.49732,2.234375 1781.99219,2.234375 C1797.42195,2.234375 1808.94527,5.5546543 1816.5625,12.1953125 C1822.81253,17.6640898 1826.8815,25.9973398 1828.76953,37.1953125 C1829.68099,43.3151348 1830.13672,54.3827324 1830.13672,70.3984375 Z M1801.62109,70.3984375 C1801.62109,53.6014785 1800.8724,42.6640879 1799.375,37.5859375 C1797.22655,30.0989209 1791.43234,26.3554688 1781.99219,26.3554688 C1772.55204,26.3554688 1766.75782,30.0989209 1764.60938,37.5859375 C1763.11197,42.9245059 1762.36328,53.8618965 1762.36328,70.3984375 C1762.36328,87.1953965 1763.11197,98.1327871 1764.60938,103.210938 C1766.75782,110.697954 1772.55204,114.441406 1781.99219,114.441406 C1791.43234,114.441406 1797.22655,110.697954 1799.375,103.210938 C1800.8724,98.1327871 1801.62109,87.1953965 1801.62109,70.3984375 Z M1948.20312,106.042969 L1929.84375,106.042969 L1929.84375,137 L1903.76953,137 L1903.76953,106.042969 L1846.83594,106.042969 L1846.83594,82.6054688 L1902.98828,3.6015625 L1929.84375,3.6015625 L1929.84375,82.2148438 L1948.20312,82.2148438 L1948.20312,106.042969 Z M1903.76953,82.2148438 L1903.76953,40.0273438 L1874.96094,82.2148438 L1903.76953,82.2148438 Z M2061.38672,70.3984375 C2061.38672,80.4245293 2061.1263,88.8879863 2060.60547,95.7890625 C2059.43359,110.567782 2055.36462,121.309862 2048.39844,128.015625 C2040.97653,135.04691 2029.25789,138.5625 2013.24219,138.5625 C1997.74732,138.5625 1986.224,135.242221 1978.67188,128.601562 C1972.35674,123.132785 1968.28777,114.799535 1966.46484,103.601562 C1965.48828,97.4817402 1965,86.4141426 1965,70.3984375 C1965,54.3827324 1965.48828,43.3151348 1966.46484,37.1953125 C1968.28777,25.9973398 1972.42184,17.6640898 1978.86719,12.1953125 C1986.2891,5.5546543 1997.74732,2.234375 2013.24219,2.234375 C2028.67195,2.234375 2040.19527,5.5546543 2047.8125,12.1953125 C2054.06253,17.6640898 2058.1315,25.9973398 2060.01953,37.1953125 C2060.93099,43.3151348 2061.38672,54.3827324 2061.38672,70.3984375 Z M2032.87109,70.3984375 C2032.87109,53.6014785 2032.1224,42.6640879 2030.625,37.5859375 C2028.47655,30.0989209 2022.68234,26.3554688 2013.24219,26.3554688 C2003.80204,26.3554688 1998.00782,30.0989209 1995.85938,37.5859375 C1994.36197,42.9245059 1993.61328,53.8618965 1993.61328,70.3984375 C1993.61328,87.1953965 1994.36197,98.1327871 1995.85938,103.210938 C1998.00782,110.697954 2003.80204,114.441406 2013.24219,114.441406 C2022.68234,114.441406 2028.47655,110.697954 2030.625,103.210938 C2032.1224,98.1327871 2032.87109,87.1953965 2032.87109,70.3984375 Z M2179.45312,106.042969 L2161.09375,106.042969 L2161.09375,137 L2135.01953,137 L2135.01953,106.042969 L2078.08594,106.042969 L2078.08594,82.6054688 L2134.23828,3.6015625 L2161.09375,3.6015625 L2161.09375,82.2148438 L2179.45312,82.2148438 L2179.45312,106.042969 Z M2135.01953,82.2148438 L2135.01953,40.0273438 L2106.21094,82.2148438 L2135.01953,82.2148438 Z M2292.63672,70.3984375 C2292.63672,80.4245293 2292.3763,88.8879863 2291.85547,95.7890625 C2290.68359,110.567782 2286.61462,121.309862 2279.64844,128.015625 C2272.22653,135.04691 2260.50789,138.5625 2244.49219,138.5625 C2228.99732,138.5625 2217.474,135.242221 2209.92188,128.601562 C2203.60674,123.132785 2199.53777,114.799535 2197.71484,103.601562 C2196.73828,97.4817402 2196.25,86.4141426 2196.25,70.3984375 C2196.25,54.3827324 2196.73828,43.3151348 2197.71484,37.1953125 C2199.53777,25.9973398 2203.67184,17.6640898 2210.11719,12.1953125 C2217.5391,5.5546543 2228.99732,2.234375 2244.49219,2.234375 C2259.92195,2.234375 2271.44527,5.5546543 2279.0625,12.1953125 C2285.31253,17.6640898 2289.3815,25.9973398 2291.26953,37.1953125 C2292.18099,43.3151348 2292.63672,54.3827324 2292.63672,70.3984375 Z M2264.12109,70.3984375 C2264.12109,53.6014785 2263.3724,42.6640879 2261.875,37.5859375 C2259.72655,30.0989209 2253.93234,26.3554688 2244.49219,26.3554688 C2235.05204,26.3554688 2229.25782,30.0989209 2227.10938,37.5859375 C2225.61197,42.9245059 2224.86328,53.8618965 2224.86328,70.3984375 C2224.86328,87.1953965 2225.61197,98.1327871 2227.10938,103.210938 C2229.25782,110.697954 2235.05204,114.441406 2244.49219,114.441406 C2253.93234,114.441406 2259.72655,110.697954 2261.875,103.210938 C2263.3724,98.1327871 2264.12109,87.1953965 2264.12109,70.3984375 Z M2410.70312,106.042969 L2392.34375,106.042969 L2392.34375,137 L2366.26953,137 L2366.26953,106.042969 L2309.33594,106.042969 L2309.33594,82.6054688 L2365.48828,3.6015625 L2392.34375,3.6015625 L2392.34375,82.2148438 L2410.70312,82.2148438 L2410.70312,106.042969 Z M2366.26953,82.2148438 L2366.26953,40.0273438 L2337.46094,82.2148438 L2366.26953,82.2148438 Z M2523.88672,70.3984375 C2523.88672,80.4245293 2523.6263,88.8879863 2523.10547,95.7890625 C2521.93359,110.567782 2517.86462,121.309862 2510.89844,128.015625 C2503.47653,135.04691 2491.75789,138.5625 2475.74219,138.5625 C2460.24732,138.5625 2448.724,135.242221 2441.17188,128.601562 C2434.85674,123.132785 2430.78777,114.799535 2428.96484,103.601562 C2427.98828,97.4817402 2427.5,86.4141426 2427.5,70.3984375 C2427.5,54.3827324 2427.98828,43.3151348 2428.96484,37.1953125 C2430.78777,25.9973398 2434.92184,17.6640898 2441.36719,12.1953125 C2448.7891,5.5546543 2460.24732,2.234375 2475.74219,2.234375 C2491.17195,2.234375 2502.69527,5.5546543 2510.3125,12.1953125 C2516.56253,17.6640898 2520.6315,25.9973398 2522.51953,37.1953125 C2523.43099,43.3151348 2523.88672,54.3827324 2523.88672,70.3984375 Z M2495.37109,70.3984375 C2495.37109,53.6014785 2494.6224,42.6640879 2493.125,37.5859375 C2490.97655,30.0989209 2485.18234,26.3554688 2475.74219,26.3554688 C2466.30204,26.3554688 2460.50782,30.0989209 2458.35938,37.5859375 C2456.86197,42.9245059 2456.11328,53.8618965 2456.11328,70.3984375 C2456.11328,87.1953965 2456.86197,98.1327871 2458.35938,103.210938 C2460.50782,110.697954 2466.30204,114.441406 2475.74219,114.441406 C2485.18234,114.441406 2490.97655,110.697954 2493.125,103.210938 C2494.6224,98.1327871 2495.37109,87.1953965 2495.37109,70.3984375 Z M2641.95312,106.042969 L2623.59375,106.042969 L2623.59375,137 L2597.51953,137 L2597.51953,106.042969 L2540.58594,106.042969 L2540.58594,82.6054688 L2596.73828,3.6015625 L2623.59375,3.6015625 L2623.59375,82.2148438 L2641.95312,82.2148438 L2641.95312,106.042969 Z M2597.51953,82.2148438 L2597.51953,40.0273438 L2568.71094,82.2148438 L2597.51953,82.2148438 Z M2755.13672,70.3984375 C2755.13672,80.4245293 2754.8763,88.8879863 2754.35547,95.7890625 C2753.18359,110.567782 2749.11462,121.309862 2742.14844,128.015625 C2734.72653,135.04691 2723.00789,138.5625 2706.99219,138.5625 C2691.49732,138.5625 2679.974,135.242221 2672.42188,128.601562 C2666.10674,123.132785 2662.03777,114.799535 2660.21484,103.601562 C2659.23828,97.4817402 2658.75,86.4141426 2658.75,70.3984375 C2658.75,54.3827324 2659.23828,43.3151348 2660.21484,37.1953125 C2662.03777,25.9973398 2666.17184,17.6640898 2672.61719,12.1953125 C2680.0391,5.5546543 2691.49732,2.234375 2706.99219,2.234375 C2722.42195,2.234375 2733.94527,5.5546543 2741.5625,12.1953125 C2747.81253,17.6640898 2751.8815,25.9973398 2753.76953,37.1953125 C2754.68099,43.3151348 2755.13672,54.3827324 2755.13672,70.3984375 Z M2726.62109,70.3984375 C2726.62109,53.6014785 2725.8724,42.6640879 2724.375,37.5859375 C2722.22655,30.0989209 2716.43234,26.3554688 2706.99219,26.3554688 C2697.55204,26.3554688 2691.75782,30.0989209 2689.60938,37.5859375 C2688.11197,42.9245059 2687.36328,53.8618965 2687.36328,70.3984375 C2687.36328,87.1953965 2688.11197,98.1327871 2689.60938,103.210938 C2691.75782,110.697954 2697.55204,114.441406 2706.99219,114.441406 C2716.43234,114.441406 2722.22655,110.697954 2724.375,103.210938 C2725.8724,98.1327871 2726.62109,87.1953965 2726.62109,70.3984375 Z M2873.20312,106.042969 L2854.84375,106.042969 L2854.84375,137 L2828.76953,137 L2828.76953,106.042969 L2771.83594,106.042969 L2771.83594,82.6054688 L2827.98828,3.6015625 L2854.84375,3.6015625 L2854.84375,82.2148438 L2873.20312,82.2148438 L2873.20312,106.042969 Z M2828.76953,82.2148438 L2828.76953,40.0273438 L2799.96094,82.2148438 L2828.76953,82.2148438 Z M2986.38672,70.3984375 C2986.38672,80.4245293 2986.1263,88.8879863 2985.60547,95.7890625 C2984.43359,110.567782 2980.36462,121.309862 2973.39844,128.015625 C2965.97653,135.04691 2954.25789,138.5625 2938.24219,138.5625 C2922.74732,138.5625 2911.224,135.242221 2903.67188,128.601562 C2897.35674,123.132785 2893.28777,114.799535 2891.46484,103.601562 C2890.48828,97.4817402 2890,86.4141426 2890,70.3984375 C2890,54.3827324 2890.48828,43.3151348 2891.46484,37.1953125 C2893.28777,25.9973398 2897.42184,17.6640898 2903.86719,12.1953125 C2911.2891,5.5546543 2922.74732,2.234375 2938.24219,2.234375 C2953.67195,2.234375 2965.19527,5.5546543 2972.8125,12.1953125 C2979.06253,17.6640898 2983.1315,25.9973398 2985.01953,37.1953125 C2985.93099,43.3151348 2986.38672,54.3827324 2986.38672,70.3984375 Z M2957.87109,70.3984375 C2957.87109,53.6014785 2957.1224,42.6640879 2955.625,37.5859375 C2953.47655,30.0989209 2947.68234,26.3554688 2938.24219,26.3554688 C2928.80204,26.3554688 2923.00782,30.0989209 2920.85938,37.5859375 C2919.36197,42.9245059 2918.61328,53.8618965 2918.61328,70.3984375 C2918.61328,87.1953965 2919.36197,98.1327871 2920.85938,103.210938 C2923.00782,110.697954 2928.80204,114.441406 2938.24219,114.441406 C2947.68234,114.441406 2953.47655,110.697954 2955.625,103.210938 C2957.1224,98.1327871 2957.87109,87.1953965 2957.87109,70.3984375 Z M3104.45312,106.042969 L3086.09375,106.042969 L3086.09375,137 L3060.01953,137 L3060.01953,106.042969 L3003.08594,106.042969 L3003.08594,82.6054688 L3059.23828,3.6015625 L3086.09375,3.6015625 L3086.09375,82.2148438 L3104.45312,82.2148438 L3104.45312,106.042969 Z M3060.01953,82.2148438 L3060.01953,40.0273438 L3031.21094,82.2148438 L3060.01953,82.2148438 Z M3217.63672,70.3984375 C3217.63672,80.4245293 3217.3763,88.8879863 3216.85547,95.7890625 C3215.68359,110.567782 3211.61462,121.309862 3204.64844,128.015625 C3197.22653,135.04691 3185.50789,138.5625 3169.49219,138.5625 C3153.99732,138.5625 3142.474,135.242221 3134.92188,128.601562 C3128.60674,123.132785 3124.53777,114.799535 3122.71484,103.601562 C3121.73828,97.4817402 3121.25,86.4141426 3121.25,70.3984375 C3121.25,54.3827324 3121.73828,43.3151348 3122.71484,37.1953125 C3124.53777,25.9973398 3128.67184,17.6640898 3135.11719,12.1953125 C3142.5391,5.5546543 3153.99732,2.234375 3169.49219,2.234375 C3184.92195,2.234375 3196.44527,5.5546543 3204.0625,12.1953125 C3210.31253,17.6640898 3214.3815,25.9973398 3216.26953,37.1953125 C3217.18099,43.3151348 3217.63672,54.3827324 3217.63672,70.3984375 Z M3189.12109,70.3984375 C3189.12109,53.6014785 3188.3724,42.6640879 3186.875,37.5859375 C3184.72655,30.0989209 3178.93234,26.3554688 3169.49219,26.3554688 C3160.05204,26.3554688 3154.25782,30.0989209 3152.10938,37.5859375 C3150.61197,42.9245059 3149.86328,53.8618965 3149.86328,70.3984375 C3149.86328,87.1953965 3150.61197,98.1327871 3152.10938,103.210938 C3154.25782,110.697954 3160.05204,114.441406 3169.49219,114.441406 C3178.93234,114.441406 3184.72655,110.697954 3186.875,103.210938 C3188.3724,98.1327871 3189.12109,87.1953965 3189.12109,70.3984375 Z M3335.70312,106.042969 L3317.34375,106.042969 L3317.34375,137 L3291.26953,137 L3291.26953,106.042969 L3234.33594,106.042969 L3234.33594,82.6054688 L3290.48828,3.6015625 L3317.34375,3.6015625 L3317.34375,82.2148438 L3335.70312,82.2148438 L3335.70312,106.042969 Z M3291.26953,82.2148438 L3291.26953,40.0273438 L3262.46094,82.2148438 L3291.26953,82.2148438 Z M3448.88672,70.3984375 C3448.88672,80.4245293 3448.6263,88.8879863 3448.10547,95.7890625 C3446.93359,110.567782 3442.86462,121.309862 3435.89844,128.015625 C3428.47653,135.04691 3416.75789,138.5625 3400.74219,138.5625 C3385.24732,138.5625 3373.724,135.242221 3366.17188,128.601562 C3359.85674,123.132785 3355.78777,114.799535 3353.96484,103.601562 C3352.98828,97.4817402 3352.5,86.4141426 3352.5,70.3984375 C3352.5,54.3827324 3352.98828,43.3151348 3353.96484,37.1953125 C3355.78777,25.9973398 3359.92184,17.6640898 3366.36719,12.1953125 C3373.7891,5.5546543 3385.24732,2.234375 3400.74219,2.234375 C3416.17195,2.234375 3427.69527,5.5546543 3435.3125,12.1953125 C3441.56253,17.6640898 3445.6315,25.9973398 3447.51953,37.1953125 C3448.43099,43.3151348 3448.88672,54.3827324 3448.88672,70.3984375 Z M3420.37109,70.3984375 C3420.37109,53.6014785 3419.6224,42.6640879 3418.125,37.5859375 C3415.97655,30.0989209 3410.18234,26.3554688 3400.74219,26.3554688 C3391.30204,26.3554688 3385.50782,30.0989209 3383.35938,37.5859375 C3381.86197,42.9245059 3381.11328,53.8618965 3381.11328,70.3984375 C3381.11328,87.1953965 3381.86197,98.1327871 3383.35938,103.210938 C3385.50782,110.697954 3391.30204,114.441406 3400.74219,114.441406 C3410.18234,114.441406 3415.97655,110.697954 3418.125,103.210938 C3419.6224,98.1327871 3420.37109,87.1953965 3420.37109,70.3984375 Z M3566.95312,106.042969 L3548.59375,106.042969 L3548.59375,137 L3522.51953,137 L3522.51953,106.042969 L3465.58594,106.042969 L3465.58594,82.6054688 L3521.73828,3.6015625 L3548.59375,3.6015625 L3548.59375,82.2148438 L3566.95312,82.2148438 L3566.95312,106.042969 Z M3522.51953,82.2148438 L3522.51953,40.0273438 L3493.71094,82.2148438 L3522.51953,82.2148438 Z M3680.13672,70.3984375 C3680.13672,80.4245293 3679.8763,88.8879863 3679.35547,95.7890625 C3678.18359,110.567782 3674.11462,121.309862 3667.14844,128.015625 C3659.72653,135.04691 3648.00789,138.5625 3631.99219,138.5625 C3616.49732,138.5625 3604.974,135.242221 3597.42188,128.601562 C3591.10674,123.132785 3587.03777,114.799535 3585.21484,103.601562 C3584.23828,97.4817402 3583.75,86.4141426 3583.75,70.3984375 C3583.75,54.3827324 3584.23828,43.3151348 3585.21484,37.1953125 C3587.03777,25.9973398 3591.17184,17.6640898 3597.61719,12.1953125 C3605.0391,5.5546543 3616.49732,2.234375 3631.99219,2.234375 C3647.42195,2.234375 3658.94527,5.5546543 3666.5625,12.1953125 C3672.81253,17.6640898 3676.8815,25.9973398 3678.76953,37.1953125 C3679.68099,43.3151348 3680.13672,54.3827324 3680.13672,70.3984375 Z M3651.62109,70.3984375 C3651.62109,53.6014785 3650.8724,42.6640879 3649.375,37.5859375 C3647.22655,30.0989209 3641.43234,26.3554688 3631.99219,26.3554688 C3622.55204,26.3554688 3616.75782,30.0989209 3614.60938,37.5859375 C3613.11197,42.9245059 3612.36328,53.8618965 3612.36328,70.3984375 C3612.36328,87.1953965 3613.11197,98.1327871 3614.60938,103.210938 C3616.75782,110.697954 3622.55204,114.441406 3631.99219,114.441406 C3641.43234,114.441406 3647.22655,110.697954 3649.375,103.210938 C3650.8724,98.1327871 3651.62109,87.1953965 3651.62109,70.3984375 Z M3798.20312,106.042969 L3779.84375,106.042969 L3779.84375,137 L3753.76953,137 L3753.76953,106.042969 L3696.83594,106.042969 L3696.83594,82.6054688 L3752.98828,3.6015625 L3779.84375,3.6015625 L3779.84375,82.2148438 L3798.20312,82.2148438 L3798.20312,106.042969 Z M3753.76953,82.2148438 L3753.76953,40.0273438 L3724.96094,82.2148438 L3753.76953,82.2148438 Z M3911.38672,70.3984375 C3911.38672,80.4245293 3911.1263,88.8879863 3910.60547,95.7890625 C3909.43359,110.567782 3905.36462,121.309862 3898.39844,128.015625 C3890.97653,135.04691 3879.25789,138.5625 3863.24219,138.5625 C3847.74732,138.5625 3836.224,135.242221 3828.67188,128.601562 C3822.35674,123.132785 3818.28777,114.799535 3816.46484,103.601562 C3815.48828,97.4817402 3815,86.4141426 3815,70.3984375 C3815,54.3827324 3815.48828,43.3151348 3816.46484,37.1953125 C3818.28777,25.9973398 3822.42184,17.6640898 3828.86719,12.1953125 C3836.2891,5.5546543 3847.74732,2.234375 3863.24219,2.234375 C3878.67195,2.234375 3890.19527,5.5546543 3897.8125,12.1953125 C3904.06253,17.6640898 3908.1315,25.9973398 3910.01953,37.1953125 C3910.93099,43.3151348 3911.38672,54.3827324 3911.38672,70.3984375 Z M3882.87109,70.3984375 C3882.87109,53.6014785 3882.1224,42.6640879 3880.625,37.5859375 C3878.47655,30.0989209 3872.68234,26.3554688 3863.24219,26.3554688 C3853.80204,26.3554688 3848.00782,30.0989209 3845.85938,37.5859375 C3844.36197,42.9245059 3843.61328,53.8618965 3843.61328,70.3984375 C3843.61328,87.1953965 3844.36197,98.1327871 3845.85938,103.210938 C3848.00782,110.697954 3853.80204,114.441406 3863.24219,114.441406 C3872.68234,114.441406 3878.47655,110.697954 3880.625,103.210938 C3882.1224,98.1327871 3882.87109,87.1953965 3882.87109,70.3984375 Z M4029.45312,106.042969 L4011.09375,106.042969 L4011.09375,137 L3985.01953,137 L3985.01953,106.042969 L3928.08594,106.042969 L3928.08594,82.6054688 L3984.23828,3.6015625 L4011.09375,3.6015625 L4011.09375,82.2148438 L4029.45312,82.2148438 L4029.45312,106.042969 Z M3985.01953,82.2148438 L3985.01953,40.0273438 L3956.21094,82.2148438 L3985.01953,82.2148438 Z M4142.63672,70.3984375 C4142.63672,80.4245293 4142.3763,88.8879863 4141.85547,95.7890625 C4140.68359,110.567782 4136.61462,121.309862 4129.64844,128.015625 C4122.22653,135.04691 4110.50789,138.5625 4094.49219,138.5625 C4078.99732,138.5625 4067.474,135.242221 4059.92188,128.601562 C4053.60674,123.132785 4049.53777,114.799535 4047.71484,103.601562 C4046.73828,97.4817402 4046.25,86.4141426 4046.25,70.3984375 C4046.25,54.3827324 4046.73828,43.3151348 4047.71484,37.1953125 C4049.53777,25.9973398 4053.67184,17.6640898 4060.11719,12.1953125 C4067.5391,5.5546543 4078.99732,2.234375 4094.49219,2.234375 C4109.92195,2.234375 4121.44527,5.5546543 4129.0625,12.1953125 C4135.31253,17.6640898 4139.3815,25.9973398 4141.26953,37.1953125 C4142.18099,43.3151348 4142.63672,54.3827324 4142.63672,70.3984375 Z M4114.12109,70.3984375 C4114.12109,53.6014785 4113.3724,42.6640879 4111.875,37.5859375 C4109.72655,30.0989209 4103.93234,26.3554688 4094.49219,26.3554688 C4085.05204,26.3554688 4079.25782,30.0989209 4077.10938,37.5859375 C4075.61197,42.9245059 4074.86328,53.8618965 4074.86328,70.3984375 C4074.86328,87.1953965 4075.61197,98.1327871 4077.10938,103.210938 C4079.25782,110.697954 4085.05204,114.441406 4094.49219,114.441406 C4103.93234,114.441406 4109.72655,110.697954 4111.875,103.210938 C4113.3724,98.1327871 4114.12109,87.1953965 4114.12109,70.3984375 Z M4260.70312,106.042969 L4242.34375,106.042969 L4242.34375,137 L4216.26953,137 L4216.26953,106.042969 L4159.33594,106.042969 L4159.33594,82.6054688 L4215.48828,3.6015625 L4242.34375,3.6015625 L4242.34375,82.2148438 L4260.70312,82.2148438 L4260.70312,106.042969 Z M4216.26953,82.2148438 L4216.26953,40.0273438 L4187.46094,82.2148438 L4216.26953,82.2148438 Z M4373.88672,70.3984375 C4373.88672,80.4245293 4373.6263,88.8879863 4373.10547,95.7890625 C4371.93359,110.567782 4367.86462,121.309862 4360.89844,128.015625 C4353.47653,135.04691 4341.75789,138.5625 4325.74219,138.5625 C4310.24732,138.5625 4298.724,135.242221 4291.17188,128.601562 C4284.85674,123.132785 4280.78777,114.799535 4278.96484,103.601562 C4277.98828,97.4817402 4277.5,86.4141426 4277.5,70.3984375 C4277.5,54.3827324 4277.98828,43.3151348 4278.96484,37.1953125 C4280.78777,25.9973398 4284.92184,17.6640898 4291.36719,12.1953125 C4298.7891,5.5546543 4310.24732,2.234375 4325.74219,2.234375 C4341.17195,2.234375 4352.69527,5.5546543 4360.3125,12.1953125 C4366.56253,17.6640898 4370.6315,25.9973398 4372.51953,37.1953125 C4373.43099,43.3151348 4373.88672,54.3827324 4373.88672,70.3984375 Z M4345.37109,70.3984375 C4345.37109,53.6014785 4344.6224,42.6640879 4343.125,37.5859375 C4340.97655,30.0989209 4335.18234,26.3554688 4325.74219,26.3554688 C4316.30204,26.3554688 4310.50782,30.0989209 4308.35938,37.5859375 C4306.86197,42.9245059 4306.11328,53.8618965 4306.11328,70.3984375 C4306.11328,87.1953965 4306.86197,98.1327871 4308.35938,103.210938 C4310.50782,110.697954 4316.30204,114.441406 4325.74219,114.441406 C4335.18234,114.441406 4340.97655,110.697954 4343.125,103.210938 C4344.6224,98.1327871 4345.37109,87.1953965 4345.37109,70.3984375 Z M4491.95312,106.042969 L4473.59375,106.042969 L4473.59375,137 L4447.51953,137 L4447.51953,106.042969 L4390.58594,106.042969 L4390.58594,82.6054688 L4446.73828,3.6015625 L4473.59375,3.6015625 L4473.59375,82.2148438 L4491.95312,82.2148438 L4491.95312,106.042969 Z M4447.51953,82.2148438 L4447.51953,40.0273438 L4418.71094,82.2148438 L4447.51953,82.2148438 Z M4605.13672,70.3984375 C4605.13672,80.4245293 4604.8763,88.8879863 4604.35547,95.7890625 C4603.18359,110.567782 4599.11462,121.309862 4592.14844,128.015625 C4584.72653,135.04691 4573.00789,138.5625 4556.99219,138.5625 C4541.49732,138.5625 4529.974,135.242221 4522.42188,128.601562 C4516.10674,123.132785 4512.03777,114.799535 4510.21484,103.601562 C4509.23828,97.4817402 4508.75,86.4141426 4508.75,70.3984375 C4508.75,54.3827324 4509.23828,43.3151348 4510.21484,37.1953125 C4512.03777,25.9973398 4516.17184,17.6640898 4522.61719,12.1953125 C4530.0391,5.5546543 4541.49732,2.234375 4556.99219,2.234375 C4572.42195,2.234375 4583.94527,5.5546543 4591.5625,12.1953125 C4597.81253,17.6640898 4601.8815,25.9973398 4603.76953,37.1953125 C4604.68099,43.3151348 4605.13672,54.3827324 4605.13672,70.3984375 Z M4576.62109,70.3984375 C4576.62109,53.6014785 4575.8724,42.6640879 4574.375,37.5859375 C4572.22655,30.0989209 4566.43234,26.3554688 4556.99219,26.3554688 C4547.55204,26.3554688 4541.75782,30.0989209 4539.60938,37.5859375 C4538.11197,42.9245059 4537.36328,53.8618965 4537.36328,70.3984375 C4537.36328,87.1953965 4538.11197,98.1327871 4539.60938,103.210938 C4541.75782,110.697954 4547.55204,114.441406 4556.99219,114.441406 C4566.43234,114.441406 4572.22655,110.697954 4574.375,103.210938 C4575.8724,98.1327871 4576.62109,87.1953965 4576.62109,70.3984375 Z M4723.20312,106.042969 L4704.84375,106.042969 L4704.84375,137 L4678.76953,137 L4678.76953,106.042969 L4621.83594,106.042969 L4621.83594,82.6054688 L4677.98828,3.6015625 L4704.84375,3.6015625 L4704.84375,82.2148438 L4723.20312,82.2148438 L4723.20312,106.042969 Z M4678.76953,82.2148438 L4678.76953,40.0273438 L4649.96094,82.2148438 L4678.76953,82.2148438 Z" id="40404040404040404040" stroke="#FFFFFF" stroke-width="0.1" fill="#FFFFFF"></path>
    </g>
</svg>