<svg xmlns="http://www.w3.org/2000/svg" viewBox="0 0 127.11 99.31"><defs><style>.cls-1{fill:#9b9b9b;}</style></defs><title>quote_close</title><g id="Layer_2" data-name="Layer 2"><g id="Layer_1-2" data-name="Layer 1"><g id="Layer_2-2" data-name="Layer 2"><g id="Layer_1-2-2" data-name="Layer 1-2"><path class="cls-1" d="M20.84,33.34Q16.22,27.13,7.11,22A11.23,11.23,0,0,1,.67,11.25a11.4,11.4,0,0,1,2.9-8.19Q6.47,0,11.93,0q6,0,13.49,4.88A58.4,58.4,0,0,1,39.48,18.12,72,72,0,0,1,50.16,37.73a69.37,69.37,0,0,1,4.13,24q0,17.72-8,27.64T26.11,99.3A26.09,26.09,0,0,1,7.54,92.22,23.16,23.16,0,0,1,0,74.68a23.79,23.79,0,0,1,7.53-18q7.53-7.2,16.8-7.2h2.15Q25.46,39.55,20.84,33.34Zm73-.08A45.27,45.27,0,0,0,79.94,22a11.43,11.43,0,0,1-6.47-10.75,11.27,11.27,0,0,1,3-8.11C78.46,1.05,81.21,0,84.74,0q8,0,18.16,8.33T120.11,31a68.72,68.72,0,0,1,7,30.73q.06,17.84-8,27.55T99,99q-11.1,0-18.62-6.9a22.58,22.58,0,0,1-7.57-17.42,23.79,23.79,0,0,1,7.53-18q7.56-7.2,17-7.2h2.32Q99,39.73,93.85,33.26Z"/></g></g></g></g></svg>