<svg xmlns="http://www.w3.org/2000/svg" viewBox="0 0 127.1 99.3"><defs><style>.cls-1{fill:#9b9b9b;fill-rule:evenodd;}</style></defs><title>quotes</title><g id="Layer_2" data-name="Layer 2"><g id="Layer_1-2" data-name="Layer 1"><path class="cls-1" d="M100.62,49.48h2.15q9.27,0,16.8,7.2a23.83,23.83,0,0,1,7.53,18,23.19,23.19,0,0,1-7.53,17.54A26.1,26.1,0,0,1,101,99.3q-12.24,0-20.19-9.93T72.82,61.73a69.17,69.17,0,0,1,4.13-24A71.75,71.75,0,0,1,87.63,18.12,58.55,58.55,0,0,1,101.69,4.88Q109.22,0,115.18,0q5.46,0,8.36,3.06a11.43,11.43,0,0,1,2.9,8.19A11.24,11.24,0,0,1,120,22q-9.11,5.13-13.73,11.34T100.62,49.48Zm-73.15,0h2.32q9.43,0,17,7.2a23.83,23.83,0,0,1,7.53,18A22.6,22.6,0,0,1,46.75,92.1Q39.22,99,28.13,99,16.06,99,8,89.28T0,61.73A68.67,68.67,0,0,1,7,31q7-14.31,17.21-22.67T42.37,0c3.53,0,6.28,1.05,8.27,3.14a11.3,11.3,0,0,1,3,8.11A11.44,11.44,0,0,1,47.17,22,45.1,45.1,0,0,0,33.26,33.26Q28.13,39.73,27.47,49.48Z"/></g></g></svg>